<?xml version="1.0" encoding="UTF-8" standalone="no"?>
<svg
   xmlns:dc="http://purl.org/dc/elements/1.1/"
   xmlns:cc="http://creativecommons.org/ns#"
   xmlns:rdf="http://www.w3.org/1999/02/22-rdf-syntax-ns#"
   xmlns:svg="http://www.w3.org/2000/svg"
   xmlns="http://www.w3.org/2000/svg"
   xmlns:sodipodi="http://sodipodi.sourceforge.net/DTD/sodipodi-0.dtd"
   xmlns:inkscape="http://www.inkscape.org/namespaces/inkscape"
   width="100%"
   height="100%"
   viewBox="0 0 24 24"
   version="1.1"
   xml:space="preserve"
   style="fill-rule:evenodd;clip-rule:evenodd;stroke-linecap:round;stroke-linejoin:round;stroke-miterlimit:1.41421;"
   id="svg3880"
   inkscape:version="0.91 r13725"
   sodipodi:docname="asterisk.svg"><metadata
     id="metadata3894"><rdf:RDF><cc:Work
         rdf:about=""><dc:format>image/svg+xml</dc:format><dc:type
           rdf:resource="http://purl.org/dc/dcmitype/StillImage" /></cc:Work></rdf:RDF></metadata><defs
     id="defs3892" /><sodipodi:namedview
     pagecolor="#ffffff"
     bordercolor="#666666"
     borderopacity="1"
     objecttolerance="10"
     gridtolerance="10"
     guidetolerance="10"
     inkscape:pageopacity="0"
     inkscape:pageshadow="2"
     inkscape:window-width="640"
     inkscape:window-height="480"
     id="namedview3890"
     showgrid="false"
     inkscape:zoom="19"
     inkscape:cx="12"
     inkscape:cy="12"
     inkscape:current-layer="svg3880" /><path
     style="color:#000000;font-style:normal;font-variant:normal;font-weight:normal;font-stretch:normal;font-size:medium;line-height:normal;font-family:sans-serif;text-indent:0;text-align:start;text-decoration:none;text-decoration-line:none;text-decoration-style:solid;text-decoration-color:#000000;letter-spacing:normal;word-spacing:normal;text-transform:none;direction:ltr;block-progression:tb;writing-mode:lr-tb;baseline-shift:baseline;text-anchor:start;white-space:normal;clip-rule:nonzero;display:inline;overflow:visible;visibility:visible;opacity:1;isolation:auto;mix-blend-mode:normal;color-interpolation:sRGB;color-interpolation-filters:linearRGB;solid-color:#000000;solid-opacity:1;fill:#031204;fill-opacity:1;fill-rule:nonzero;stroke:none;stroke-width:2px;stroke-linecap:butt;stroke-linejoin:miter;stroke-miterlimit:1.41420996;stroke-dasharray:none;stroke-dashoffset:0;stroke-opacity:1;color-rendering:auto;image-rendering:auto;shape-rendering:auto;text-rendering:auto;enable-background:accumulate"
     d="M 11.984375 2.9863281 A 1.0001 1.0001 0 0 0 11 4 L 11 9.5859375 L 6.7070312 5.2929688 A 1.0001 1.0001 0 0 0 5.9902344 4.9902344 A 1.0001 1.0001 0 0 0 5.2929688 6.7070312 L 9.5859375 11 L 4 11 A 1.0001 1.0001 0 1 0 4 13 L 9.5859375 13 L 5.2929688 17.292969 A 1.0001 1.0001 0 1 0 6.7070312 18.707031 L 11 14.414062 L 11 20 A 1.0001 1.0001 0 1 0 13 20 L 13 14.414062 L 17.292969 18.707031 A 1.0001 1.0001 0 1 0 18.707031 17.292969 L 14.414062 13 L 20 13 A 1.0001 1.0001 0 1 0 20 11 L 14.414062 11 L 18.707031 6.7070312 A 1.0001 1.0001 0 0 0 17.980469 4.9902344 A 1.0001 1.0001 0 0 0 17.292969 5.2929688 L 13 9.5859375 L 13 4 A 1.0001 1.0001 0 0 0 11.984375 2.9863281 z "
     id="path3882" /></svg>