<?xml version="1.0" encoding="UTF-8" standalone="no"?>
<svg
   xmlns:dc="http://purl.org/dc/elements/1.1/"
   xmlns:cc="http://creativecommons.org/ns#"
   xmlns:rdf="http://www.w3.org/1999/02/22-rdf-syntax-ns#"
   xmlns:svg="http://www.w3.org/2000/svg"
   xmlns="http://www.w3.org/2000/svg"
   xmlns:sodipodi="http://sodipodi.sourceforge.net/DTD/sodipodi-0.dtd"
   xmlns:inkscape="http://www.inkscape.org/namespaces/inkscape"
   width="100%"
   height="100%"
   viewBox="0 0 24 24"
   version="1.1"
   xml:space="preserve"
   style="fill-rule:evenodd;clip-rule:evenodd;stroke-linecap:round;stroke-linejoin:round;stroke-miterlimit:1.41421;"
   id="svg3957"
   inkscape:version="0.91 r13725"
   sodipodi:docname="baby.svg"><metadata
     id="metadata3971"><rdf:RDF><cc:Work
         rdf:about=""><dc:format>image/svg+xml</dc:format><dc:type
           rdf:resource="http://purl.org/dc/dcmitype/StillImage" /></cc:Work></rdf:RDF></metadata><defs
     id="defs3969" /><sodipodi:namedview
     pagecolor="#ffffff"
     bordercolor="#666666"
     borderopacity="1"
     objecttolerance="10"
     gridtolerance="10"
     guidetolerance="10"
     inkscape:pageopacity="0"
     inkscape:pageshadow="2"
     inkscape:window-width="640"
     inkscape:window-height="480"
     id="namedview3967"
     showgrid="false"
     inkscape:zoom="19"
     inkscape:cx="12"
     inkscape:cy="12"
     inkscape:current-layer="svg3957" /><g
     transform="matrix(1,2.72144e-17,2.72144e-17,0.888889,-7.99361e-15,1.22222)"
     id="g3959"><path
       style="color:#000000;font-style:normal;font-variant:normal;font-weight:normal;font-stretch:normal;font-size:medium;line-height:normal;font-family:sans-serif;text-indent:0;text-align:start;text-decoration:none;text-decoration-line:none;text-decoration-style:solid;text-decoration-color:#000000;letter-spacing:normal;word-spacing:normal;text-transform:none;direction:ltr;block-progression:tb;writing-mode:lr-tb;baseline-shift:baseline;text-anchor:start;white-space:normal;clip-rule:nonzero;display:inline;overflow:visible;visibility:visible;opacity:1;isolation:auto;mix-blend-mode:normal;color-interpolation:sRGB;color-interpolation-filters:linearRGB;solid-color:#000000;solid-opacity:1;fill:#000000;fill-opacity:1;fill-rule:nonzero;stroke:none;stroke-width:2.1099999px;stroke-linecap:butt;stroke-linejoin:miter;stroke-miterlimit:1.41420996;stroke-dasharray:none;stroke-dashoffset:0;stroke-opacity:1;color-rendering:auto;image-rendering:auto;shape-rendering:auto;text-rendering:auto;enable-background:accumulate"
       d="M 12 2.0625 C 9.1494262 2.0625 6.9453125 4.3403605 6.9453125 7 C 6.9453125 8.6971016 7.8481 10.231412 9.2382812 11.125 C 8.4794778 11.854287 8 12.872925 8 14 L 8 16 A 0.99947494 0.99947494 0 0 0 8.0234375 16.212891 L 9.1191406 21.212891 A 0.99947494 0.99947494 0 0 0 10.095703 22 L 14.001953 22 A 0.99947494 0.99947494 0 0 0 14.982422 21.195312 L 15.980469 16.195312 A 0.99947494 0.99947494 0 0 0 15.998047 16 L 15.998047 14 C 15.998047 12.871673 15.516778 11.856615 14.757812 11.126953 C 16.150076 10.233719 17.054688 8.6985884 17.054688 7 C 17.054688 4.3403605 14.850574 2.0625 12 2.0625 z M 12 3.9375 C 13.567704 3.9375 14.945313 5.2413609 14.945312 7 C 14.945312 8.6356668 13.750222 9.8635644 12.322266 10.029297 C 12.214578 10.020618 12.109311 10 12 10 C 11.895116 10 11.796293 10.023185 11.693359 10.03125 C 10.258466 9.8728156 9.0546875 8.6416423 9.0546875 7 C 9.0546875 5.2413609 10.432296 3.9375 12 3.9375 z M 12 12 C 12.12442 12 12.245367 12.010144 12.361328 12.03125 C 13.291432 12.200609 14.001953 13.009341 14.001953 14 L 14.001953 15.898438 L 13.181641 20 L 10.898438 20 L 10 15.892578 L 10 14 C 10 12.885373 10.885373 12 12 12 z "
       transform="matrix(1,0,0,1.1249999,0,-1.3749973)"
       id="ellipse3961" /></g><g
     transform="matrix(0.375,0,6.16298e-33,0.375,7.5,9.5)"
     id="g3963" /></svg>