<?xml version="1.0" encoding="UTF-8" standalone="no"?>
<svg
   xmlns:dc="http://purl.org/dc/elements/1.1/"
   xmlns:cc="http://creativecommons.org/ns#"
   xmlns:rdf="http://www.w3.org/1999/02/22-rdf-syntax-ns#"
   xmlns:svg="http://www.w3.org/2000/svg"
   xmlns="http://www.w3.org/2000/svg"
   xmlns:sodipodi="http://sodipodi.sourceforge.net/DTD/sodipodi-0.dtd"
   xmlns:inkscape="http://www.inkscape.org/namespaces/inkscape"
   width="100%"
   height="100%"
   viewBox="0 0 24 24"
   version="1.1"
   xml:space="preserve"
   style="fill-rule:evenodd;clip-rule:evenodd;stroke-linecap:round;stroke-linejoin:round;stroke-miterlimit:1.41421;"
   id="svg4190"
   inkscape:version="0.91 r13725"
   sodipodi:docname="box-checked.svg"><metadata
     id="metadata4202"><rdf:RDF><cc:Work
         rdf:about=""><dc:format>image/svg+xml</dc:format><dc:type
           rdf:resource="http://purl.org/dc/dcmitype/StillImage" /></cc:Work></rdf:RDF></metadata><defs
     id="defs4200" /><sodipodi:namedview
     pagecolor="#ffffff"
     bordercolor="#666666"
     borderopacity="1"
     objecttolerance="10"
     gridtolerance="10"
     guidetolerance="10"
     inkscape:pageopacity="0"
     inkscape:pageshadow="2"
     inkscape:window-width="640"
     inkscape:window-height="480"
     id="namedview4198"
     showgrid="false"
     inkscape:zoom="19"
     inkscape:cx="12"
     inkscape:cy="12"
     inkscape:current-layer="svg4190" /><path
     style="color:#000000;font-style:normal;font-variant:normal;font-weight:normal;font-stretch:normal;font-size:medium;line-height:normal;font-family:sans-serif;text-indent:0;text-align:start;text-decoration:none;text-decoration-line:none;text-decoration-style:solid;text-decoration-color:#000000;letter-spacing:normal;word-spacing:normal;text-transform:none;direction:ltr;block-progression:tb;writing-mode:lr-tb;baseline-shift:baseline;text-anchor:start;white-space:normal;clip-rule:nonzero;display:inline;overflow:visible;visibility:visible;opacity:1;isolation:auto;mix-blend-mode:normal;color-interpolation:sRGB;color-interpolation-filters:linearRGB;solid-color:#000000;solid-opacity:1;fill:#000000;fill-opacity:1;fill-rule:nonzero;stroke:none;stroke-width:2px;stroke-linecap:butt;stroke-linejoin:miter;stroke-miterlimit:1.41420996;stroke-dasharray:none;stroke-dashoffset:0;stroke-opacity:1;color-rendering:auto;image-rendering:auto;shape-rendering:auto;text-rendering:auto;enable-background:accumulate"
     d="M 20.03125 0.65039062 A 1.3351335 1.3351335 0 0 0 19.003906 1.1113281 C 18.465296 1.7142031 17.942461 2.3458035 17.427734 3 L 4 3 A 1.0001 1.0001 0 0 0 3 4 L 3 20 A 1.0001 1.0001 0 0 0 4 21 L 20 21 A 1.0001 1.0001 0 0 0 21 20 L 21 4 A 1.0001 1.0001 0 0 0 20.671875 3.2617188 C 20.780735 3.1378656 20.885643 3.0123008 20.996094 2.8886719 A 1.3351335 1.3351335 0 0 0 20.03125 0.65039062 z M 5 5 L 15.964844 5 C 14.293129 7.4941817 12.7574 10.546092 11.359375 14.777344 L 7.8339844 11.957031 A 1.3354079 1.3354079 0 0 0 6.1660156 14.042969 L 11.166016 18.042969 A 1.3351335 1.3351335 0 0 0 13.28125 17.375 C 15.017072 11.454473 16.859663 8.0800232 19 5.2871094 L 19 19 L 5 19 L 5 5 z "
     id="rect4192" /><g
     transform="matrix(1,0,0,1,-1,-2)"
     id="g4194" /></svg>