<?xml version="1.0" encoding="UTF-8" standalone="no"?>
<svg
   xmlns:dc="http://purl.org/dc/elements/1.1/"
   xmlns:cc="http://creativecommons.org/ns#"
   xmlns:rdf="http://www.w3.org/1999/02/22-rdf-syntax-ns#"
   xmlns:svg="http://www.w3.org/2000/svg"
   xmlns="http://www.w3.org/2000/svg"
   xmlns:sodipodi="http://sodipodi.sourceforge.net/DTD/sodipodi-0.dtd"
   xmlns:inkscape="http://www.inkscape.org/namespaces/inkscape"
   width="100%"
   height="100%"
   viewBox="0 0 24 24"
   version="1.1"
   xml:space="preserve"
   style="fill-rule:evenodd;clip-rule:evenodd;stroke-linecap:round;stroke-linejoin:round;stroke-miterlimit:1.41421;"
   id="svg4305"
   inkscape:version="0.91 r13725"
   sodipodi:docname="calculator.svg"><metadata
     id="metadata4363"><rdf:RDF><cc:Work
         rdf:about=""><dc:format>image/svg+xml</dc:format><dc:type
           rdf:resource="http://purl.org/dc/dcmitype/StillImage" /></cc:Work></rdf:RDF></metadata><defs
     id="defs4361" /><sodipodi:namedview
     pagecolor="#ffffff"
     bordercolor="#666666"
     borderopacity="1"
     objecttolerance="10"
     gridtolerance="10"
     guidetolerance="10"
     inkscape:pageopacity="0"
     inkscape:pageshadow="2"
     inkscape:window-width="640"
     inkscape:window-height="480"
     id="namedview4359"
     showgrid="false"
     inkscape:zoom="19"
     inkscape:cx="12"
     inkscape:cy="12"
     inkscape:current-layer="svg4305" /><g
     transform="matrix(1.07143,0,0,1,-0.357143,0)"
     id="g4307"><path
       style="color:#000000;font-style:normal;font-variant:normal;font-weight:normal;font-stretch:normal;font-size:medium;line-height:normal;font-family:sans-serif;text-indent:0;text-align:start;text-decoration:none;text-decoration-line:none;text-decoration-style:solid;text-decoration-color:#000000;letter-spacing:normal;word-spacing:normal;text-transform:none;direction:ltr;block-progression:tb;writing-mode:lr-tb;baseline-shift:baseline;text-anchor:start;white-space:normal;clip-rule:nonzero;display:inline;overflow:visible;visibility:visible;opacity:1;isolation:auto;mix-blend-mode:normal;color-interpolation:sRGB;color-interpolation-filters:linearRGB;solid-color:#000000;solid-opacity:1;fill:#000000;fill-opacity:1;fill-rule:nonzero;stroke:none;stroke-width:1.92999995px;stroke-linecap:butt;stroke-linejoin:miter;stroke-miterlimit:1.41420996;stroke-dasharray:none;stroke-dashoffset:0;stroke-opacity:1;color-rendering:auto;image-rendering:auto;shape-rendering:auto;text-rendering:auto;enable-background:accumulate"
       d="M 5 1.0351562 A 1.0340333 0.96509647 0 0 0 3.9667969 2 L 3.9667969 22 A 1.0340333 0.96509647 0 0 0 5 22.964844 L 20 22.964844 A 1.0340333 0.96509647 0 0 0 21.033203 22 L 21.033203 2 A 1.0340333 0.96509647 0 0 0 20 1.0351562 L 5 1.0351562 z M 6.0332031 2.9648438 L 18.966797 2.9648438 L 18.966797 9 L 6.0332031 9 L 6.0332031 2.9648438 z M 6.0332031 11 L 18.966797 11 L 18.966797 21.035156 L 6.0332031 21.035156 L 6.0332031 11 z "
       transform="matrix(0.93333209,0,0,1,0.33333302,0)"
       id="rect4309" /></g><circle
     cx="8"
     cy="19"
     r="1"
     style="fill:rgb(3,18,4);"
     id="circle4311" /><g
     transform="matrix(1,0,0,1,3,-2.10942e-15)"
     id="g4313"><circle
       cx="8"
       cy="19"
       r="1"
       style="fill:rgb(3,18,4);"
       id="circle4315" /></g><g
     transform="matrix(1,0,0,1,0,-3)"
     id="g4317"><circle
       cx="8"
       cy="19"
       r="1"
       style="fill:rgb(3,18,4);"
       id="circle4319" /></g><g
     transform="matrix(1,0,0,1,3,-3)"
     id="g4321"><circle
       cx="8"
       cy="19"
       r="1"
       style="fill:rgb(3,18,4);"
       id="circle4323" /></g><g
     transform="matrix(1,0,0,1,1.77636e-15,-6)"
     id="g4325"><circle
       cx="8"
       cy="19"
       r="1"
       style="fill:rgb(3,18,4);"
       id="circle4327" /></g><g
     transform="matrix(1,0,0,1,3,-6)"
     id="g4329"><circle
       cx="8"
       cy="19"
       r="1"
       style="fill:rgb(3,18,4);"
       id="circle4331" /></g><g
     transform="matrix(1,0,0,1,6,-3)"
     id="g4333"><circle
       cx="8"
       cy="19"
       r="1"
       style="fill:rgb(3,18,4);"
       id="circle4335" /></g><g
     transform="matrix(1,0,0,1,6,0)"
     id="g4337"><circle
       cx="8"
       cy="19"
       r="1"
       style="fill:rgb(3,18,4);"
       id="circle4339" /></g><g
     transform="matrix(1,0,0,1,6,-6)"
     id="g4341"><circle
       cx="8"
       cy="19"
       r="1"
       style="fill:rgb(3,18,4);"
       id="circle4343" /></g><g
     transform="matrix(1,0,0,1,9,-6)"
     id="g4345"><circle
       cx="8"
       cy="19"
       r="1"
       style="fill:rgb(3,18,4);"
       id="circle4347" /></g><path
     style="color:#000000;font-style:normal;font-variant:normal;font-weight:normal;font-stretch:normal;font-size:medium;line-height:normal;font-family:sans-serif;text-indent:0;text-align:start;text-decoration:none;text-decoration-line:none;text-decoration-style:solid;text-decoration-color:#000000;letter-spacing:normal;word-spacing:normal;text-transform:none;direction:ltr;block-progression:tb;writing-mode:lr-tb;baseline-shift:baseline;text-anchor:start;white-space:normal;clip-rule:nonzero;display:inline;overflow:visible;visibility:visible;opacity:1;isolation:auto;mix-blend-mode:normal;color-interpolation:sRGB;color-interpolation-filters:linearRGB;solid-color:#000000;solid-opacity:1;fill:#031204;fill-opacity:1;fill-rule:nonzero;stroke:none;stroke-width:2px;stroke-linecap:butt;stroke-linejoin:miter;stroke-miterlimit:1.41420996;stroke-dasharray:none;stroke-dashoffset:0;stroke-opacity:1;color-rendering:auto;image-rendering:auto;shape-rendering:auto;text-rendering:auto;enable-background:accumulate"
     d="M 16.984375,14.986328 A 1.0001,1.0001 0 0 0 16,16 l 0,3 a 1.0001,1.0001 0 1 0 2,0 l 0,-3 a 1.0001,1.0001 0 0 0 -1.015625,-1.013672 z"
     id="path4349"
     inkscape:connector-curvature="0" /><path
     style="color:#000000;font-style:normal;font-variant:normal;font-weight:normal;font-stretch:normal;font-size:medium;line-height:normal;font-family:sans-serif;text-indent:0;text-align:start;text-decoration:none;text-decoration-line:none;text-decoration-style:solid;text-decoration-color:#000000;letter-spacing:normal;word-spacing:normal;text-transform:none;direction:ltr;block-progression:tb;writing-mode:lr-tb;baseline-shift:baseline;text-anchor:start;white-space:normal;clip-rule:nonzero;display:inline;overflow:visible;visibility:visible;opacity:1;isolation:auto;mix-blend-mode:normal;color-interpolation:sRGB;color-interpolation-filters:linearRGB;solid-color:#000000;solid-opacity:1;fill:#031204;fill-opacity:1;fill-rule:nonzero;stroke:none;stroke-width:2px;stroke-linecap:butt;stroke-linejoin:miter;stroke-miterlimit:1.41420996;stroke-dasharray:none;stroke-dashoffset:0;stroke-opacity:1;color-rendering:auto;image-rendering:auto;shape-rendering:auto;text-rendering:auto;enable-background:accumulate"
     d="M 16.984375,3.9863281 A 1.0001,1.0001 0 0 0 16,5 l 0,2 a 1.0001,1.0001 0 1 0 2,0 L 18,5 A 1.0001,1.0001 0 0 0 16.984375,3.9863281 Z"
     id="path4353"
     inkscape:connector-curvature="0" /><g
     transform="matrix(1,0,0,1,-3,0)"
     id="g4355"><path
       style="color:#000000;font-style:normal;font-variant:normal;font-weight:normal;font-stretch:normal;font-size:medium;line-height:normal;font-family:sans-serif;text-indent:0;text-align:start;text-decoration:none;text-decoration-line:none;text-decoration-style:solid;text-decoration-color:#000000;letter-spacing:normal;word-spacing:normal;text-transform:none;direction:ltr;block-progression:tb;writing-mode:lr-tb;baseline-shift:baseline;text-anchor:start;white-space:normal;clip-rule:nonzero;display:inline;overflow:visible;visibility:visible;opacity:1;isolation:auto;mix-blend-mode:normal;color-interpolation:sRGB;color-interpolation-filters:linearRGB;solid-color:#000000;solid-opacity:1;fill:#031204;fill-opacity:1;fill-rule:nonzero;stroke:none;stroke-width:2px;stroke-linecap:butt;stroke-linejoin:miter;stroke-miterlimit:1.41420996;stroke-dasharray:none;stroke-dashoffset:0;stroke-opacity:1;color-rendering:auto;image-rendering:auto;shape-rendering:auto;text-rendering:auto;enable-background:accumulate"
       d="m 16,4 a 1.0001,1.0001 0 1 0 0,2 l 0,1 a 1.0001,1.0001 0 1 0 2,0 L 18,5 A 1.0001,1.0001 0 0 0 17,4 l -1,0 z"
       id="path4357"
       inkscape:connector-curvature="0" /></g></svg>