<?xml version="1.0" encoding="UTF-8" standalone="no"?>
<svg
   xmlns:dc="http://purl.org/dc/elements/1.1/"
   xmlns:cc="http://creativecommons.org/ns#"
   xmlns:rdf="http://www.w3.org/1999/02/22-rdf-syntax-ns#"
   xmlns:svg="http://www.w3.org/2000/svg"
   xmlns="http://www.w3.org/2000/svg"
   xmlns:sodipodi="http://sodipodi.sourceforge.net/DTD/sodipodi-0.dtd"
   xmlns:inkscape="http://www.inkscape.org/namespaces/inkscape"
   width="100%"
   height="100%"
   viewBox="0 0 24 24"
   version="1.1"
   xml:space="preserve"
   style="fill-rule:evenodd;clip-rule:evenodd;stroke-linecap:round;stroke-linejoin:round;stroke-miterlimit:1.41421;"
   id="svg10445"
   inkscape:version="0.91 r13725"
   sodipodi:docname="calendar.svg"><metadata
     id="metadata10481"><rdf:RDF><cc:Work
         rdf:about=""><dc:format>image/svg+xml</dc:format><dc:type
           rdf:resource="http://purl.org/dc/dcmitype/StillImage" /></cc:Work></rdf:RDF></metadata><defs
     id="defs10479" /><sodipodi:namedview
     pagecolor="#ffffff"
     bordercolor="#666666"
     borderopacity="1"
     objecttolerance="10"
     gridtolerance="10"
     guidetolerance="10"
     inkscape:pageopacity="0"
     inkscape:pageshadow="2"
     inkscape:window-width="640"
     inkscape:window-height="480"
     id="namedview10477"
     showgrid="false"
     inkscape:zoom="19"
     inkscape:cx="12"
     inkscape:cy="12"
     inkscape:current-layer="svg10445" /><g
     transform="matrix(1.05,0,0,0.85,-1.1,1.3)"
     id="g10447"><path
       style="color:#000000;font-style:normal;font-variant:normal;font-weight:normal;font-stretch:normal;font-size:medium;line-height:normal;font-family:sans-serif;text-indent:0;text-align:start;text-decoration:none;text-decoration-line:none;text-decoration-style:solid;text-decoration-color:#000000;letter-spacing:normal;word-spacing:normal;text-transform:none;direction:ltr;block-progression:tb;writing-mode:lr-tb;baseline-shift:baseline;text-anchor:start;white-space:normal;clip-rule:nonzero;display:inline;overflow:visible;visibility:visible;opacity:1;isolation:auto;mix-blend-mode:normal;color-interpolation:sRGB;color-interpolation-filters:linearRGB;solid-color:#000000;solid-opacity:1;fill:#000000;fill-opacity:1;fill-rule:nonzero;stroke:none;stroke-width:2.08999991px;stroke-linecap:butt;stroke-linejoin:miter;stroke-miterlimit:1.41420996;stroke-dasharray:none;stroke-dashoffset:0;stroke-opacity:1;color-rendering:auto;image-rendering:auto;shape-rendering:auto;text-rendering:auto;enable-background:accumulate"
       d="M 1.9980469 3.1113281 A 1.0973597 0.88833889 0 0 0 0.90234375 4 L 0.90234375 20 A 1.0973597 0.88833889 0 0 0 1.9980469 20.888672 L 22 20.888672 A 1.0973597 0.88833889 0 0 0 23.097656 20 L 23.097656 4 A 1.0973597 0.88833889 0 0 0 22 3.1113281 L 1.9980469 3.1113281 z M 3.0957031 4.8867188 L 9.3359375 4.8867188 L 9.3359375 7.3359375 L 3.0957031 7.3359375 L 3.0957031 4.8867188 z M 10.664062 4.8867188 L 13.335938 4.8867188 L 13.335938 7.3359375 L 10.664062 7.3359375 L 10.664062 4.8867188 z M 14.664062 4.8867188 L 17.335938 4.8867188 L 17.335938 7.3359375 L 14.664062 7.3359375 L 14.664062 4.8867188 z M 18.664062 4.8867188 L 20.902344 4.8867188 L 20.902344 7.3359375 L 18.664062 7.3359375 L 18.664062 4.8867188 z M 3.0957031 8.6640625 L 5.3359375 8.6640625 L 5.3359375 11.335938 L 3.0957031 11.335938 L 3.0957031 8.6640625 z M 6.6640625 8.6640625 L 9.3359375 8.6640625 L 9.3359375 11.335938 L 6.6640625 11.335938 L 6.6640625 8.6640625 z M 10.664062 8.6640625 L 13.335938 8.6640625 L 13.335938 11.335938 L 10.664062 11.335938 L 10.664062 8.6640625 z M 14.664062 8.6640625 L 17.335938 8.6640625 L 17.335938 11.335938 L 14.664062 11.335938 L 14.664062 8.6640625 z M 18.664062 8.6640625 L 20.902344 8.6640625 L 20.902344 11.335938 L 18.664062 11.335938 L 18.664062 8.6640625 z M 3.0957031 12.664062 L 5.3359375 12.664062 L 5.3359375 15.335938 L 3.0957031 15.335938 L 3.0957031 12.664062 z M 6.6640625 12.664062 L 9.3359375 12.664062 L 9.3359375 15.335938 L 6.6640625 15.335938 L 6.6640625 12.664062 z M 10.664062 12.664062 L 13.335938 12.664062 L 13.335938 15.335938 L 10.664062 15.335938 L 10.664062 12.664062 z M 14.664062 12.664062 L 17.335938 12.664062 L 17.335938 15.335938 L 14.664062 15.335938 L 14.664062 12.664062 z M 18.664062 12.664062 L 20.902344 12.664062 L 20.902344 15.335938 L 18.664062 15.335938 L 18.664062 12.664062 z M 3.0957031 16.664062 L 5.3359375 16.664062 L 5.3359375 19.111328 L 3.0957031 19.111328 L 3.0957031 16.664062 z M 6.6640625 16.664062 L 9.3359375 16.664062 L 9.3359375 19.111328 L 6.6640625 19.111328 L 6.6640625 16.664062 z M 10.664062 16.664062 L 20.902344 16.664062 L 20.902344 19.111328 L 10.664062 19.111328 L 10.664062 16.664062 z "
       transform="matrix(0.95238095,0,0,1.1764706,1.047619,-1.5294118)"
       id="rect10449" /></g><g
     transform="matrix(1,0,0,1,-3,-1)"
     id="g10451" /><g
     transform="matrix(1,0,0,1,1,-1)"
     id="g10455" /><g
     transform="matrix(1,0,0,1,5,-1)"
     id="g10459" /><g
     transform="matrix(1,0,0,1,9,-1)"
     id="g10463" /><g
     transform="matrix(1,0,0,1,0,-4)"
     id="g10469" /><g
     transform="matrix(1,0,0,1,0,-8)"
     id="g10473" /></svg>