<?xml version="1.0" encoding="UTF-8" standalone="no"?>
<svg
   xmlns:dc="http://purl.org/dc/elements/1.1/"
   xmlns:cc="http://creativecommons.org/ns#"
   xmlns:rdf="http://www.w3.org/1999/02/22-rdf-syntax-ns#"
   xmlns:svg="http://www.w3.org/2000/svg"
   xmlns="http://www.w3.org/2000/svg"
   xmlns:sodipodi="http://sodipodi.sourceforge.net/DTD/sodipodi-0.dtd"
   xmlns:inkscape="http://www.inkscape.org/namespaces/inkscape"
   width="100%"
   height="100%"
   viewBox="0 0 24 24"
   version="1.1"
   xml:space="preserve"
   style="fill-rule:evenodd;clip-rule:evenodd;stroke-linecap:round;stroke-linejoin:round;stroke-miterlimit:1.41421;"
   id="svg5424"
   inkscape:version="0.91 r13725"
   sodipodi:docname="cloud-bad.svg"><metadata
     id="metadata5442"><rdf:RDF><cc:Work
         rdf:about=""><dc:format>image/svg+xml</dc:format><dc:type
           rdf:resource="http://purl.org/dc/dcmitype/StillImage" /></cc:Work></rdf:RDF></metadata><defs
     id="defs5440" /><sodipodi:namedview
     pagecolor="#ffffff"
     bordercolor="#666666"
     borderopacity="1"
     objecttolerance="10"
     gridtolerance="10"
     guidetolerance="10"
     inkscape:pageopacity="0"
     inkscape:pageshadow="2"
     inkscape:window-width="640"
     inkscape:window-height="480"
     id="namedview5438"
     showgrid="false"
     inkscape:zoom="19"
     inkscape:cx="12"
     inkscape:cy="12"
     inkscape:current-layer="svg5424" /><g
     transform="matrix(1,0,0,1,-1,-3)"
     id="g5426"><path
       style="color:#000000;font-style:normal;font-variant:normal;font-weight:normal;font-stretch:normal;font-size:medium;line-height:normal;font-family:sans-serif;text-indent:0;text-align:start;text-decoration:none;text-decoration-line:none;text-decoration-style:solid;text-decoration-color:#000000;letter-spacing:normal;word-spacing:normal;text-transform:none;direction:ltr;block-progression:tb;writing-mode:lr-tb;baseline-shift:baseline;text-anchor:start;white-space:normal;clip-rule:nonzero;display:inline;overflow:visible;visibility:visible;opacity:1;isolation:auto;mix-blend-mode:normal;color-interpolation:sRGB;color-interpolation-filters:linearRGB;solid-color:#000000;solid-opacity:1;fill:#031204;fill-opacity:1;fill-rule:nonzero;stroke:none;stroke-width:2px;stroke-linecap:butt;stroke-linejoin:miter;stroke-miterlimit:1.41420996;stroke-dasharray:none;stroke-dashoffset:0;stroke-opacity:1;color-rendering:auto;image-rendering:auto;shape-rendering:auto;text-rendering:auto;enable-background:accumulate"
       d="M 14,7 C 11.093216,7 8.6117118,8.6970733 7.3691406,11.128906 5.8097059,11.428631 4.6088737,12.717924 4.53125,14.341797 3.062171,14.936168 2,16.328848 2,18 c 0,2.197063 1.8029372,4 4,4 l 13,0 c 2.749063,0 5,-2.250937 5,-5 0,-1.920492 -1.179264,-3.480406 -2.78125,-4.316406 C 20.396011,9.430835 17.495559,7 14,7 Z m 0,2 c 2.681538,0 4.903139,1.910879 5.398438,4.435547 a 1.0001,1.0001 0 0 0 0.634765,0.746094 C 21.176564,14.601895 22,15.699519 22,17 c 0,1.666937 -1.333063,3 -3,3 L 6,20 C 4.8850628,20 4,19.114937 4,18 4,16.987137 4.7407253,16.163914 5.703125,16.021484 A 1.0001,1.0001 0 0 0 6.5351562,14.822266 C 6.5124063,14.716509 6.5,14.61014 6.5,14.5 6.5,13.662455 7.1620621,13.000608 8,13 A 1.0001,1.0001 0 0 0 8.921875,12.384766 C 9.7501083,10.400386 11.705599,9 14,9 Z"
       id="path5428"
       inkscape:connector-curvature="0" /></g><g
     transform="matrix(0.35,-0.35,0.35,0.35,4.6,12)"
     id="g5430"><path
       style="color:#000000;font-style:normal;font-variant:normal;font-weight:normal;font-stretch:normal;font-size:medium;line-height:normal;font-family:sans-serif;text-indent:0;text-align:start;text-decoration:none;text-decoration-line:none;text-decoration-style:solid;text-decoration-color:#000000;letter-spacing:normal;word-spacing:normal;text-transform:none;direction:ltr;block-progression:tb;writing-mode:lr-tb;baseline-shift:baseline;text-anchor:start;white-space:normal;clip-rule:nonzero;display:inline;overflow:visible;visibility:visible;opacity:1;isolation:auto;mix-blend-mode:normal;color-interpolation:sRGB;color-interpolation-filters:linearRGB;solid-color:#000000;solid-opacity:1;fill:#000000;fill-opacity:1;fill-rule:nonzero;stroke:none;stroke-width:4.03999996px;stroke-linecap:butt;stroke-linejoin:miter;stroke-miterlimit:1.41420996;stroke-dasharray:none;stroke-dashoffset:0;stroke-opacity:1;color-rendering:auto;image-rendering:auto;shape-rendering:auto;text-rendering:auto;enable-background:accumulate"
       d="M 16 7.9824219 A 0.99994897 0.99994897 0 0 0 15.292969 8.2929688 L 13 10.585938 L 10.707031 8.2929688 A 0.99994897 0.99994897 0 0 0 9.2714844 8.2949219 A 0.99994897 0.99994897 0 0 0 9.2929688 9.7070312 L 11.585938 12 L 9.2929688 14.292969 A 0.99994897 0.99994897 0 1 0 10.707031 15.707031 L 13 13.414062 L 15.292969 15.707031 A 0.99994897 0.99994897 0 1 0 16.707031 14.292969 L 14.414062 12 L 16.707031 9.7070312 A 0.99994897 0.99994897 0 0 0 16 7.9824219 z "
       transform="matrix(1.4285714,1.4285714,-1.4285714,1.4285714,10.571429,-23.714286)"
       id="path5432" /></g><g
     transform="matrix(0.35,-0.35,0.35,0.35,4.6,12)"
     id="g5434" /></svg>