<?xml version="1.0" encoding="UTF-8" standalone="no"?>
<svg
   xmlns:dc="http://purl.org/dc/elements/1.1/"
   xmlns:cc="http://creativecommons.org/ns#"
   xmlns:rdf="http://www.w3.org/1999/02/22-rdf-syntax-ns#"
   xmlns:svg="http://www.w3.org/2000/svg"
   xmlns="http://www.w3.org/2000/svg"
   xmlns:sodipodi="http://sodipodi.sourceforge.net/DTD/sodipodi-0.dtd"
   xmlns:inkscape="http://www.inkscape.org/namespaces/inkscape"
   width="100%"
   height="100%"
   viewBox="0 0 24 24"
   version="1.1"
   xml:space="preserve"
   style="fill-rule:evenodd;clip-rule:evenodd;stroke-linecap:round;stroke-linejoin:round;stroke-miterlimit:1.41421;"
   id="svg3396"
   inkscape:version="0.91 r13725"
   sodipodi:docname="coffee.svg"><metadata
     id="metadata3418"><rdf:RDF><cc:Work
         rdf:about=""><dc:format>image/svg+xml</dc:format><dc:type
           rdf:resource="http://purl.org/dc/dcmitype/StillImage" /></cc:Work></rdf:RDF></metadata><defs
     id="defs3416" /><sodipodi:namedview
     pagecolor="#ffffff"
     bordercolor="#666666"
     borderopacity="1"
     objecttolerance="10"
     gridtolerance="10"
     guidetolerance="10"
     inkscape:pageopacity="0"
     inkscape:pageshadow="2"
     inkscape:window-width="640"
     inkscape:window-height="480"
     id="namedview3414"
     showgrid="false"
     inkscape:zoom="19"
     inkscape:cx="12"
     inkscape:cy="12"
     inkscape:current-layer="svg3396" /><g
     transform="matrix(1,0,0,1,-1,2)"
     id="g3398"><path
       style="color:#000000;font-style:normal;font-variant:normal;font-weight:normal;font-stretch:normal;font-size:medium;line-height:normal;font-family:sans-serif;text-indent:0;text-align:start;text-decoration:none;text-decoration-line:none;text-decoration-style:solid;text-decoration-color:#000000;letter-spacing:normal;word-spacing:normal;text-transform:none;direction:ltr;block-progression:tb;writing-mode:lr-tb;baseline-shift:baseline;text-anchor:start;white-space:normal;clip-rule:nonzero;display:inline;overflow:visible;visibility:visible;opacity:1;isolation:auto;mix-blend-mode:normal;color-interpolation:sRGB;color-interpolation-filters:linearRGB;solid-color:#000000;solid-opacity:1;fill:#031204;fill-opacity:1;fill-rule:nonzero;stroke:none;stroke-width:2px;stroke-linecap:butt;stroke-linejoin:miter;stroke-miterlimit:1.41420996;stroke-dasharray:none;stroke-dashoffset:0;stroke-opacity:1;color-rendering:auto;image-rendering:auto;shape-rendering:auto;text-rendering:auto;enable-background:accumulate"
       d="M 15.970703,-0.00976563 A 1.0001,1.0001 0 0 0 15.289062,1.703125 c -0.01254,0.035793 -0.04857,0.14636 -0.160156,0.3613281 -0.127874,0.2463558 -0.329082,0.5663038 -0.40039,1.0644531 -0.07131,0.4981494 0.14347,1.1827361 0.585937,1.5996094 A 1.0001,1.0001 0 0 0 16.746094,3.3320312 C 16.765025,3.2839453 16.796666,3.1917314 16.904297,2.984375 17.036798,2.7291058 17.239061,2.3917596 17.298828,1.8828125 17.358596,1.3738654 17.137646,0.70818713 16.695312,0.28125 a 1.0001,1.0001 0 0 0 -0.724609,-0.29101563 z"
       id="path3400"
       inkscape:connector-curvature="0" /></g><g
     transform="matrix(1,0,0,1,-4,2)"
     id="g3402"><path
       style="color:#000000;font-style:normal;font-variant:normal;font-weight:normal;font-stretch:normal;font-size:medium;line-height:normal;font-family:sans-serif;text-indent:0;text-align:start;text-decoration:none;text-decoration-line:none;text-decoration-style:solid;text-decoration-color:#000000;letter-spacing:normal;word-spacing:normal;text-transform:none;direction:ltr;block-progression:tb;writing-mode:lr-tb;baseline-shift:baseline;text-anchor:start;white-space:normal;clip-rule:nonzero;display:inline;overflow:visible;visibility:visible;opacity:1;isolation:auto;mix-blend-mode:normal;color-interpolation:sRGB;color-interpolation-filters:linearRGB;solid-color:#000000;solid-opacity:1;fill:#031204;fill-opacity:1;fill-rule:nonzero;stroke:none;stroke-width:2px;stroke-linecap:butt;stroke-linejoin:miter;stroke-miterlimit:1.41420996;stroke-dasharray:none;stroke-dashoffset:0;stroke-opacity:1;color-rendering:auto;image-rendering:auto;shape-rendering:auto;text-rendering:auto;enable-background:accumulate"
       d="M 15.970703,-0.00976563 A 1.0001,1.0001 0 0 0 15.289062,1.703125 c -0.01254,0.035793 -0.04857,0.14636 -0.160156,0.3613281 -0.127874,0.2463558 -0.329082,0.5663038 -0.40039,1.0644531 -0.07131,0.4981494 0.14347,1.1827361 0.585937,1.5996094 A 1.0001,1.0001 0 0 0 16.746094,3.3320312 C 16.765025,3.2839453 16.796666,3.1917314 16.904297,2.984375 17.036798,2.7291058 17.239061,2.3917596 17.298828,1.8828125 17.358596,1.3738654 17.137646,0.70818713 16.695312,0.28125 a 1.0001,1.0001 0 0 0 -0.724609,-0.29101563 z"
       id="path3404"
       inkscape:connector-curvature="0" /></g><g
     transform="matrix(1,0,0,1,-1,0)"
     id="g3406"><path
       style="color:#000000;font-style:normal;font-variant:normal;font-weight:normal;font-stretch:normal;font-size:medium;line-height:normal;font-family:sans-serif;text-indent:0;text-align:start;text-decoration:none;text-decoration-line:none;text-decoration-style:solid;text-decoration-color:#000000;letter-spacing:normal;word-spacing:normal;text-transform:none;direction:ltr;block-progression:tb;writing-mode:lr-tb;baseline-shift:baseline;text-anchor:start;white-space:normal;clip-rule:nonzero;display:inline;overflow:visible;visibility:visible;opacity:1;isolation:auto;mix-blend-mode:normal;color-interpolation:sRGB;color-interpolation-filters:linearRGB;solid-color:#000000;solid-opacity:1;fill:#031204;fill-opacity:1;fill-rule:nonzero;stroke:none;stroke-width:2px;stroke-linecap:square;stroke-linejoin:miter;stroke-miterlimit:1.41420996;stroke-dasharray:none;stroke-dashoffset:0;stroke-opacity:1;color-rendering:auto;image-rendering:auto;shape-rendering:auto;text-rendering:auto;enable-background:accumulate"
       d="M 8 8 A 1.0001 1.0001 0 0 0 7 9 L 7 10 L 5 10 A 1.0001 1.0001 0 0 0 4.1289062 10.507812 C 2.6906472 13.05806 2.6943743 15.868951 4.1230469 18.480469 A 1.0001 1.0001 0 0 0 5 19 L 7 19 L 7 21 A 1.0001 1.0001 0 0 0 8 22 L 19 22 A 1.0001 1.0001 0 0 0 20 21 L 20 9 A 1.0001 1.0001 0 0 0 19 8 L 8 8 z M 9 10 L 18 10 L 18 20 L 9 20 L 9 19 L 9 17 L 9 12 L 9 10 z M 5.7246094 12 L 7 12 L 7 17 L 5.7285156 17 C 4.9284412 15.271297 4.9299945 13.673207 5.7246094 12 z "
       transform="translate(1,0)"
       id="path3408" /></g><g
     transform="matrix(1,0,0,1,0,1)"
     id="g3410" /></svg>