<?xml version="1.0" encoding="UTF-8" standalone="no"?>
<svg
   xmlns:dc="http://purl.org/dc/elements/1.1/"
   xmlns:cc="http://creativecommons.org/ns#"
   xmlns:rdf="http://www.w3.org/1999/02/22-rdf-syntax-ns#"
   xmlns:svg="http://www.w3.org/2000/svg"
   xmlns="http://www.w3.org/2000/svg"
   xmlns:sodipodi="http://sodipodi.sourceforge.net/DTD/sodipodi-0.dtd"
   xmlns:inkscape="http://www.inkscape.org/namespaces/inkscape"
   width="100%"
   height="100%"
   viewBox="0 0 24 24"
   version="1.1"
   xml:space="preserve"
   style="fill-rule:evenodd;clip-rule:evenodd;stroke-linecap:round;stroke-linejoin:round;stroke-miterlimit:1.41421;"
   id="svg3548"
   inkscape:version="0.91 r13725"
   sodipodi:docname="doctor.svg"><metadata
     id="metadata3570"><rdf:RDF><cc:Work
         rdf:about=""><dc:format>image/svg+xml</dc:format><dc:type
           rdf:resource="http://purl.org/dc/dcmitype/StillImage" /></cc:Work></rdf:RDF></metadata><defs
     id="defs3568" /><sodipodi:namedview
     pagecolor="#ffffff"
     bordercolor="#666666"
     borderopacity="1"
     objecttolerance="10"
     gridtolerance="10"
     guidetolerance="10"
     inkscape:pageopacity="0"
     inkscape:pageshadow="2"
     inkscape:window-width="640"
     inkscape:window-height="480"
     id="namedview3566"
     showgrid="false"
     inkscape:zoom="19"
     inkscape:cx="12"
     inkscape:cy="12"
     inkscape:current-layer="svg3548" /><g
     transform="matrix(1,2.72144e-17,2.72144e-17,0.888889,-7.99361e-15,1.22222)"
     id="g3550"><path
       style="color:#000000;font-style:normal;font-variant:normal;font-weight:normal;font-stretch:normal;font-size:medium;line-height:normal;font-family:sans-serif;text-indent:0;text-align:start;text-decoration:none;text-decoration-line:none;text-decoration-style:solid;text-decoration-color:#000000;letter-spacing:normal;word-spacing:normal;text-transform:none;direction:ltr;block-progression:tb;writing-mode:lr-tb;baseline-shift:baseline;text-anchor:start;white-space:normal;clip-rule:nonzero;display:inline;overflow:visible;visibility:visible;opacity:1;isolation:auto;mix-blend-mode:normal;color-interpolation:sRGB;color-interpolation-filters:linearRGB;solid-color:#000000;solid-opacity:1;fill:#000000;fill-opacity:1;fill-rule:nonzero;stroke:none;stroke-width:2.1099999px;stroke-linecap:butt;stroke-linejoin:miter;stroke-miterlimit:1.41420996;stroke-dasharray:none;stroke-dashoffset:0;stroke-opacity:1;color-rendering:auto;image-rendering:auto;shape-rendering:auto;text-rendering:auto;enable-background:accumulate"
       d="M 12 2.0625 C 9.1494262 2.0625 6.9453125 4.3403605 6.9453125 7 C 6.9453125 8.5106537 7.6718628 9.8819521 8.8085938 10.798828 C 6.5556039 11.964197 4.9980469 14.299158 4.9980469 17 L 4.9980469 20.998047 A 1.0013501 1.0013501 0 0 0 6 22.001953 L 18 22.001953 A 1.0013501 1.0013501 0 0 0 19.001953 20.998047 L 19.001953 17 C 19.001953 14.299004 17.450825 11.959047 15.197266 10.792969 C 16.330248 9.8760514 17.054688 8.5078036 17.054688 7 C 17.054688 4.3403605 14.850574 2.0625 12 2.0625 z M 12 3.9375 C 13.567704 3.9375 14.945313 5.2413609 14.945312 7 C 14.945312 8.7586391 13.567704 10.0625 12 10.0625 C 10.432296 10.0625 9.0546875 8.7586391 9.0546875 7 C 9.0546875 5.2413609 10.432296 3.9375 12 3.9375 z M 12 12.001953 C 12.308433 12.001953 12.609415 12.02907 12.900391 12.082031 C 15.227991 12.505855 16.998047 14.538743 16.998047 17 L 16.998047 19.998047 L 7.0019531 19.998047 L 7.0019531 17 C 7.0019531 14.230763 9.2307632 12.001953 12 12.001953 z "
       transform="matrix(1,0,0,1.1249999,0,-1.3749973)"
       id="ellipse3552" /></g><g
     transform="matrix(0.75,0,0,0.75,3,8)"
     id="g3554" /><g
     transform="matrix(1,0,0,1,-2,0)"
     id="g3558"><path
       style="color:#000000;font-style:normal;font-variant:normal;font-weight:normal;font-stretch:normal;font-size:medium;line-height:normal;font-family:sans-serif;text-indent:0;text-align:start;text-decoration:none;text-decoration-line:none;text-decoration-style:solid;text-decoration-color:#000000;letter-spacing:normal;word-spacing:normal;text-transform:none;direction:ltr;block-progression:tb;writing-mode:lr-tb;baseline-shift:baseline;text-anchor:start;white-space:normal;clip-rule:nonzero;display:inline;overflow:visible;visibility:visible;opacity:1;isolation:auto;mix-blend-mode:normal;color-interpolation:sRGB;color-interpolation-filters:linearRGB;solid-color:#000000;solid-opacity:1;fill:#000000;fill-opacity:1;fill-rule:nonzero;stroke:none;stroke-width:2px;stroke-linecap:butt;stroke-linejoin:miter;stroke-miterlimit:1.41420996;stroke-dasharray:none;stroke-dashoffset:0;stroke-opacity:1;color-rendering:auto;image-rendering:auto;shape-rendering:auto;text-rendering:auto;enable-background:accumulate"
       d="M 11.984375 12.986328 A 1.0001 1.0001 0 0 0 11 14 L 11 15 L 10 15 A 1.0001 1.0001 0 1 0 10 17 L 11 17 L 11 18 A 1.0001 1.0001 0 1 0 13 18 L 13 17 L 14 17 A 1.0001 1.0001 0 1 0 14 15 L 13 15 L 13 14 A 1.0001 1.0001 0 0 0 11.984375 12.986328 z "
       transform="translate(2,0)"
       id="path3560" /></g><g
     transform="matrix(1,0,0,1,-2,0)"
     id="g3562" /></svg>