<?xml version="1.0" encoding="UTF-8" standalone="no"?>
<svg
   xmlns:dc="http://purl.org/dc/elements/1.1/"
   xmlns:cc="http://creativecommons.org/ns#"
   xmlns:rdf="http://www.w3.org/1999/02/22-rdf-syntax-ns#"
   xmlns:svg="http://www.w3.org/2000/svg"
   xmlns="http://www.w3.org/2000/svg"
   xmlns:sodipodi="http://sodipodi.sourceforge.net/DTD/sodipodi-0.dtd"
   xmlns:inkscape="http://www.inkscape.org/namespaces/inkscape"
   width="100%"
   height="100%"
   viewBox="0 0 24 24"
   version="1.1"
   xml:space="preserve"
   style="fill-rule:evenodd;clip-rule:evenodd;stroke-linecap:round;stroke-linejoin:round;stroke-miterlimit:1.41421;"
   id="svg4363"
   inkscape:version="0.91 r13725"
   sodipodi:docname="family.svg"><metadata
     id="metadata4391"><rdf:RDF><cc:Work
         rdf:about=""><dc:format>image/svg+xml</dc:format><dc:type
           rdf:resource="http://purl.org/dc/dcmitype/StillImage" /></cc:Work></rdf:RDF></metadata><defs
     id="defs4389" /><sodipodi:namedview
     pagecolor="#ffffff"
     bordercolor="#666666"
     borderopacity="1"
     objecttolerance="10"
     gridtolerance="10"
     guidetolerance="10"
     inkscape:pageopacity="0"
     inkscape:pageshadow="2"
     inkscape:window-width="640"
     inkscape:window-height="480"
     id="namedview4387"
     showgrid="false"
     inkscape:zoom="19"
     inkscape:cx="12"
     inkscape:cy="12"
     inkscape:current-layer="svg4363" /><g
     transform="matrix(0.75,2.04108e-17,2.04108e-17,0.666667,-2,0.666667)"
     id="g4365"><path
       style="color:#000000;font-style:normal;font-variant:normal;font-weight:normal;font-stretch:normal;font-size:medium;line-height:normal;font-family:sans-serif;text-indent:0;text-align:start;text-decoration:none;text-decoration-line:none;text-decoration-style:solid;text-decoration-color:#000000;letter-spacing:normal;word-spacing:normal;text-transform:none;direction:ltr;block-progression:tb;writing-mode:lr-tb;baseline-shift:baseline;text-anchor:start;white-space:normal;clip-rule:nonzero;display:inline;overflow:visible;visibility:visible;opacity:1;isolation:auto;mix-blend-mode:normal;color-interpolation:sRGB;color-interpolation-filters:linearRGB;solid-color:#000000;solid-opacity:1;fill:#000000;fill-opacity:1;fill-rule:nonzero;stroke:none;stroke-width:2.81999993px;stroke-linecap:butt;stroke-linejoin:miter;stroke-miterlimit:1.41420996;stroke-dasharray:none;stroke-dashoffset:0;stroke-opacity:1;color-rendering:auto;image-rendering:auto;shape-rendering:auto;text-rendering:auto;enable-background:accumulate"
       d="M 7 1.0605469 C 4.7001913 1.0605469 2.9433593 2.8915765 2.9433594 5 C 2.9433594 6.0451526 3.3760246 7.0204841 4.0917969 7.7402344 C 2.2586908 8.7299029 1 10.618199 1 12.800781 L 1 16 A 1.0001 1.0001 0 0 0 2 17 L 6.2851562 17 C 6.0897931 17.567435 5.9804688 18.172545 5.9804688 18.800781 L 5.9804688 22 A 1.0188519 0.97809786 0 0 0 7 22.978516 L 17 22.978516 A 1.0188519 0.97809786 0 0 0 18.019531 22 L 18.019531 18.800781 C 18.019531 18.17057 17.901797 17.567965 17.705078 17 L 22 17 A 1.0001 1.0001 0 0 0 23 16 L 23 12.800781 C 23 10.618199 21.741309 8.7299029 19.908203 7.7402344 C 20.623716 7.0206487 21.056641 6.0451385 21.056641 5 C 21.056641 2.8915768 19.299809 1.0605469 17 1.0605469 C 14.700191 1.0605469 12.943359 2.8915768 12.943359 5 C 12.943359 5.9656997 13.32462 6.8623164 13.945312 7.5625 C 13.370691 7.2536977 12.716923 7.0605469 12 7.0605469 C 11.282909 7.0605469 10.62953 7.2534768 10.054688 7.5625 C 10.675582 6.8625282 11.056641 5.9657922 11.056641 5 C 11.056641 2.8915765 9.2998086 1.0605469 7 1.0605469 z M 7 2.9394531 C 8.0138995 2.9394531 8.9433594 3.7947129 8.9433594 5 C 8.9433594 6.0695371 8.2110323 6.8602376 7.3378906 7.0253906 C 7.2245377 7.0191841 7.1148042 7 7 7 C 6.8921181 7 6.790214 7.0217042 6.6835938 7.0273438 C 5.801146 6.8710907 5.0566407 6.0781569 5.0566406 5 C 5.0566406 3.7947129 5.9861005 2.9394532 7 2.9394531 z M 17 2.9394531 C 18.0139 2.9394531 18.943359 3.7947129 18.943359 5 C 18.943359 6.0781569 18.199019 6.8709813 17.316406 7.0273438 C 17.209786 7.0217046 17.107882 7 17 7 C 16.885196 7 16.775462 7.0191841 16.662109 7.0253906 C 15.788795 6.8601224 15.056641 6.0695371 15.056641 5 C 15.056641 3.7947129 15.986101 2.9394532 17 2.9394531 z M 12 8.9394531 C 13.013899 8.9394531 13.943359 9.7947129 13.943359 11 C 13.943359 11.622522 13.690374 12.144043 13.310547 12.507812 C 12.960356 12.811689 12.506492 13 12 13 C 11.462741 13 10.982194 12.790842 10.625 12.453125 C 10.280879 12.090549 10.056641 11.588053 10.056641 11 C 10.056641 10.397356 10.289579 9.8818914 10.648438 9.5175781 C 11.007293 9.1532648 11.49305 8.9394532 12 8.9394531 z M 7 9 C 7.4901491 9 7.8811435 9.2351127 8.3085938 9.3945312 C 8.0784225 9.8908757 7.9433594 10.433555 7.9433594 11 C 7.9433594 12.047928 8.3823396 13.021972 9.1015625 13.742188 C 8.4879507 14.068532 7.9422676 14.497126 7.4824219 15 L 3 15 L 3 12.800781 C 3 10.946843 4.3938125 9.3906885 6.2734375 9.0625 C 6.5080565 9.021381 6.751632 9 7 9 z M 17 9 C 17.248368 9 17.491943 9.021381 17.726562 9.0625 C 19.606187 9.3906885 21 10.946843 21 12.800781 L 21 15 L 16.501953 15 C 16.040185 14.499288 15.498085 14.067007 14.882812 13.742188 C 14.929435 13.693213 14.965555 13.635186 15.009766 13.583984 C 15.653824 12.884703 16.056641 11.983407 16.056641 11 C 16.056641 10.432223 15.912594 9.8946263 15.677734 9.4003906 C 16.110693 9.2409812 16.5045 9 17 9 z M 12 15 C 12.248368 15 12.491943 15.02138 12.726562 15.0625 C 13.249417 15.153607 13.734903 15.34197 14.164062 15.605469 C 14.358281 15.724716 14.538213 15.863692 14.707031 16.011719 C 14.757943 16.057289 14.805148 16.106237 14.853516 16.154297 C 14.956497 16.254545 15.051884 16.360466 15.142578 16.470703 C 15.661803 17.115756 15.980469 17.9186 15.980469 18.800781 L 15.980469 21.021484 L 8.0195312 21.021484 L 8.0195312 18.800781 C 8.0195312 17.90299 8.3502921 17.089781 8.8847656 16.439453 C 9.4707787 15.742602 10.304259 15.231378 11.273438 15.0625 C 11.508053 15.02138 11.751632 15 12 15 z "
       transform="matrix(1.3333333,0,0,1.4999993,2.6666667,-1)"
       id="ellipse4367" /></g><g
     transform="matrix(0.75,2.04108e-17,2.04108e-17,0.666667,8,0.666667)"
     id="g4369" /><g
     transform="matrix(0.625,0,0,0.6,4.5,11.6)"
     id="g4373" /><g
     transform="matrix(0.75,2.04108e-17,2.04108e-17,0.666667,3,6.66667)"
     id="g4377" /><g
     transform="matrix(-1,0,0,1,24,0)"
     id="g4383" /></svg>