<?xml version="1.0" encoding="UTF-8" standalone="no"?>
<svg
   xmlns:dc="http://purl.org/dc/elements/1.1/"
   xmlns:cc="http://creativecommons.org/ns#"
   xmlns:rdf="http://www.w3.org/1999/02/22-rdf-syntax-ns#"
   xmlns:svg="http://www.w3.org/2000/svg"
   xmlns="http://www.w3.org/2000/svg"
   xmlns:sodipodi="http://sodipodi.sourceforge.net/DTD/sodipodi-0.dtd"
   xmlns:inkscape="http://www.inkscape.org/namespaces/inkscape"
   width="100%"
   height="100%"
   viewBox="0 0 24 24"
   version="1.1"
   xml:space="preserve"
   style="fill-rule:evenodd;clip-rule:evenodd;stroke-linecap:round;stroke-linejoin:round;stroke-miterlimit:1.41421;"
   id="svg4459"
   inkscape:version="0.91 r13725"
   sodipodi:docname="fax.svg"><metadata
     id="metadata4471"><rdf:RDF><cc:Work
         rdf:about=""><dc:format>image/svg+xml</dc:format><dc:type
           rdf:resource="http://purl.org/dc/dcmitype/StillImage" /></cc:Work></rdf:RDF></metadata><defs
     id="defs4469" /><sodipodi:namedview
     pagecolor="#ffffff"
     bordercolor="#666666"
     borderopacity="1"
     objecttolerance="10"
     gridtolerance="10"
     guidetolerance="10"
     inkscape:pageopacity="0"
     inkscape:pageshadow="2"
     inkscape:window-width="640"
     inkscape:window-height="480"
     id="namedview4467"
     showgrid="false"
     inkscape:zoom="19"
     inkscape:cx="12"
     inkscape:cy="12"
     inkscape:current-layer="svg4459" /><g
     transform="matrix(0.9,0,0,1,1.2,-1)"
     id="g4461"><path
       style="color:#000000;font-style:normal;font-variant:normal;font-weight:normal;font-stretch:normal;font-size:medium;line-height:normal;font-family:sans-serif;text-indent:0;text-align:start;text-decoration:none;text-decoration-line:none;text-decoration-style:solid;text-decoration-color:#000000;letter-spacing:normal;word-spacing:normal;text-transform:none;direction:ltr;block-progression:tb;writing-mode:lr-tb;baseline-shift:baseline;text-anchor:start;white-space:normal;clip-rule:nonzero;display:inline;overflow:visible;visibility:visible;opacity:1;isolation:auto;mix-blend-mode:normal;color-interpolation:sRGB;color-interpolation-filters:linearRGB;solid-color:#000000;solid-opacity:1;fill:#000000;fill-opacity:1;fill-rule:nonzero;stroke:none;stroke-width:2.0999999px;stroke-linecap:butt;stroke-linejoin:miter;stroke-miterlimit:1.41420996;stroke-dasharray:none;stroke-dashoffset:0;stroke-opacity:1;color-rendering:auto;image-rendering:auto;shape-rendering:auto;text-rendering:auto;enable-background:accumulate"
       d="M 10 2 A 1.0001 1.0001 0 0 0 9.1054688 2.5527344 L 6.1054688 8.5527344 A 1.0001 1.0001 0 0 0 7 10 L 8.3828125 10 L 8.1054688 10.552734 L 7.1054688 12.552734 L 6.40625 13.949219 L 3 13.949219 A 0.9450945 1.050105 0 0 0 2.0546875 15 L 2.0546875 21 A 0.9450945 1.050105 0 0 0 3 22.050781 L 21 22.050781 A 0.9450945 1.050105 0 0 0 21.945312 21 L 21.945312 15 A 0.9450945 1.050105 0 0 0 21 13.949219 L 16.644531 13.949219 L 18.894531 9.4472656 A 1.0001 1.0001 0 0 0 18 8 L 16.617188 8 L 18.894531 3.4472656 A 1.0001 1.0001 0 0 0 18 2 L 10 2 z M 10.617188 4 L 16.382812 4 L 14.105469 8.5527344 A 1.0001 1.0001 0 0 0 15 10 L 16.382812 10 L 14.408203 13.949219 L 8.6445312 13.949219 L 8.8945312 13.447266 L 9.8945312 11.447266 L 10.894531 9.4472656 A 1.0001 1.0001 0 0 0 10 8 L 8.6171875 8 L 10.617188 4 z M 3.9453125 16.050781 L 20.054688 16.050781 L 20.054688 19.949219 L 3.9453125 19.949219 L 3.9453125 16.050781 z "
       transform="matrix(1.1111111,0,0,1,-1.3333333,1)"
       id="rect4463" /></g></svg>