<?xml version="1.0" encoding="UTF-8" standalone="no"?>
<svg
   xmlns:dc="http://purl.org/dc/elements/1.1/"
   xmlns:cc="http://creativecommons.org/ns#"
   xmlns:rdf="http://www.w3.org/1999/02/22-rdf-syntax-ns#"
   xmlns:svg="http://www.w3.org/2000/svg"
   xmlns="http://www.w3.org/2000/svg"
   xmlns:sodipodi="http://sodipodi.sourceforge.net/DTD/sodipodi-0.dtd"
   xmlns:inkscape="http://www.inkscape.org/namespaces/inkscape"
   width="100%"
   height="100%"
   viewBox="0 0 24 24"
   version="1.1"
   xml:space="preserve"
   style="fill-rule:evenodd;clip-rule:evenodd;stroke-linecap:round;stroke-linejoin:round;stroke-miterlimit:1.41421;"
   id="svg4685"
   inkscape:version="0.91 r13725"
   sodipodi:docname="gear.svg"><metadata
     id="metadata4693"><rdf:RDF><cc:Work
         rdf:about=""><dc:format>image/svg+xml</dc:format><dc:type
           rdf:resource="http://purl.org/dc/dcmitype/StillImage" /></cc:Work></rdf:RDF></metadata><defs
     id="defs4691" /><sodipodi:namedview
     pagecolor="#ffffff"
     bordercolor="#666666"
     borderopacity="1"
     objecttolerance="10"
     gridtolerance="10"
     guidetolerance="10"
     inkscape:pageopacity="0"
     inkscape:pageshadow="2"
     inkscape:window-width="640"
     inkscape:window-height="480"
     id="namedview4689"
     showgrid="false"
     inkscape:zoom="19"
     inkscape:cx="12"
     inkscape:cy="12"
     inkscape:current-layer="svg4685" /><path
     style="color:#000000;font-style:normal;font-variant:normal;font-weight:normal;font-stretch:normal;font-size:medium;line-height:normal;font-family:sans-serif;text-indent:0;text-align:start;text-decoration:none;text-decoration-line:none;text-decoration-style:solid;text-decoration-color:#000000;letter-spacing:normal;word-spacing:normal;text-transform:none;direction:ltr;block-progression:tb;writing-mode:lr-tb;baseline-shift:baseline;text-anchor:start;white-space:normal;clip-rule:nonzero;display:inline;overflow:visible;visibility:visible;opacity:1;isolation:auto;mix-blend-mode:normal;color-interpolation:sRGB;color-interpolation-filters:linearRGB;solid-color:#000000;solid-opacity:1;fill:#031204;fill-opacity:1;fill-rule:nonzero;stroke:none;stroke-width:2px;stroke-linecap:butt;stroke-linejoin:miter;stroke-miterlimit:1.41420996;stroke-dasharray:none;stroke-dashoffset:0;stroke-opacity:1;color-rendering:auto;image-rendering:auto;shape-rendering:auto;text-rendering:auto;enable-background:accumulate"
     d="M 10.677734,3.0976562 A 1.0001,1.0001 0 0 0 9.8710938,3.7871094 C 9.7793694,4.0796899 9.6871951,4.3752637 9.5957031,4.6699219 9.2245558,4.7916946 8.8665445,4.9428435 8.5175781,5.1191406 8.2443938,4.975555 7.9708038,4.8306539 7.6972656,4.6875 A 1.0001,1.0001 0 0 0 6.6386719,4.7714844 C 5.9279158,5.2989284 5.2989284,5.9279158 4.7714844,6.6386719 A 1.0001,1.0001 0 0 0 4.6875,7.6972656 C 4.8306539,7.9708038 4.975555,8.2443938 5.1191406,8.5175781 4.9428435,8.8665445 4.7916946,9.2245558 4.6699219,9.5957031 4.3752637,9.6871951 4.0796899,9.7793694 3.7871094,9.8710938 A 1.0001,1.0001 0 0 0 3.0976562,10.677734 c -0.1305978,0.875906 -0.1305978,1.768626 0,2.644532 a 1.0001,1.0001 0 0 0 0.6894532,0.80664 c 0.2925805,0.09172 0.5881543,0.183899 0.8828125,0.275391 0.1217727,0.371147 0.2729216,0.729159 0.4492187,1.078125 C 4.975555,15.755606 4.8306539,16.029196 4.6875,16.302734 a 1.0001,1.0001 0 0 0 0.083984,1.058594 c 0.527444,0.710756 1.1564314,1.339744 1.8671875,1.867188 a 1.0001,1.0001 0 0 0 1.0585937,0.08398 c 0.2735382,-0.143154 0.5471282,-0.288055 0.8203125,-0.431641 0.3489664,0.176297 0.7069777,0.327446 1.078125,0.449219 0.091492,0.294658 0.1836663,0.590232 0.2753907,0.882813 a 1.0001,1.0001 0 0 0 0.8066402,0.689453 c 0.875906,0.130598 1.768626,0.130598 2.644532,0 a 1.0001,1.0001 0 0 0 0.80664,-0.689453 c 0.09172,-0.292581 0.183899,-0.588155 0.275391,-0.882813 0.371147,-0.121773 0.729159,-0.272922 1.078125,-0.449219 0.273184,0.143586 0.546774,0.288487 0.820312,0.431641 a 1.0001,1.0001 0 0 0 1.058594,-0.08398 c 0.710756,-0.527444 1.339744,-1.156432 1.867188,-1.867188 a 1.0001,1.0001 0 0 0 0.08398,-1.058594 c -0.143154,-0.273538 -0.288055,-0.547128 -0.431641,-0.820312 0.176297,-0.348966 0.327446,-0.706978 0.449219,-1.078125 0.294658,-0.09149 0.590232,-0.183666 0.882813,-0.275391 a 1.0001,1.0001 0 0 0 0.689453,-0.80664 c 0.130598,-0.875906 0.130598,-1.768626 0,-2.644532 A 1.0001,1.0001 0 0 0 20.212891,9.8710938 C 19.92031,9.7793694 19.624736,9.6871951 19.330078,9.5957031 19.208305,9.2245558 19.057156,8.8665445 18.880859,8.5175781 19.024445,8.2443938 19.169346,7.9708038 19.3125,7.6972656 A 1.0001,1.0001 0 0 0 19.228516,6.6386719 C 18.701072,5.9279158 18.072084,5.2989284 17.361328,4.7714844 A 1.0001,1.0001 0 0 0 16.302734,4.6875 C 16.029196,4.8306539 15.755606,4.975555 15.482422,5.1191406 15.133456,4.9428435 14.775444,4.7916946 14.404297,4.6699219 14.312805,4.3752637 14.220631,4.0796899 14.128906,3.7871094 a 1.0001,1.0001 0 0 0 -0.80664,-0.6894532 c -0.875906,-0.1305978 -1.768626,-0.1305978 -2.644532,0 z m 0.886719,1.9785157 c 0.290551,-0.018226 0.580543,-0.018226 0.871094,0 0.06427,0.2063267 0.128002,0.4129583 0.191406,0.6191406 a 1.0001,1.0001 0 0 0 0.722656,0.6777344 c 0.591087,0.1415879 1.155967,0.3756583 1.673829,0.6933593 a 1.0001,1.0001 0 0 0 0.990234,0.033203 c 0.191752,-0.1010712 0.384193,-0.2019414 0.576172,-0.3027344 0.217337,0.1919212 0.42136,0.3959444 0.613281,0.6132812 -0.100793,0.1919784 -0.201663,0.3844201 -0.302734,0.5761719 a 1.0001,1.0001 0 0 0 0.0332,0.9902344 c 0.317701,0.5178612 0.551771,1.0827415 0.693359,1.6738285 a 1.0001,1.0001 0 0 0 0.677735,0.722656 c 0.206182,0.0634 0.412813,0.12714 0.61914,0.191406 0.01823,0.290551 0.01823,0.580543 0,0.871094 -0.206327,0.06427 -0.412958,0.128002 -0.61914,0.191406 a 1.0001,1.0001 0 0 0 -0.677735,0.722656 c -0.141588,0.591087 -0.375658,1.155967 -0.693359,1.673829 a 1.0001,1.0001 0 0 0 -0.0332,0.990234 c 0.101071,0.191752 0.201941,0.384193 0.302734,0.576172 -0.191921,0.217337 -0.395944,0.42136 -0.613281,0.613281 -0.191979,-0.100793 -0.38442,-0.201663 -0.576172,-0.302734 a 1.0001,1.0001 0 0 0 -0.990234,0.0332 c -0.517862,0.317701 -1.082742,0.551771 -1.673829,0.693359 a 1.0001,1.0001 0 0 0 -0.722656,0.677735 c -0.0634,0.206182 -0.12714,0.412813 -0.191406,0.61914 -0.290551,0.01823 -0.580543,0.01823 -0.871094,0 -0.06427,-0.206327 -0.128002,-0.412958 -0.191406,-0.61914 A 1.0001,1.0001 0 0 0 10.650391,17.626953 C 10.059304,17.485365 9.4944237,17.251295 8.9765625,16.933594 a 1.0001,1.0001 0 0 0 -0.9902344,-0.0332 C 7.7945763,17.001462 7.6021346,17.102332 7.4101562,17.203125 7.1928194,17.011204 6.9887962,16.807181 6.796875,16.589844 6.897668,16.397865 6.9985382,16.205424 7.0996094,16.013672 A 1.0001,1.0001 0 0 0 7.0664062,15.023438 C 6.7487052,14.505576 6.5146348,13.940696 6.3730469,13.349609 A 1.0001,1.0001 0 0 0 5.6953125,12.626953 c -0.2061823,-0.0634 -0.4128139,-0.12714 -0.6191406,-0.191406 -0.018226,-0.290551 -0.018226,-0.580543 0,-0.871094 0.2063267,-0.06427 0.4129583,-0.128002 0.6191406,-0.191406 A 1.0001,1.0001 0 0 0 6.3730469,10.650391 C 6.5146348,10.059304 6.7487052,9.4944237 7.0664062,8.9765625 A 1.0001,1.0001 0 0 0 7.0996094,7.9863281 C 6.9985382,7.7945763 6.897668,7.6021346 6.796875,7.4101562 6.9887962,7.1928194 7.1928194,6.9887962 7.4101562,6.796875 7.6021346,6.897668 7.7945763,6.9985382 7.9863281,7.0996094 A 1.0001,1.0001 0 0 0 8.9765625,7.0664062 C 9.4944237,6.7487052 10.059304,6.5146348 10.650391,6.3730469 a 1.0001,1.0001 0 0 0 0.722656,-0.6777344 c 0.0634,-0.2061823 0.12714,-0.4128139 0.191406,-0.6191406 z M 12,9.03125 c -1.627938,0 -2.96875,1.340812 -2.96875,2.96875 0,1.627938 1.340812,2.96875 2.96875,2.96875 1.627938,0 2.96875,-1.340812 2.96875,-2.96875 0,-1.627938 -1.340812,-2.96875 -2.96875,-2.96875 z m 0,2 c 0.546062,0 0.96875,0.422688 0.96875,0.96875 0,0.546062 -0.422688,0.96875 -0.96875,0.96875 -0.546062,0 -0.96875,-0.422688 -0.96875,-0.96875 0,-0.546062 0.422688,-0.96875 0.96875,-0.96875 z"
     id="path4687"
     inkscape:connector-curvature="0" /></svg>