<?xml version="1.0" encoding="UTF-8" standalone="no"?>
<svg
   xmlns:dc="http://purl.org/dc/elements/1.1/"
   xmlns:cc="http://creativecommons.org/ns#"
   xmlns:rdf="http://www.w3.org/1999/02/22-rdf-syntax-ns#"
   xmlns:svg="http://www.w3.org/2000/svg"
   xmlns="http://www.w3.org/2000/svg"
   xmlns:sodipodi="http://sodipodi.sourceforge.net/DTD/sodipodi-0.dtd"
   xmlns:inkscape="http://www.inkscape.org/namespaces/inkscape"
   width="100%"
   height="100%"
   viewBox="0 0 24 24"
   version="1.1"
   xml:space="preserve"
   style="fill-rule:evenodd;clip-rule:evenodd;stroke-linecap:round;stroke-linejoin:round;stroke-miterlimit:1.41421;"
   id="svg4743"
   inkscape:version="0.91 r13725"
   sodipodi:docname="heart.svg"><metadata
     id="metadata4751"><rdf:RDF><cc:Work
         rdf:about=""><dc:format>image/svg+xml</dc:format><dc:type
           rdf:resource="http://purl.org/dc/dcmitype/StillImage" /></cc:Work></rdf:RDF></metadata><defs
     id="defs4749" /><sodipodi:namedview
     pagecolor="#ffffff"
     bordercolor="#666666"
     borderopacity="1"
     objecttolerance="10"
     gridtolerance="10"
     guidetolerance="10"
     inkscape:pageopacity="0"
     inkscape:pageshadow="2"
     inkscape:window-width="640"
     inkscape:window-height="480"
     id="namedview4747"
     showgrid="false"
     inkscape:zoom="19"
     inkscape:cx="12"
     inkscape:cy="12"
     inkscape:current-layer="svg4743" /><path
     style="color:#000000;font-style:normal;font-variant:normal;font-weight:normal;font-stretch:normal;font-size:medium;line-height:normal;font-family:sans-serif;text-indent:0;text-align:start;text-decoration:none;text-decoration-line:none;text-decoration-style:solid;text-decoration-color:#000000;letter-spacing:normal;word-spacing:normal;text-transform:none;direction:ltr;block-progression:tb;writing-mode:lr-tb;baseline-shift:baseline;text-anchor:start;white-space:normal;clip-rule:nonzero;display:inline;overflow:visible;visibility:visible;opacity:1;isolation:auto;mix-blend-mode:normal;color-interpolation:sRGB;color-interpolation-filters:linearRGB;solid-color:#000000;solid-opacity:1;fill:#031204;fill-opacity:1;fill-rule:nonzero;stroke:none;stroke-width:2px;stroke-linecap:butt;stroke-linejoin:miter;stroke-miterlimit:1.41420996;stroke-dasharray:none;stroke-dashoffset:0;stroke-opacity:1;color-rendering:auto;image-rendering:auto;shape-rendering:auto;text-rendering:auto;enable-background:accumulate"
     d="M 8.8144531,3.6503906 C 7.2501176,3.3890367 5.6576266,3.8456339 4.5742188,4.875 3.4908826,5.904298 3,7.3995238 3,9 c 0,1.596921 0.4729611,3.336847 1.375,5.054688 1.3656406,2.765953 4.4921075,5.145577 7.089844,6.791015 a 1.0001,1.0001 0 0 0 1.070312,0 C 15.132892,19.200265 18.259359,16.820641 19.625,14.054688 20.527039,12.336847 21,10.596921 21,9 21,7.3995238 20.509117,5.904298 19.425781,4.875 17.523528,3.0676333 14.132166,3.1804983 12,5.6914062 11.082186,4.6105587 9.9967866,3.8479233 8.8144531,3.6503906 Z M 8.4492188,5.5488281 c 0.9621645,0.1386461 1.9520032,0.7603937 2.6660152,2.1171875 a 1.0001,1.0001 0 0 0 1.769532,0 C 14.312791,4.9524279 16.847644,5.1829509 18.048828,6.3242188 18.649492,6.8949207 19,7.8004762 19,9 c 0,1.199524 -0.370412,2.656333 -1.148438,4.134766 a 1.0001,1.0001 0 0 0 -0.01172,0.02344 C 16.915102,15.04063 14.326306,17.200424 12,18.75 9.6736938,17.200424 7.0848982,15.04063 6.1601562,13.158203 a 1.0001,1.0001 0 0 0 -0.011719,-0.02344 C 5.3704121,11.656333 5,10.199524 5,9 5,7.8004762 5.350508,6.8949207 5.9511719,6.3242188 6.5517641,5.7535848 7.4870542,5.410182 8.4492188,5.5488281 Z"
     id="path4745"
     inkscape:connector-curvature="0" /></svg>