<?xml version="1.0" encoding="UTF-8" standalone="no"?>
<svg
   xmlns:dc="http://purl.org/dc/elements/1.1/"
   xmlns:cc="http://creativecommons.org/ns#"
   xmlns:rdf="http://www.w3.org/1999/02/22-rdf-syntax-ns#"
   xmlns:svg="http://www.w3.org/2000/svg"
   xmlns="http://www.w3.org/2000/svg"
   xmlns:sodipodi="http://sodipodi.sourceforge.net/DTD/sodipodi-0.dtd"
   xmlns:inkscape="http://www.inkscape.org/namespaces/inkscape"
   width="100%"
   height="100%"
   viewBox="0 0 24 24"
   version="1.1"
   xml:space="preserve"
   style="fill-rule:evenodd;clip-rule:evenodd;stroke-linecap:round;stroke-linejoin:round;stroke-miterlimit:1.41421;"
   id="svg4811"
   inkscape:version="0.91 r13725"
   sodipodi:docname="help.svg"><metadata
     id="metadata4829"><rdf:RDF><cc:Work
         rdf:about=""><dc:format>image/svg+xml</dc:format><dc:type
           rdf:resource="http://purl.org/dc/dcmitype/StillImage" /></cc:Work></rdf:RDF></metadata><defs
     id="defs4827" /><sodipodi:namedview
     pagecolor="#ffffff"
     bordercolor="#666666"
     borderopacity="1"
     objecttolerance="10"
     gridtolerance="10"
     guidetolerance="10"
     inkscape:pageopacity="0"
     inkscape:pageshadow="2"
     inkscape:window-width="640"
     inkscape:window-height="480"
     id="namedview4825"
     showgrid="false"
     inkscape:zoom="19"
     inkscape:cx="12"
     inkscape:cy="12"
     inkscape:current-layer="svg4811" /><g
     transform="matrix(0.818182,0,0,0.818182,2.18182,2.18182)"
     id="g4813"><path
       style="color:#000000;font-style:normal;font-variant:normal;font-weight:normal;font-stretch:normal;font-size:medium;line-height:normal;font-family:sans-serif;text-indent:0;text-align:start;text-decoration:none;text-decoration-line:none;text-decoration-style:solid;text-decoration-color:#000000;letter-spacing:normal;word-spacing:normal;text-transform:none;direction:ltr;block-progression:tb;writing-mode:lr-tb;baseline-shift:baseline;text-anchor:start;white-space:normal;clip-rule:nonzero;display:inline;overflow:visible;visibility:visible;opacity:1;isolation:auto;mix-blend-mode:normal;color-interpolation:sRGB;color-interpolation-filters:linearRGB;solid-color:#000000;solid-opacity:1;fill:#000000;fill-opacity:1;fill-rule:nonzero;stroke:none;stroke-width:2.44000006px;stroke-linecap:butt;stroke-linejoin:miter;stroke-miterlimit:1.41420996;stroke-dasharray:none;stroke-dashoffset:0;stroke-opacity:1;color-rendering:auto;image-rendering:auto;shape-rendering:auto;text-rendering:auto;enable-background:accumulate"
       d="M 12,-0.22070312 C 5.2655308,-0.22070312 -0.22070313,5.2655308 -0.22070312,12 -0.22070312,18.734469 5.2655308,24.220703 12,24.220703 18.734469,24.220703 24.220703,18.734469 24.220703,12 24.220703,5.2655308 18.734469,-0.22070313 12,-0.22070312 Z m 0,2.44140622 c 5.415795,0 9.779297,4.3635016 9.779297,9.7792969 0,5.415795 -4.363502,9.779297 -9.779297,9.779297 C 6.5842047,21.779297 2.2207031,17.415795 2.2207031,12 2.2207031,6.5842047 6.5842047,2.2207031 12,2.2207031 Z"
       id="circle4815"
       inkscape:connector-curvature="0" /></g><g
     transform="matrix(0.665362,-9.09112e-18,-9.09112e-18,0.702479,2.31276,7.33494)"
     id="g4817"><path
       style="color:#000000;font-style:normal;font-variant:normal;font-weight:normal;font-stretch:normal;font-size:medium;line-height:normal;font-family:sans-serif;text-indent:0;text-align:start;text-decoration:none;text-decoration-line:none;text-decoration-style:solid;text-decoration-color:#000000;letter-spacing:normal;word-spacing:normal;text-transform:none;direction:ltr;block-progression:tb;writing-mode:lr-tb;baseline-shift:baseline;text-anchor:start;white-space:normal;clip-rule:nonzero;display:inline;overflow:visible;visibility:visible;opacity:1;isolation:auto;mix-blend-mode:normal;color-interpolation:sRGB;color-interpolation-filters:linearRGB;solid-color:#000000;solid-opacity:1;fill:#000000;fill-opacity:1;fill-rule:nonzero;stroke:none;stroke-width:2.92000008px;stroke-linecap:butt;stroke-linejoin:miter;stroke-miterlimit:1.41420996;stroke-dasharray:none;stroke-dashoffset:0;stroke-opacity:1;color-rendering:auto;image-rendering:auto;shape-rendering:auto;text-rendering:auto;enable-background:accumulate"
       d="m 14.759766,-1.9375 c -1.636324,0 -2.998751,0.4521 -3.97461,1.26757812 C 9.9772859,0.00330345 9.432303,0.88728586 9.1328125,1.8222656 9.0565717,2.0533855 9.0117188,2.2758801 9.0117188,2.546875 c -1e-7,0.5741818 0.296896,1.1584002 0.6484374,1.484375 0.3515418,0.3259748 0.7109888,0.4665021 1.0312498,0.5507812 a 1.460146,1.460146 0 0 0 0.13086,0.029297 c 0.096,0.016 0.271074,0.050781 0.529296,0.050781 0.774667,0 1.778591,-0.6912404 2.056641,-1.5253906 0.221471,-0.6544688 0.300637,-0.8417969 1.271485,-0.8417969 0.519228,0 0.78465,0.1316867 0.871093,0.2011719 0.08644,0.069485 0.09961,0.058255 0.09961,0.2753906 0,0.1980653 0.03424,0.062293 -0.02539,0.140625 -0.05963,0.078332 -0.334641,0.3391964 -0.888672,0.7285156 -0.452363,0.3059709 -1.012696,0.656802 -1.544922,1.1699219 -0.538768,0.5194281 -1.109375,1.3222715 -1.109375,2.3515625 l 0,0.4492187 c 0,0.582359 0.30529,1.2494684 0.769531,1.6152344 0.464242,0.365766 0.976402,0.46875 1.427735,0.46875 0.453067,0 0.97514,-0.1134402 1.431641,-0.4902344 0.441944,-0.3647794 0.692031,-0.9921103 0.708984,-1.5429687 0.206178,-0.156311 0.566753,-0.4044924 1.175781,-0.8300782 a 1.460146,1.460146 0 0 0 0.002,-0.00195 c 0.675824,-0.4739543 1.290703,-0.9655237 1.767578,-1.6523437 0.476875,-0.68682 0.742188,-1.5663015 0.742188,-2.4707032 0,-1.3549617 -0.592762,-2.63770286 -1.59375,-3.45507808 C 17.512683,-1.5654221 16.196964,-1.9375 14.759766,-1.9375 Z"
       id="path4819"
       inkscape:connector-curvature="0" /></g><g
     transform="matrix(0.68,0,0,0.68,3.84,5.12)"
     id="g4821"><path
       style="color:#000000;font-style:normal;font-variant:normal;font-weight:normal;font-stretch:normal;font-size:medium;line-height:normal;font-family:sans-serif;text-indent:0;text-align:start;text-decoration:none;text-decoration-line:none;text-decoration-style:solid;text-decoration-color:#000000;letter-spacing:normal;word-spacing:normal;text-transform:none;direction:ltr;block-progression:tb;writing-mode:lr-tb;baseline-shift:baseline;text-anchor:start;white-space:normal;clip-rule:nonzero;display:inline;overflow:visible;visibility:visible;opacity:1;isolation:auto;mix-blend-mode:normal;color-interpolation:sRGB;color-interpolation-filters:linearRGB;solid-color:#000000;solid-opacity:1;fill:#000000;fill-opacity:1;fill-rule:nonzero;stroke:none;stroke-width:2.94000006px;stroke-linecap:butt;stroke-linejoin:miter;stroke-miterlimit:1.41420996;stroke-dasharray:none;stroke-dashoffset:0;stroke-opacity:1;color-rendering:auto;image-rendering:auto;shape-rendering:auto;text-rendering:auto;enable-background:accumulate"
       d="m 12,14.529297 c -1.346732,0 -2.4707031,1.123971 -2.4707031,2.470703 0,1.346732 1.1239711,2.470703 2.4707031,2.470703 1.346732,0 2.470703,-1.123971 2.470703,-2.470703 0,-1.346732 -1.123971,-2.470703 -2.470703,-2.470703 z"
       id="circle4823"
       inkscape:connector-curvature="0"
       sodipodi:nodetypes="sssss" /></g></svg>