<?xml version="1.0" encoding="UTF-8" standalone="no"?>
<svg
   xmlns:dc="http://purl.org/dc/elements/1.1/"
   xmlns:cc="http://creativecommons.org/ns#"
   xmlns:rdf="http://www.w3.org/1999/02/22-rdf-syntax-ns#"
   xmlns:svg="http://www.w3.org/2000/svg"
   xmlns="http://www.w3.org/2000/svg"
   xmlns:sodipodi="http://sodipodi.sourceforge.net/DTD/sodipodi-0.dtd"
   xmlns:inkscape="http://www.inkscape.org/namespaces/inkscape"
   width="100%"
   height="100%"
   viewBox="0 0 24 24"
   version="1.1"
   xml:space="preserve"
   style="fill-rule:evenodd;clip-rule:evenodd;stroke-linecap:round;stroke-linejoin:round;stroke-miterlimit:1.41421;"
   id="svg5376"
   inkscape:version="0.91 r13725"
   sodipodi:docname="key-command.svg"><metadata
     id="metadata5406"><rdf:RDF><cc:Work
         rdf:about=""><dc:format>image/svg+xml</dc:format><dc:type
           rdf:resource="http://purl.org/dc/dcmitype/StillImage" /></cc:Work></rdf:RDF></metadata><defs
     id="defs5404" /><sodipodi:namedview
     pagecolor="#ffffff"
     bordercolor="#666666"
     borderopacity="1"
     objecttolerance="10"
     gridtolerance="10"
     guidetolerance="10"
     inkscape:pageopacity="0"
     inkscape:pageshadow="2"
     inkscape:window-width="640"
     inkscape:window-height="480"
     id="namedview5402"
     showgrid="false"
     inkscape:zoom="19"
     inkscape:cx="12"
     inkscape:cy="12"
     inkscape:current-layer="svg5376" /><g
     transform="matrix(1,0,0,1,11,-5)"
     id="g5378"><path
       style="color:#000000;font-style:normal;font-variant:normal;font-weight:normal;font-stretch:normal;font-size:medium;line-height:normal;font-family:sans-serif;text-indent:0;text-align:start;text-decoration:none;text-decoration-line:none;text-decoration-style:solid;text-decoration-color:#000000;letter-spacing:normal;word-spacing:normal;text-transform:none;direction:ltr;block-progression:tb;writing-mode:lr-tb;baseline-shift:baseline;text-anchor:start;white-space:normal;clip-rule:nonzero;display:inline;overflow:visible;visibility:visible;opacity:1;isolation:auto;mix-blend-mode:normal;color-interpolation:sRGB;color-interpolation-filters:linearRGB;solid-color:#000000;solid-opacity:1;fill:#000000;fill-opacity:1;fill-rule:nonzero;stroke:none;stroke-width:2px;stroke-linecap:butt;stroke-linejoin:miter;stroke-miterlimit:1.41420996;stroke-dasharray:none;stroke-dashoffset:0;stroke-opacity:1;color-rendering:auto;image-rendering:auto;shape-rendering:auto;text-rendering:auto;enable-background:accumulate"
       d="M 7 4 C 5.3549904 4 4 5.35499 4 7 C 4 8.5715768 5.2403444 9.8649699 6.7851562 9.9785156 A 1.0001 1.0001 0 0 0 7 10 L 8 10 L 8 14 L 7 14 A 1.0001 1.0001 0 0 0 6.7832031 14.021484 C 5.2393001 14.135985 4 15.429084 4 17 C 4 18.64501 5.3549904 20 7 20 C 8.5715764 20 9.8649699 18.759656 9.9785156 17.214844 A 1.0001 1.0001 0 0 0 10 17 L 10 16 L 14 16 L 14 17 A 1.0001 1.0001 0 0 0 14.021484 17.216797 C 14.135985 18.7607 15.429084 20 17 20 C 18.64501 20 20 18.64501 20 17 C 20 15.428423 18.759656 14.13503 17.214844 14.021484 A 1.0001 1.0001 0 0 0 17 14 L 16 14 L 16 10 L 17 10 A 1.0001 1.0001 0 0 0 17.216797 9.9785156 C 18.7607 9.8640145 20 8.5709159 20 7 C 20 5.35499 18.64501 4 17 4 C 15.427102 4 14.133116 5.2424329 14.021484 6.7890625 A 1.0001 1.0001 0 0 0 14 7 L 14 8 L 10 8 L 10 7 A 1.0001 1.0001 0 0 0 9.9785156 6.7832031 C 9.8640145 5.2392997 8.5709155 4 7 4 z M 7 6 C 7.5641294 6 8 6.435871 8 7 C 8 7.564129 7.5641294 8 7 8 C 6.4358706 8 6 7.564129 6 7 C 6 6.435871 6.4358706 6 7 6 z M 17 6 C 17.564129 6 18 6.435871 18 7 C 18 7.564129 17.564129 8 17 8 C 16.435871 8 16 7.564129 16 7 C 16 6.435871 16.435871 6 17 6 z M 10 10 L 14 10 L 14 14 L 10 14 L 10 10 z M 7 16 C 7.5641294 16 8 16.435871 8 17 C 8 17.564129 7.5641294 18 7 18 C 6.4358706 18 6 17.564129 6 17 C 6 16.435871 6.4358706 16 7 16 z M 17 16 C 17.564129 16 18 16.435871 18 17 C 18 17.564129 17.564129 18 17 18 C 16.435871 18 16 17.564129 16 17 C 16 16.435871 16.435871 16 17 16 z "
       transform="translate(-11,5)"
       id="circle5380" /></g><g
     transform="matrix(1,0,0,1,1,-5)"
     id="g5382" /><g
     transform="matrix(1,0,0,1,11,5)"
     id="g5386" /><g
     transform="matrix(1,0,0,1,1,5)"
     id="g5390" /></svg>