<?xml version="1.0" encoding="UTF-8" standalone="no"?>
<svg
   xmlns:dc="http://purl.org/dc/elements/1.1/"
   xmlns:cc="http://creativecommons.org/ns#"
   xmlns:rdf="http://www.w3.org/1999/02/22-rdf-syntax-ns#"
   xmlns:svg="http://www.w3.org/2000/svg"
   xmlns="http://www.w3.org/2000/svg"
   xmlns:sodipodi="http://sodipodi.sourceforge.net/DTD/sodipodi-0.dtd"
   xmlns:inkscape="http://www.inkscape.org/namespaces/inkscape"
   width="100%"
   height="100%"
   viewBox="0 0 24 24"
   version="1.1"
   xml:space="preserve"
   style="fill-rule:evenodd;clip-rule:evenodd;stroke-linecap:round;stroke-linejoin:round;stroke-miterlimit:1.41421;"
   id="svg5288"
   inkscape:version="0.91 r13725"
   sodipodi:docname="key.svg"><metadata
     id="metadata5302"><rdf:RDF><cc:Work
         rdf:about=""><dc:format>image/svg+xml</dc:format><dc:type
           rdf:resource="http://purl.org/dc/dcmitype/StillImage" /></cc:Work></rdf:RDF></metadata><defs
     id="defs5300" /><sodipodi:namedview
     pagecolor="#ffffff"
     bordercolor="#666666"
     borderopacity="1"
     objecttolerance="10"
     gridtolerance="10"
     guidetolerance="10"
     inkscape:pageopacity="0"
     inkscape:pageshadow="2"
     inkscape:window-width="640"
     inkscape:window-height="480"
     id="namedview5298"
     showgrid="false"
     inkscape:zoom="19"
     inkscape:cx="12"
     inkscape:cy="12"
     inkscape:current-layer="svg5288" /><g
     transform="matrix(1,0,0,1,2.5,-2)"
     id="g5290"><path
       style="color:#000000;font-style:normal;font-variant:normal;font-weight:normal;font-stretch:normal;font-size:medium;line-height:normal;font-family:sans-serif;text-indent:0;text-align:start;text-decoration:none;text-decoration-line:none;text-decoration-style:solid;text-decoration-color:#000000;letter-spacing:normal;word-spacing:normal;text-transform:none;direction:ltr;block-progression:tb;writing-mode:lr-tb;baseline-shift:baseline;text-anchor:start;white-space:normal;clip-rule:nonzero;display:inline;overflow:visible;visibility:visible;opacity:1;isolation:auto;mix-blend-mode:normal;color-interpolation:sRGB;color-interpolation-filters:linearRGB;solid-color:#000000;solid-opacity:1;fill:#000000;fill-opacity:1;fill-rule:nonzero;stroke:none;stroke-width:2px;stroke-linecap:butt;stroke-linejoin:miter;stroke-miterlimit:1.41420996;stroke-dasharray:none;stroke-dashoffset:0;stroke-opacity:1;color-rendering:auto;image-rendering:auto;shape-rendering:auto;text-rendering:auto;enable-background:accumulate"
       d="M 16.484375,3 A 1.0001,1.0001 0 0 0 15.792969,3.2929688 L 7.0859375,12 4.5,12 a 1.0001,1.0001 0 0 0 -0.7070312,0.292969 l -4.00000005,4 A 1.0001,1.0001 0 0 0 -0.5,17 l 0,3 a 1.0001,1.0001 0 0 0 0.29296875,0.707031 l 3.00000005,3 A 1.0001,1.0001 0 0 0 3.5,24 l 3,0 a 1.0001,1.0001 0 0 0 0.7070312,-0.292969 l 3.9999998,-4 A 1.0001,1.0001 0 0 0 11.5,19 l 0,-2.585938 1.707031,-1.707031 A 1.0001,1.0001 0 0 0 13.5,14 l 1,0 a 1.0001,1.0001 0 0 0 1,-1 l 0,-1 1,0 a 1.0001,1.0001 0 0 0 1,-1 l 0,-1 1,0 a 1.0001,1.0001 0 0 0 1,-1 l 0,-3 A 1.0001,1.0001 0 0 0 19.207031,5.2929688 l -2,-2 A 1.0001,1.0001 0 0 0 16.484375,3 Z M 16.5,5.4140625 l 1,1 L 17.5,8 l -1,0 a 1.0001,1.0001 0 0 0 -1,1 l 0,1 -1,0 a 1.0001,1.0001 0 0 0 -1,1 l 0,1 -1,0 a 1.0001,1.0001 0 0 0 -1,1 l 0,0.585938 -1.7070312,1.707031 A 1.0001,1.0001 0 0 0 9.5,16 l 0,2.585938 L 6.0859375,22 3.9140625,22 1.5,19.585938 1.5,17.414062 4.9140625,14 7.5,14 A 1.0001,1.0001 0 0 0 8.2070312,13.707031 L 16.5,5.4140625 Z"
       id="path5292"
       inkscape:connector-curvature="0" /></g><g
     transform="matrix(1,0,0,1,1,-1)"
     id="g5294"><path
       style="color:#000000;font-style:normal;font-variant:normal;font-weight:normal;font-stretch:normal;font-size:medium;line-height:normal;font-family:sans-serif;text-indent:0;text-align:start;text-decoration:none;text-decoration-line:none;text-decoration-style:solid;text-decoration-color:#000000;letter-spacing:normal;word-spacing:normal;text-transform:none;direction:ltr;block-progression:tb;writing-mode:lr-tb;baseline-shift:baseline;text-anchor:start;white-space:normal;clip-rule:nonzero;display:inline;overflow:visible;visibility:visible;opacity:1;isolation:auto;mix-blend-mode:normal;color-interpolation:sRGB;color-interpolation-filters:linearRGB;solid-color:#000000;solid-opacity:1;fill:#000000;fill-opacity:1;fill-rule:nonzero;stroke:none;stroke-width:2px;stroke-linecap:butt;stroke-linejoin:miter;stroke-miterlimit:1.41420996;stroke-dasharray:none;stroke-dashoffset:0;stroke-opacity:1;color-rendering:auto;image-rendering:auto;shape-rendering:auto;text-rendering:auto;enable-background:accumulate"
       d="m 5.9902344,15.990234 a 1.0001,1.0001 0 0 0 -0.6972656,1.716797 l 1,1 a 1.0001,1.0001 0 1 0 1.4140624,-1.414062 l -1,-1 A 1.0001,1.0001 0 0 0 5.9902344,15.990234 Z"
       id="path5296"
       inkscape:connector-curvature="0" /></g></svg>