<?xml version="1.0" encoding="UTF-8" standalone="no"?>
<svg
   xmlns:dc="http://purl.org/dc/elements/1.1/"
   xmlns:cc="http://creativecommons.org/ns#"
   xmlns:rdf="http://www.w3.org/1999/02/22-rdf-syntax-ns#"
   xmlns:svg="http://www.w3.org/2000/svg"
   xmlns="http://www.w3.org/2000/svg"
   xmlns:sodipodi="http://sodipodi.sourceforge.net/DTD/sodipodi-0.dtd"
   xmlns:inkscape="http://www.inkscape.org/namespaces/inkscape"
   width="100%"
   height="100%"
   viewBox="0 0 24 24"
   version="1.1"
   xml:space="preserve"
   style="fill-rule:evenodd;clip-rule:evenodd;stroke-linecap:round;stroke-linejoin:round;stroke-miterlimit:1.41421;"
   id="svg5865"
   inkscape:version="0.91 r13725"
   sodipodi:docname="map.svg"><metadata
     id="metadata5873"><rdf:RDF><cc:Work
         rdf:about=""><dc:format>image/svg+xml</dc:format><dc:type
           rdf:resource="http://purl.org/dc/dcmitype/StillImage" /></cc:Work></rdf:RDF></metadata><defs
     id="defs5871" /><sodipodi:namedview
     pagecolor="#ffffff"
     bordercolor="#666666"
     borderopacity="1"
     objecttolerance="10"
     gridtolerance="10"
     guidetolerance="10"
     inkscape:pageopacity="0"
     inkscape:pageshadow="2"
     inkscape:window-width="640"
     inkscape:window-height="480"
     id="namedview5869"
     showgrid="false"
     inkscape:zoom="19"
     inkscape:cx="12"
     inkscape:cy="12"
     inkscape:current-layer="svg5865" /><path
     style="color:#000000;font-style:normal;font-variant:normal;font-weight:normal;font-stretch:normal;font-size:medium;line-height:normal;font-family:sans-serif;text-indent:0;text-align:start;text-decoration:none;text-decoration-line:none;text-decoration-style:solid;text-decoration-color:#000000;letter-spacing:normal;word-spacing:normal;text-transform:none;direction:ltr;block-progression:tb;writing-mode:lr-tb;baseline-shift:baseline;text-anchor:start;white-space:normal;clip-rule:nonzero;display:inline;overflow:visible;visibility:visible;opacity:1;isolation:auto;mix-blend-mode:normal;color-interpolation:sRGB;color-interpolation-filters:linearRGB;solid-color:#000000;solid-opacity:1;fill:#000000;fill-opacity:1;fill-rule:nonzero;stroke:none;stroke-width:2px;stroke-linecap:butt;stroke-linejoin:miter;stroke-miterlimit:1.41420996;stroke-dasharray:none;stroke-dashoffset:0;stroke-opacity:1;color-rendering:auto;image-rendering:auto;shape-rendering:auto;text-rendering:auto;enable-background:accumulate"
     d="M 15.984375,1 A 1.0001,1.0001 0 0 0 15.292969,1.2929688 L 8,8.5859375 3.7070312,4.2929688 A 1.0001,1.0001 0 0 0 2,5 l 0,12 a 1.0001,1.0001 0 0 0 0.2929688,0.707031 l 5,5 a 1.0001,1.0001 0 0 0 1.4140624,0 L 16,15.414062 20.292969,19.707031 A 1.0001,1.0001 0 0 0 22,19 L 22,7 A 1.0001,1.0001 0 0 0 21.707031,6.2929688 l -5,-5 A 1.0001,1.0001 0 0 0 15.984375,1 Z M 16,3.4140625 l 4,4 0,9.1718755 -3.292969,-3.292969 a 1.0001,1.0001 0 0 0 -1.414062,0 L 8,20.585938 l -4,-4 0,-9.1718755 3.2929688,3.2929685 a 1.0001,1.0001 0 0 0 1.4140624,0 L 16,3.4140625 Z"
     id="path5867"
     inkscape:connector-curvature="0" /></svg>