<?xml version="1.0" encoding="UTF-8" standalone="no"?>
<svg
   xmlns:dc="http://purl.org/dc/elements/1.1/"
   xmlns:cc="http://creativecommons.org/ns#"
   xmlns:rdf="http://www.w3.org/1999/02/22-rdf-syntax-ns#"
   xmlns:svg="http://www.w3.org/2000/svg"
   xmlns="http://www.w3.org/2000/svg"
   xmlns:sodipodi="http://sodipodi.sourceforge.net/DTD/sodipodi-0.dtd"
   xmlns:inkscape="http://www.inkscape.org/namespaces/inkscape"
   width="100%"
   height="100%"
   viewBox="0 0 24 24"
   version="1.1"
   xml:space="preserve"
   style="fill-rule:evenodd;clip-rule:evenodd;stroke-linecap:round;stroke-linejoin:round;stroke-miterlimit:1.41421;"
   id="svg6205"
   inkscape:version="0.91 r13725"
   sodipodi:docname="paperclip.svg"><metadata
     id="metadata6239"><rdf:RDF><cc:Work
         rdf:about=""><dc:format>image/svg+xml</dc:format><dc:type
           rdf:resource="http://purl.org/dc/dcmitype/StillImage" /></cc:Work></rdf:RDF></metadata><defs
     id="defs6237" /><sodipodi:namedview
     pagecolor="#ffffff"
     bordercolor="#666666"
     borderopacity="1"
     objecttolerance="10"
     gridtolerance="10"
     guidetolerance="10"
     inkscape:pageopacity="0"
     inkscape:pageshadow="2"
     inkscape:window-width="640"
     inkscape:window-height="480"
     id="namedview6235"
     showgrid="false"
     inkscape:zoom="19"
     inkscape:cx="12"
     inkscape:cy="12"
     inkscape:current-layer="svg6205" /><g
     transform="matrix(1,0,0,1,-1,0)"
     id="g6207"><path
       style="color:#000000;font-style:normal;font-variant:normal;font-weight:normal;font-stretch:normal;font-size:medium;line-height:normal;font-family:sans-serif;text-indent:0;text-align:start;text-decoration:none;text-decoration-line:none;text-decoration-style:solid;text-decoration-color:#000000;letter-spacing:normal;word-spacing:normal;text-transform:none;direction:ltr;block-progression:tb;writing-mode:lr-tb;baseline-shift:baseline;text-anchor:start;white-space:normal;clip-rule:nonzero;display:inline;overflow:visible;visibility:visible;opacity:1;isolation:auto;mix-blend-mode:normal;color-interpolation:sRGB;color-interpolation-filters:linearRGB;solid-color:#000000;solid-opacity:1;fill:#031204;fill-opacity:1;fill-rule:nonzero;stroke:none;stroke-width:2px;stroke-linecap:butt;stroke-linejoin:miter;stroke-miterlimit:1.41420996;stroke-dasharray:none;stroke-dashoffset:0;stroke-opacity:1;color-rendering:auto;image-rendering:auto;shape-rendering:auto;text-rendering:auto;enable-background:accumulate"
       d="M 12 1 C 8.7332249 1 6.0611201 3.6442647 6.0058594 6.8984375 A 1.0001 1.0001 0 0 0 6 7 L 6 18 A 1.0001 1.0001 0 0 0 6.0214844 18.21875 C 6.1389325 20.590009 8.1011672 22.5 10.5 22.5 C 12.899494 22.5 14.862106 20.588922 14.978516 18.216797 A 1.0001 1.0001 0 0 0 15 18 A 1.0011 1.0011 0 0 0 15 17.900391 L 15 7 A 1.0001 1.0001 0 0 0 14.978516 6.7832031 C 14.864019 5.2392581 13.570966 4 12 4 C 10.427051 4 9.1331117 5.242391 9.0214844 6.7890625 A 1.0001 1.0001 0 0 0 9 7 L 9 16 A 1.0001 1.0001 0 1 0 11 16 L 11 7 C 11 6.4370628 11.437063 6 12 6 C 12.562937 6 13 6.4370628 13 7 L 13 17.914062 A 1.0011 1.0011 0 0 0 13 18 C 13 19.390396 11.890396 20.5 10.5 20.5 C 9.109604 20.5 8 19.390396 8 18 L 8 7 C 8 4.7810628 9.781063 3 12 3 C 14.218937 3 16 4.7810628 16 7 L 16 18 A 1.0001 1.0001 0 1 0 18 18 L 18 7 A 1.0001 1.0001 0 0 0 17.994141 6.8867188 C 17.932625 3.6379522 15.262831 1 12 1 z "
       transform="translate(1,0)"
       id="path6209" /></g><g
     transform="matrix(0.4,0,0,0.4,6.8,4.2)"
     id="g6211" /><g
     transform="matrix(0.7,0,0,-0.7,1.4,22.9)"
     id="g6215" /><g
     transform="matrix(1,0,0,1,-1,0)"
     id="g6219" /><g
     transform="matrix(1,0,0,1,-1,0)"
     id="g6223" /><g
     transform="matrix(1,0,0,1,-1,0)"
     id="g6227" /><g
     transform="matrix(1,0,0,1,-1,0)"
     id="g6231" /></svg>