<?xml version="1.0" encoding="UTF-8" standalone="no"?>
<svg
   xmlns:dc="http://purl.org/dc/elements/1.1/"
   xmlns:cc="http://creativecommons.org/ns#"
   xmlns:rdf="http://www.w3.org/1999/02/22-rdf-syntax-ns#"
   xmlns:svg="http://www.w3.org/2000/svg"
   xmlns="http://www.w3.org/2000/svg"
   xmlns:sodipodi="http://sodipodi.sourceforge.net/DTD/sodipodi-0.dtd"
   xmlns:inkscape="http://www.inkscape.org/namespaces/inkscape"
   width="100%"
   height="100%"
   viewBox="0 0 24 24"
   version="1.1"
   xml:space="preserve"
   style="fill-rule:evenodd;clip-rule:evenodd;stroke-linecap:round;stroke-linejoin:round;stroke-miterlimit:1.41421;"
   id="svg6407"
   inkscape:version="0.91 r13725"
   sodipodi:docname="people.svg"><metadata
     id="metadata6437"><rdf:RDF><cc:Work
         rdf:about=""><dc:format>image/svg+xml</dc:format><dc:type
           rdf:resource="http://purl.org/dc/dcmitype/StillImage" /></cc:Work></rdf:RDF></metadata><defs
     id="defs6435" /><sodipodi:namedview
     pagecolor="#ffffff"
     bordercolor="#666666"
     borderopacity="1"
     objecttolerance="10"
     gridtolerance="10"
     guidetolerance="10"
     inkscape:pageopacity="0"
     inkscape:pageshadow="2"
     inkscape:window-width="640"
     inkscape:window-height="480"
     id="namedview6433"
     showgrid="false"
     inkscape:zoom="19"
     inkscape:cx="12"
     inkscape:cy="12"
     inkscape:current-layer="svg6407" /><g
     transform="matrix(0.333333,9.07146e-18,9.07146e-18,0.296296,8,8.40741)"
     id="g6409"><path
       style="color:#000000;font-style:normal;font-variant:normal;font-weight:normal;font-stretch:normal;font-size:medium;line-height:normal;font-family:sans-serif;text-indent:0;text-align:start;text-decoration:none;text-decoration-line:none;text-decoration-style:solid;text-decoration-color:#000000;letter-spacing:normal;word-spacing:normal;text-transform:none;direction:ltr;block-progression:tb;writing-mode:lr-tb;baseline-shift:baseline;text-anchor:start;white-space:normal;clip-rule:nonzero;display:inline;overflow:visible;visibility:visible;opacity:1;isolation:auto;mix-blend-mode:normal;color-interpolation:sRGB;color-interpolation-filters:linearRGB;solid-color:#000000;solid-opacity:1;fill:#000000;fill-opacity:1;fill-rule:nonzero;stroke:none;stroke-width:6.34000015px;stroke-linecap:butt;stroke-linejoin:miter;stroke-miterlimit:1.41420996;stroke-dasharray:none;stroke-dashoffset:0;stroke-opacity:1;color-rendering:auto;image-rendering:auto;shape-rendering:auto;text-rendering:auto;enable-background:accumulate"
       d="M 12 8.0605469 C 10.621174 8.0605469 9.609375 9.146394 9.609375 10.333984 C 9.609375 10.746862 9.7376881 11.143442 9.9550781 11.490234 C 9.3717623 12.039069 9 12.810327 9 13.666016 L 9 15 A 1.0001 1.0001 0 0 0 10 16 L 14 16 A 1.0001 1.0001 0 0 0 15 15 L 15 13.666016 C 15 12.808831 14.628675 12.037496 14.044922 11.488281 C 14.261742 11.141824 14.390625 10.746285 14.390625 10.333984 C 14.390625 9.146394 13.378827 8.0605469 12 8.0605469 z M 12 9.9394531 C 12.093931 9.9394531 12.277344 10.048817 12.277344 10.333984 C 12.277344 10.537682 12.187126 10.627398 12.099609 10.675781 C 12.066011 10.674669 12.033744 10.666016 12 10.666016 C 11.966631 10.666016 11.935465 10.674675 11.902344 10.675781 C 11.814359 10.627914 11.722656 10.538946 11.722656 10.333984 C 11.722656 10.048817 11.906069 9.9394531 12 9.9394531 z M 12 12.666016 C 12.063008 12.666016 12.122139 12.673119 12.179688 12.683594 C 12.643374 12.768025 13 13.166157 13 13.666016 L 13 14 L 11 14 L 11 13.666016 C 11 13.103602 11.437586 12.666016 12 12.666016 z "
       transform="matrix(3.000003,0,0,3.3750034,-24.000024,-28.375037)"
       id="ellipse6411" /></g><g
     transform="matrix(0.25,0,-6.16298e-33,0.25,9,10.6667)"
     id="g6413" /><g
     transform="matrix(0.333333,9.07146e-18,9.07146e-18,0.296296,16,8.40741)"
     id="g6417"><path
       style="color:#000000;font-style:normal;font-variant:normal;font-weight:normal;font-stretch:normal;font-size:medium;line-height:normal;font-family:sans-serif;text-indent:0;text-align:start;text-decoration:none;text-decoration-line:none;text-decoration-style:solid;text-decoration-color:#000000;letter-spacing:normal;word-spacing:normal;text-transform:none;direction:ltr;block-progression:tb;writing-mode:lr-tb;baseline-shift:baseline;text-anchor:start;white-space:normal;clip-rule:nonzero;display:inline;overflow:visible;visibility:visible;opacity:1;isolation:auto;mix-blend-mode:normal;color-interpolation:sRGB;color-interpolation-filters:linearRGB;solid-color:#000000;solid-opacity:1;fill:#000000;fill-opacity:1;fill-rule:nonzero;stroke:none;stroke-width:6.34000015px;stroke-linecap:butt;stroke-linejoin:miter;stroke-miterlimit:1.41420996;stroke-dasharray:none;stroke-dashoffset:0;stroke-opacity:1;color-rendering:auto;image-rendering:auto;shape-rendering:auto;text-rendering:auto;enable-background:accumulate"
       d="M 20 8.0605469 C 18.621174 8.0605469 17.609375 9.146394 17.609375 10.333984 C 17.609375 10.746862 17.737688 11.143442 17.955078 11.490234 C 17.371762 12.039069 17 12.810327 17 13.666016 L 17 15 A 1.0001 1.0001 0 0 0 18 16 L 22 16 A 1.0001 1.0001 0 0 0 23 15 L 23 13.666016 C 23 12.808831 22.628675 12.037496 22.044922 11.488281 C 22.261742 11.141824 22.390625 10.746285 22.390625 10.333984 C 22.390625 9.146394 21.378827 8.0605469 20 8.0605469 z M 20 9.9394531 C 20.093931 9.9394531 20.277344 10.048817 20.277344 10.333984 C 20.277344 10.537682 20.187126 10.627398 20.099609 10.675781 C 20.066011 10.674669 20.033744 10.666016 20 10.666016 C 19.966631 10.666016 19.935465 10.674675 19.902344 10.675781 C 19.814359 10.627914 19.722656 10.538946 19.722656 10.333984 C 19.722656 10.048817 19.906069 9.9394531 20 9.9394531 z M 20 12.666016 C 20.063008 12.666016 20.122139 12.673119 20.179688 12.683594 C 20.643374 12.768025 21 13.166157 21 13.666016 L 21 14 L 19 14 L 19 13.666016 C 19 13.103602 19.437586 12.666016 20 12.666016 z "
       transform="matrix(3.000003,0,0,3.3750034,-48.000048,-28.375037)"
       id="ellipse6419" /></g><g
     transform="matrix(0.25,0,-6.16298e-33,0.25,17,10.6667)"
     id="g6421" /><g
     transform="matrix(0.333333,9.07146e-18,9.07146e-18,0.296296,-1.77636e-15,8.40741)"
     id="g6425"><path
       style="color:#000000;font-style:normal;font-variant:normal;font-weight:normal;font-stretch:normal;font-size:medium;line-height:normal;font-family:sans-serif;text-indent:0;text-align:start;text-decoration:none;text-decoration-line:none;text-decoration-style:solid;text-decoration-color:#000000;letter-spacing:normal;word-spacing:normal;text-transform:none;direction:ltr;block-progression:tb;writing-mode:lr-tb;baseline-shift:baseline;text-anchor:start;white-space:normal;clip-rule:nonzero;display:inline;overflow:visible;visibility:visible;opacity:1;isolation:auto;mix-blend-mode:normal;color-interpolation:sRGB;color-interpolation-filters:linearRGB;solid-color:#000000;solid-opacity:1;fill:#000000;fill-opacity:1;fill-rule:nonzero;stroke:none;stroke-width:6.34000015px;stroke-linecap:butt;stroke-linejoin:miter;stroke-miterlimit:1.41420996;stroke-dasharray:none;stroke-dashoffset:0;stroke-opacity:1;color-rendering:auto;image-rendering:auto;shape-rendering:auto;text-rendering:auto;enable-background:accumulate"
       d="M 4 8.0605469 C 2.6211735 8.0605469 1.609375 9.146394 1.609375 10.333984 C 1.609375 10.746862 1.7376881 11.143442 1.9550781 11.490234 C 1.3717623 12.039069 1 12.810327 1 13.666016 L 1 15 A 1.0001 1.0001 0 0 0 2 16 L 6 16 A 1.0001 1.0001 0 0 0 7 15 L 7 13.666016 C 7 12.808831 6.6286755 12.037496 6.0449219 11.488281 C 6.2617425 11.141824 6.390625 10.746285 6.390625 10.333984 C 6.390625 9.146394 5.3788266 8.0605469 4 8.0605469 z M 4 9.9394531 C 4.0939312 9.9394531 4.2773438 10.048817 4.2773438 10.333984 C 4.2773438 10.537682 4.1871263 10.627398 4.0996094 10.675781 C 4.0660112 10.674669 4.0337439 10.666016 4 10.666016 C 3.9666309 10.666016 3.9354651 10.674675 3.9023438 10.675781 C 3.8143591 10.627914 3.7226562 10.538946 3.7226562 10.333984 C 3.7226562 10.048817 3.9060688 9.9394531 4 9.9394531 z M 4 12.666016 C 4.063008 12.666016 4.1221387 12.673119 4.1796875 12.683594 C 4.643374 12.768025 5 13.166157 5 13.666016 L 5 14 L 3 14 L 3 13.666016 C 3 13.103602 3.4375864 12.666016 4 12.666016 z "
       transform="matrix(3.000003,0,0,3.3750034,0,-28.375037)"
       id="ellipse6427" /></g><g
     transform="matrix(0.25,0,-6.16298e-33,0.25,1,10.6667)"
     id="g6429" /></svg>