<?xml version="1.0" encoding="UTF-8" standalone="no"?>
<svg
   xmlns:dc="http://purl.org/dc/elements/1.1/"
   xmlns:cc="http://creativecommons.org/ns#"
   xmlns:rdf="http://www.w3.org/1999/02/22-rdf-syntax-ns#"
   xmlns:svg="http://www.w3.org/2000/svg"
   xmlns="http://www.w3.org/2000/svg"
   xmlns:sodipodi="http://sodipodi.sourceforge.net/DTD/sodipodi-0.dtd"
   xmlns:inkscape="http://www.inkscape.org/namespaces/inkscape"
   width="100%"
   height="100%"
   viewBox="0 0 24 24"
   version="1.1"
   xml:space="preserve"
   style="fill-rule:evenodd;clip-rule:evenodd;stroke-linecap:round;stroke-linejoin:round;stroke-miterlimit:1.41421;"
   id="svg6546"
   inkscape:version="0.91 r13725"
   sodipodi:docname="phone.svg"><metadata
     id="metadata6600"><rdf:RDF><cc:Work
         rdf:about=""><dc:format>image/svg+xml</dc:format><dc:type
           rdf:resource="http://purl.org/dc/dcmitype/StillImage" /></cc:Work></rdf:RDF></metadata><defs
     id="defs6598" /><sodipodi:namedview
     pagecolor="#ffffff"
     bordercolor="#666666"
     borderopacity="1"
     objecttolerance="10"
     gridtolerance="10"
     guidetolerance="10"
     inkscape:pageopacity="0"
     inkscape:pageshadow="2"
     inkscape:window-width="640"
     inkscape:window-height="480"
     id="namedview6596"
     showgrid="false"
     inkscape:zoom="19"
     inkscape:cx="12"
     inkscape:cy="12"
     inkscape:current-layer="svg6546" /><g
     transform="matrix(1,0,0,1,-1,1)"
     id="g6548"><path
       style="color:#000000;font-style:normal;font-variant:normal;font-weight:normal;font-stretch:normal;font-size:medium;line-height:normal;font-family:sans-serif;text-indent:0;text-align:start;text-decoration:none;text-decoration-line:none;text-decoration-style:solid;text-decoration-color:#000000;letter-spacing:normal;word-spacing:normal;text-transform:none;direction:ltr;block-progression:tb;writing-mode:lr-tb;baseline-shift:baseline;text-anchor:start;white-space:normal;clip-rule:nonzero;display:inline;overflow:visible;visibility:visible;opacity:1;isolation:auto;mix-blend-mode:normal;color-interpolation:sRGB;color-interpolation-filters:linearRGB;solid-color:#000000;solid-opacity:1;fill:#000000;fill-opacity:1;fill-rule:nonzero;stroke:none;stroke-width:2px;stroke-linecap:butt;stroke-linejoin:miter;stroke-miterlimit:1.41420996;stroke-dasharray:none;stroke-dashoffset:0;stroke-opacity:1;color-rendering:auto;image-rendering:auto;shape-rendering:auto;text-rendering:auto;enable-background:accumulate"
       d="M 3 2 A 1.0001 1.0001 0 0 0 2 3 L 2 22 A 1.0001 1.0001 0 0 0 3 23 L 9 23 A 1.0001 1.0001 0 0 0 9.9980469 22.039062 L 21 22.039062 A 0.96009608 1.040104 0 0 0 21.958984 21 L 21.958984 6 A 0.96009608 1.040104 0 0 0 21 4.9609375 L 10 4.9609375 L 10 3 A 1.0001 1.0001 0 0 0 9 2 L 3 2 z M 4 4 L 8 4 L 8 21 L 4 21 L 4 4 z M 10 7.0390625 L 20.041016 7.0390625 L 20.041016 19.960938 L 10 19.960938 L 10 7.0390625 z "
       transform="translate(1,-1)"
       id="rect6550" /></g><g
     transform="matrix(0.923077,0,0,1,0.692308,0)"
     id="g6552" /><g
     transform="matrix(1,0,0,1,0,-3)"
     id="g6556"><circle
       cx="12"
       cy="18"
       r="1"
       style="fill:rgb(3,18,4);"
       id="circle6558" /></g><g
     transform="matrix(1,0,0,1,3,0)"
     id="g6560"><circle
       cx="12"
       cy="18"
       r="1"
       style="fill:rgb(3,18,4);"
       id="circle6562" /></g><g
     transform="matrix(1,0,0,1,6,-3)"
     id="g6564"><circle
       cx="12"
       cy="18"
       r="1"
       style="fill:rgb(3,18,4);"
       id="circle6566" /></g><g
     transform="matrix(1,0,0,1,3,-3)"
     id="g6568"><circle
       cx="12"
       cy="18"
       r="1"
       style="fill:rgb(3,18,4);"
       id="circle6570" /></g><g
     transform="matrix(1,0,0,1,0,-6)"
     id="g6572"><circle
       cx="12"
       cy="18"
       r="1"
       style="fill:rgb(3,18,4);"
       id="circle6574" /></g><g
     transform="matrix(1,0,0,1,6,-6)"
     id="g6576"><circle
       cx="12"
       cy="18"
       r="1"
       style="fill:rgb(3,18,4);"
       id="circle6578" /></g><g
     transform="matrix(1,0,0,1,3,-6)"
     id="g6580"><circle
       cx="12"
       cy="18"
       r="1"
       style="fill:rgb(3,18,4);"
       id="circle6582" /></g><g
     transform="matrix(1,0,0,1,0,-9)"
     id="g6584"><circle
       cx="12"
       cy="18"
       r="1"
       style="fill:rgb(3,18,4);"
       id="circle6586" /></g><g
     transform="matrix(1,0,0,1,6,-9)"
     id="g6588"><circle
       cx="12"
       cy="18"
       r="1"
       style="fill:rgb(3,18,4);"
       id="circle6590" /></g><g
     transform="matrix(1,0,0,1,3,-9)"
     id="g6592"><circle
       cx="12"
       cy="18"
       r="1"
       style="fill:rgb(3,18,4);"
       id="circle6594" /></g></svg>