<?xml version="1.0" encoding="UTF-8" standalone="no"?>
<svg
   xmlns:dc="http://purl.org/dc/elements/1.1/"
   xmlns:cc="http://creativecommons.org/ns#"
   xmlns:rdf="http://www.w3.org/1999/02/22-rdf-syntax-ns#"
   xmlns:svg="http://www.w3.org/2000/svg"
   xmlns="http://www.w3.org/2000/svg"
   xmlns:sodipodi="http://sodipodi.sourceforge.net/DTD/sodipodi-0.dtd"
   xmlns:inkscape="http://www.inkscape.org/namespaces/inkscape"
   width="100%"
   height="100%"
   viewBox="0 0 24 24"
   version="1.1"
   xml:space="preserve"
   style="fill-rule:evenodd;clip-rule:evenodd;stroke-linecap:round;stroke-linejoin:round;stroke-miterlimit:1.41421;"
   id="svg6659"
   inkscape:version="0.91 r13725"
   sodipodi:docname="pill.svg"><metadata
     id="metadata6673"><rdf:RDF><cc:Work
         rdf:about=""><dc:format>image/svg+xml</dc:format><dc:type
           rdf:resource="http://purl.org/dc/dcmitype/StillImage" /></cc:Work></rdf:RDF></metadata><defs
     id="defs6671" /><sodipodi:namedview
     pagecolor="#ffffff"
     bordercolor="#666666"
     borderopacity="1"
     objecttolerance="10"
     gridtolerance="10"
     guidetolerance="10"
     inkscape:pageopacity="0"
     inkscape:pageshadow="2"
     inkscape:window-width="640"
     inkscape:window-height="480"
     id="namedview6669"
     showgrid="false"
     inkscape:zoom="19"
     inkscape:cx="12"
     inkscape:cy="12"
     inkscape:current-layer="svg6659" /><g
     transform="matrix(0.707107,-0.707107,0.707107,0.707107,-5.01196,11.9586)"
     id="g6661"><path
       style="color:#000000;font-style:normal;font-variant:normal;font-weight:normal;font-stretch:normal;font-size:medium;line-height:normal;font-family:sans-serif;text-indent:0;text-align:start;text-decoration:none;text-decoration-line:none;text-decoration-style:solid;text-decoration-color:#000000;letter-spacing:normal;word-spacing:normal;text-transform:none;direction:ltr;block-progression:tb;writing-mode:lr-tb;baseline-shift:baseline;text-anchor:start;white-space:normal;clip-rule:nonzero;display:inline;overflow:visible;visibility:visible;opacity:1;isolation:auto;mix-blend-mode:normal;color-interpolation:sRGB;color-interpolation-filters:linearRGB;solid-color:#000000;solid-opacity:1;fill:#000000;fill-opacity:1;fill-rule:nonzero;stroke:none;stroke-width:2px;stroke-linecap:butt;stroke-linejoin:miter;stroke-miterlimit:1.41420996;stroke-dasharray:none;stroke-dashoffset:0;stroke-opacity:1;color-rendering:auto;image-rendering:auto;shape-rendering:auto;text-rendering:auto;enable-background:accumulate"
       d="M 7.7167969 2.7226562 C 6.4349998 2.7226562 5.1516283 3.2077467 4.1796875 4.1796875 C 2.235806 6.123569 2.235806 9.3080716 4.1796875 11.251953 L 8.4238281 15.494141 L 12.748047 19.820312 C 14.691928 21.764194 17.876431 21.764194 19.820312 19.820312 C 21.764194 17.876431 21.764194 14.691928 19.820312 12.748047 L 15.511719 8.4101562 A 1.0001003 1.0001003 0 0 0 15.505859 8.4042969 L 11.251953 4.1796875 C 10.280012 3.2077467 8.998594 2.7226563 7.7167969 2.7226562 z M 7.7167969 4.7109375 C 8.4827817 4.7109375 9.2485391 5.0043985 9.8378906 5.59375 A 1.0001003 1.0001003 0 0 0 9.8398438 5.5976562 L 13.384766 9.1171875 L 9.1308594 13.373047 L 5.59375 9.8378906 C 4.415047 8.6591877 4.4150472 6.7724528 5.59375 5.59375 C 6.1831014 5.0043986 6.9508121 4.7109375 7.7167969 4.7109375 z M 14.798828 10.533203 L 18.402344 14.160156 A 1.0001003 1.0001003 0 0 0 18.40625 14.162109 C 19.584953 15.340812 19.584953 17.227547 18.40625 18.40625 C 17.227547 19.584953 15.340812 19.584953 14.162109 18.40625 L 10.544922 14.787109 L 14.798828 10.533203 z "
       transform="matrix(0.70710656,0.70710656,-0.70710656,0.70710656,11.999994,-4.9120147)"
       id="path6663" /></g><g
     transform="matrix(0.707107,-0.707107,-0.707107,-0.707107,12.0414,29.012)"
     id="g6665" /></svg>