<?xml version="1.0" encoding="UTF-8" standalone="no"?>
<svg
   xmlns:dc="http://purl.org/dc/elements/1.1/"
   xmlns:cc="http://creativecommons.org/ns#"
   xmlns:rdf="http://www.w3.org/1999/02/22-rdf-syntax-ns#"
   xmlns:svg="http://www.w3.org/2000/svg"
   xmlns="http://www.w3.org/2000/svg"
   xmlns:sodipodi="http://sodipodi.sourceforge.net/DTD/sodipodi-0.dtd"
   xmlns:inkscape="http://www.inkscape.org/namespaces/inkscape"
   width="100%"
   height="100%"
   viewBox="0 0 24 24"
   version="1.1"
   xml:space="preserve"
   style="fill-rule:evenodd;clip-rule:evenodd;stroke-linecap:round;stroke-linejoin:round;stroke-miterlimit:1.41421;"
   id="svg8329"
   inkscape:version="0.91 r13725"
   sodipodi:docname="rocket.svg"><metadata
     id="metadata8347"><rdf:RDF><cc:Work
         rdf:about=""><dc:format>image/svg+xml</dc:format><dc:type
           rdf:resource="http://purl.org/dc/dcmitype/StillImage" /></cc:Work></rdf:RDF></metadata><defs
     id="defs8345" /><sodipodi:namedview
     pagecolor="#ffffff"
     bordercolor="#666666"
     borderopacity="1"
     objecttolerance="10"
     gridtolerance="10"
     guidetolerance="10"
     inkscape:pageopacity="0"
     inkscape:pageshadow="2"
     inkscape:window-width="640"
     inkscape:window-height="480"
     id="namedview8343"
     showgrid="false"
     inkscape:zoom="19"
     inkscape:cx="12"
     inkscape:cy="12"
     inkscape:current-layer="svg8329" /><path
     style="color:#000000;font-style:normal;font-variant:normal;font-weight:normal;font-stretch:normal;font-size:medium;line-height:normal;font-family:sans-serif;text-indent:0;text-align:start;text-decoration:none;text-decoration-line:none;text-decoration-style:solid;text-decoration-color:#000000;letter-spacing:normal;word-spacing:normal;text-transform:none;direction:ltr;block-progression:tb;writing-mode:lr-tb;baseline-shift:baseline;text-anchor:start;white-space:normal;clip-rule:nonzero;display:inline;overflow:visible;visibility:visible;opacity:1;isolation:auto;mix-blend-mode:normal;color-interpolation:sRGB;color-interpolation-filters:linearRGB;solid-color:#000000;solid-opacity:1;fill:#000000;fill-opacity:1;fill-rule:nonzero;stroke:none;stroke-width:2px;stroke-linecap:butt;stroke-linejoin:miter;stroke-miterlimit:1.41420996;stroke-dasharray:none;stroke-dashoffset:0;stroke-opacity:1;color-rendering:auto;image-rendering:auto;shape-rendering:auto;text-rendering:auto;enable-background:accumulate"
     d="M 11.966797 1 A 1.0001 1.0001 0 0 0 11.177734 1.4316406 C 9.0086336 4.575255 7.8637581 8.3876753 7.3496094 12.140625 C 6.5210852 12.373004 5.8187164 12.761494 5.3085938 13.322266 C 4.7051618 13.98561 4.3869247 14.81497 4.2148438 15.695312 C 3.8706817 17.456003 4.0285105 19.535395 4 21.988281 C 3.99497 23.311225 5.9740268 23.334418 6 22.011719 C 6.00833 21.286305 6.3158606 20.151795 6.7832031 19.298828 C 7.2483884 18.449798 7.8522104 18.016159 8.0566406 18 L 15.9375 18 C 16.14193 18.016159 16.745752 18.449798 17.210938 19.298828 C 17.67828 20.151795 17.985811 21.286305 17.994141 22.011719 C 18.020114 23.334418 19.999171 23.311225 19.994141 21.988281 C 19.96563 19.535395 20.123459 17.456004 19.779297 15.695312 C 19.607216 14.814971 19.288979 13.98561 18.685547 13.322266 C 18.182252 12.769 17.493545 12.3821 16.679688 12.148438 C 16.174511 8.4119298 15.012063 4.6030712 12.822266 1.4316406 A 1.0001 1.0001 0 0 0 11.966797 1 z M 12.001953 4.0898438 C 13.978564 7.6795231 14.796613 11.997233 14.888672 16 L 9.1171875 16 C 9.2478322 11.965217 10.061283 7.6405305 12.001953 4.0898438 z M 7.1113281 14.396484 C 7.0662864 15.017241 7.0379423 15.628846 7.0234375 16.234375 C 6.702681 16.380135 6.414772 16.58166 6.15625 16.824219 C 6.178038 16.635511 6.1453894 16.245553 6.1777344 16.080078 C 6.3066534 15.420546 6.5077443 14.979171 6.7890625 14.669922 C 6.8800285 14.569924 6.9897095 14.480687 7.1113281 14.396484 z M 16.910156 14.414062 C 17.020605 14.49336 17.120592 14.577048 17.205078 14.669922 C 17.486396 14.979171 17.687487 15.420546 17.816406 16.080078 C 17.848751 16.245553 17.816103 16.635511 17.837891 16.824219 C 17.582967 16.585036 17.299706 16.385614 16.984375 16.240234 C 16.975654 15.638738 16.951313 15.031304 16.910156 14.414062 z "
     id="path8331" /><g
     transform="matrix(1,0,0,1,0,1)"
     id="g8333" /><g
     transform="matrix(-1,0,0,1,23.9946,1)"
     id="g8337" /><path
     style="color:#000000;font-style:normal;font-variant:normal;font-weight:normal;font-stretch:normal;font-size:medium;line-height:normal;font-family:sans-serif;text-indent:0;text-align:start;text-decoration:none;text-decoration-line:none;text-decoration-style:solid;text-decoration-color:#000000;letter-spacing:normal;word-spacing:normal;text-transform:none;direction:ltr;block-progression:tb;writing-mode:lr-tb;baseline-shift:baseline;text-anchor:start;white-space:normal;clip-rule:nonzero;display:inline;overflow:visible;visibility:visible;opacity:1;isolation:auto;mix-blend-mode:normal;color-interpolation:sRGB;color-interpolation-filters:linearRGB;solid-color:#000000;solid-opacity:1;fill:#000000;fill-opacity:1;fill-rule:nonzero;stroke:none;stroke-width:2px;stroke-linecap:butt;stroke-linejoin:miter;stroke-miterlimit:1.41420996;stroke-dasharray:none;stroke-dashoffset:0;stroke-opacity:1;color-rendering:auto;image-rendering:auto;shape-rendering:auto;text-rendering:auto;enable-background:accumulate"
     d="m 11,19 a 1.0001,1.0001 0 1 0 0,2 l 2,0 a 1.0001,1.0001 0 1 0 0,-2 l -2,0 z"
     id="path8341"
     inkscape:connector-curvature="0" /></svg>