<?xml version="1.0" encoding="UTF-8" standalone="no"?>
<svg
   xmlns:dc="http://purl.org/dc/elements/1.1/"
   xmlns:cc="http://creativecommons.org/ns#"
   xmlns:rdf="http://www.w3.org/1999/02/22-rdf-syntax-ns#"
   xmlns:svg="http://www.w3.org/2000/svg"
   xmlns="http://www.w3.org/2000/svg"
   xmlns:sodipodi="http://sodipodi.sourceforge.net/DTD/sodipodi-0.dtd"
   xmlns:inkscape="http://www.inkscape.org/namespaces/inkscape"
   width="100%"
   height="100%"
   viewBox="0 0 24 24"
   version="1.1"
   xml:space="preserve"
   style="fill-rule:evenodd;clip-rule:evenodd;stroke-linecap:round;stroke-linejoin:round;stroke-miterlimit:1.41421;"
   id="svg8569"
   inkscape:version="0.91 r13725"
   sodipodi:docname="share.svg"><metadata
     id="metadata8593"><rdf:RDF><cc:Work
         rdf:about=""><dc:format>image/svg+xml</dc:format><dc:type
           rdf:resource="http://purl.org/dc/dcmitype/StillImage" /></cc:Work></rdf:RDF></metadata><defs
     id="defs8591" /><sodipodi:namedview
     pagecolor="#ffffff"
     bordercolor="#666666"
     borderopacity="1"
     objecttolerance="10"
     gridtolerance="10"
     guidetolerance="10"
     inkscape:pageopacity="0"
     inkscape:pageshadow="2"
     inkscape:window-width="640"
     inkscape:window-height="480"
     id="namedview8589"
     showgrid="false"
     inkscape:zoom="19"
     inkscape:cx="12"
     inkscape:cy="12"
     inkscape:current-layer="svg8569" /><g
     transform="matrix(1,0,0,1,-1,1)"
     id="g8571"><path
       style="color:#000000;font-style:normal;font-variant:normal;font-weight:normal;font-stretch:normal;font-size:medium;line-height:normal;font-family:sans-serif;text-indent:0;text-align:start;text-decoration:none;text-decoration-line:none;text-decoration-style:solid;text-decoration-color:#000000;letter-spacing:normal;word-spacing:normal;text-transform:none;direction:ltr;block-progression:tb;writing-mode:lr-tb;baseline-shift:baseline;text-anchor:start;white-space:normal;clip-rule:nonzero;display:inline;overflow:visible;visibility:visible;opacity:1;isolation:auto;mix-blend-mode:normal;color-interpolation:sRGB;color-interpolation-filters:linearRGB;solid-color:#000000;solid-opacity:1;fill:#000000;fill-opacity:1;fill-rule:nonzero;stroke:none;stroke-width:2px;stroke-linecap:butt;stroke-linejoin:miter;stroke-miterlimit:1.41420996;stroke-dasharray:none;stroke-dashoffset:0;stroke-opacity:1;color-rendering:auto;image-rendering:auto;shape-rendering:auto;text-rendering:auto;enable-background:accumulate"
       d="M 19 2 C 17.35499 2 16 3.3549904 16 5 C 16 5.1241954 16.022121 5.2428503 16.037109 5.3632812 L 7.0722656 9.8457031 C 6.5315962 9.3252683 5.8017465 9 5 9 C 3.35499 9 2 10.35499 2 12 C 2 13.64501 3.35499 15 5 15 C 5.8017465 15 6.5315962 14.674732 7.0722656 14.154297 L 16.037109 18.636719 C 16.022121 18.75715 16 18.875805 16 19 C 16 20.64501 17.35499 22 19 22 C 20.64501 22 22 20.64501 22 19 C 22 17.35499 20.64501 16 19 16 C 18.198254 16 17.468404 16.325268 16.927734 16.845703 L 7.9628906 12.363281 C 7.9778792 12.24285 8 12.124195 8 12 C 8 11.875805 7.9778792 11.75715 7.9628906 11.636719 L 16.927734 7.1542969 C 17.468404 7.6747317 18.198254 8 19 8 C 20.64501 8 22 6.6450096 22 5 C 22 3.3549904 20.64501 2 19 2 z M 19 4 C 19.564129 4 20 4.4358706 20 5 C 20 5.5641294 19.564129 6 19 6 C 18.435871 6 18 5.5641294 18 5 C 18 4.4358706 18.435871 4 19 4 z M 5 11 C 5.564129 11 6 11.435871 6 12 C 6 12.564129 5.564129 13 5 13 C 4.435871 13 4 12.564129 4 12 C 4 11.435871 4.435871 11 5 11 z M 19 18 C 19.564129 18 20 18.435871 20 19 C 20 19.564129 19.564129 20 19 20 C 18.435871 20 18 19.564129 18 19 C 18 18.435871 18.435871 18 19 18 z "
       transform="translate(1,-1)"
       id="circle8573" /></g><g
     transform="matrix(1,0,0,1,-15,8)"
     id="g8575" /><g
     transform="matrix(1,0,0,1,-1,15)"
     id="g8579" /><g
     transform="matrix(1,0,0,-1,0,24)"
     id="g8585" /></svg>