<?xml version="1.0" encoding="UTF-8" standalone="no"?>
<svg
   xmlns:dc="http://purl.org/dc/elements/1.1/"
   xmlns:cc="http://creativecommons.org/ns#"
   xmlns:rdf="http://www.w3.org/1999/02/22-rdf-syntax-ns#"
   xmlns:svg="http://www.w3.org/2000/svg"
   xmlns="http://www.w3.org/2000/svg"
   xmlns:sodipodi="http://sodipodi.sourceforge.net/DTD/sodipodi-0.dtd"
   xmlns:inkscape="http://www.inkscape.org/namespaces/inkscape"
   width="100%"
   height="100%"
   viewBox="0 0 24 24"
   version="1.1"
   xml:space="preserve"
   style="fill-rule:evenodd;clip-rule:evenodd;stroke-linecap:round;stroke-linejoin:round;stroke-miterlimit:1.41421;"
   id="svg8657"
   inkscape:version="0.91 r13725"
   sodipodi:docname="star.svg"><metadata
     id="metadata8667"><rdf:RDF><cc:Work
         rdf:about=""><dc:format>image/svg+xml</dc:format><dc:type
           rdf:resource="http://purl.org/dc/dcmitype/StillImage" /></cc:Work></rdf:RDF></metadata><defs
     id="defs8665" /><sodipodi:namedview
     pagecolor="#ffffff"
     bordercolor="#666666"
     borderopacity="1"
     objecttolerance="10"
     gridtolerance="10"
     guidetolerance="10"
     inkscape:pageopacity="0"
     inkscape:pageshadow="2"
     inkscape:window-width="640"
     inkscape:window-height="480"
     id="namedview8663"
     showgrid="false"
     inkscape:zoom="19"
     inkscape:cx="12"
     inkscape:cy="12"
     inkscape:current-layer="svg8657" /><g
     transform="matrix(1,0,0,1,0,1)"
     id="g8659"><path
       style="color:#000000;font-style:normal;font-variant:normal;font-weight:normal;font-stretch:normal;font-size:medium;line-height:normal;font-family:sans-serif;text-indent:0;text-align:start;text-decoration:none;text-decoration-line:none;text-decoration-style:solid;text-decoration-color:#000000;letter-spacing:normal;word-spacing:normal;text-transform:none;direction:ltr;block-progression:tb;writing-mode:lr-tb;baseline-shift:baseline;text-anchor:start;white-space:normal;clip-rule:nonzero;display:inline;overflow:visible;visibility:visible;opacity:1;isolation:auto;mix-blend-mode:normal;color-interpolation:sRGB;color-interpolation-filters:linearRGB;solid-color:#000000;solid-opacity:1;fill:#000000;fill-opacity:1;fill-rule:nonzero;stroke:none;stroke-width:2px;stroke-linecap:butt;stroke-linejoin:miter;stroke-miterlimit:1.41420996;stroke-dasharray:none;stroke-dashoffset:0;stroke-opacity:1;color-rendering:auto;image-rendering:auto;shape-rendering:auto;text-rendering:auto;enable-background:accumulate"
       d="m 11.957031,1.0019531 a 1.0001,1.0001 0 0 0 -0.908203,0.6894531 l -2.0195311,6.21875 -6.5410157,0 A 1.0001,1.0001 0 0 0 1.9003906,9.71875 L 7.1914062,13.5625 5.171875,19.78125 a 1.0001,1.0001 0 0 0 1.5371094,1.117188 L 12,17.056641 17.291016,20.898438 A 1.0001,1.0001 0 0 0 18.828125,19.78125 L 16.808594,13.5625 22.099609,9.71875 a 1.0001,1.0001 0 0 0 -0.58789,-1.8085938 l -6.541016,0 -2.019531,-6.21875 A 1.0001,1.0001 0 0 0 11.957031,1.0019531 Z M 12,5.2382812 13.292969,9.21875 a 1.0001,1.0001 0 0 0 0.951172,0.6914062 l 4.189453,0 -3.388672,2.4609378 a 1.0001,1.0001 0 0 0 -0.363281,1.117187 l 1.294921,3.986328 -3.388671,-2.46289 a 1.0001,1.0001 0 0 0 -1.175782,0 l -3.3886715,2.46289 1.2949219,-3.986328 A 1.0001,1.0001 0 0 0 8.9550781,12.371094 l -3.3886719,-2.4609378 4.1894532,0 A 1.0001,1.0001 0 0 0 10.707031,9.21875 L 12,5.2382812 Z"
       id="path8661"
       inkscape:connector-curvature="0" /></g></svg>