<?xml version="1.0" encoding="UTF-8" standalone="no"?>
<svg
   xmlns:dc="http://purl.org/dc/elements/1.1/"
   xmlns:cc="http://creativecommons.org/ns#"
   xmlns:rdf="http://www.w3.org/1999/02/22-rdf-syntax-ns#"
   xmlns:svg="http://www.w3.org/2000/svg"
   xmlns="http://www.w3.org/2000/svg"
   xmlns:sodipodi="http://sodipodi.sourceforge.net/DTD/sodipodi-0.dtd"
   xmlns:inkscape="http://www.inkscape.org/namespaces/inkscape"
   width="100%"
   height="100%"
   viewBox="0 0 24 24"
   version="1.1"
   xml:space="preserve"
   style="fill-rule:evenodd;clip-rule:evenodd;stroke-linecap:round;stroke-linejoin:round;stroke-miterlimit:1.41421;"
   id="svg8801"
   inkscape:version="0.91 r13725"
   sodipodi:docname="stethoscope.svg"><metadata
     id="metadata8831"><rdf:RDF><cc:Work
         rdf:about=""><dc:format>image/svg+xml</dc:format><dc:type
           rdf:resource="http://purl.org/dc/dcmitype/StillImage" /></cc:Work></rdf:RDF></metadata><defs
     id="defs8829" /><sodipodi:namedview
     pagecolor="#ffffff"
     bordercolor="#666666"
     borderopacity="1"
     objecttolerance="10"
     gridtolerance="10"
     guidetolerance="10"
     inkscape:pageopacity="0"
     inkscape:pageshadow="2"
     inkscape:window-width="640"
     inkscape:window-height="480"
     id="namedview8827"
     showgrid="false"
     inkscape:zoom="19"
     inkscape:cx="12"
     inkscape:cy="12"
     inkscape:current-layer="svg8801" /><g
     transform="matrix(-1,0,0,1,21,-1)"
     id="g8803"><path
       style="color:#000000;font-style:normal;font-variant:normal;font-weight:normal;font-stretch:normal;font-size:medium;line-height:normal;font-family:sans-serif;text-indent:0;text-align:start;text-decoration:none;text-decoration-line:none;text-decoration-style:solid;text-decoration-color:#000000;letter-spacing:normal;word-spacing:normal;text-transform:none;direction:ltr;block-progression:tb;writing-mode:lr-tb;baseline-shift:baseline;text-anchor:start;white-space:normal;clip-rule:nonzero;display:inline;overflow:visible;visibility:visible;opacity:1;isolation:auto;mix-blend-mode:normal;color-interpolation:sRGB;color-interpolation-filters:linearRGB;solid-color:#000000;solid-opacity:1;fill:#000000;fill-opacity:1;fill-rule:nonzero;stroke:none;stroke-width:2px;stroke-linecap:butt;stroke-linejoin:miter;stroke-miterlimit:1.41420996;stroke-dasharray:none;stroke-dashoffset:0;stroke-opacity:1;color-rendering:auto;image-rendering:auto;shape-rendering:auto;text-rendering:auto;enable-background:accumulate"
       d="m 15.001953,2.9980469 a 1.0001,1.0001 0 1 0 -0.0039,2 l 1,0.00195 a 1.0001,1.0001 0 0 0 0.0293,0 c 0.437169,-0.01232 0.589638,0.073973 0.697265,0.1816406 C 16.83152,5.2885909 16.963047,5.5342448 17,6.0605469 l 0,6.7148441 C 16.462841,14.357982 15.457462,15.369911 13.761719,16 L 12,16 a 1.0001,1.0001 0 1 0 0,2 l 2,0 a 1.0001,1.0001 0 0 0 0.333984,-0.05664 c 2.274413,-0.806473 3.903986,-2.425452 4.617188,-4.636718 A 1.0001,1.0001 0 0 0 19,13 l 0,-7 a 1.0001,1.0001 0 0 0 -0.002,-0.066406 C 18.941937,5.0992641 18.697545,4.3266608 18.138672,3.7675781 17.579799,3.2084955 16.777487,2.9773196 15.972656,3 l -0.970703,-0.00195 z"
       id="path8805"
       inkscape:connector-curvature="0" /></g><g
     transform="matrix(1,0,0,1,-5,-1)"
     id="g8807"><path
       style="color:#000000;font-style:normal;font-variant:normal;font-weight:normal;font-stretch:normal;font-size:medium;line-height:normal;font-family:sans-serif;text-indent:0;text-align:start;text-decoration:none;text-decoration-line:none;text-decoration-style:solid;text-decoration-color:#000000;letter-spacing:normal;word-spacing:normal;text-transform:none;direction:ltr;block-progression:tb;writing-mode:lr-tb;baseline-shift:baseline;text-anchor:start;white-space:normal;clip-rule:nonzero;display:inline;overflow:visible;visibility:visible;opacity:1;isolation:auto;mix-blend-mode:normal;color-interpolation:sRGB;color-interpolation-filters:linearRGB;solid-color:#000000;solid-opacity:1;fill:#000000;fill-opacity:1;fill-rule:nonzero;stroke:none;stroke-width:2px;stroke-linecap:butt;stroke-linejoin:miter;stroke-miterlimit:1.41420996;stroke-dasharray:none;stroke-dashoffset:0;stroke-opacity:1;color-rendering:auto;image-rendering:auto;shape-rendering:auto;text-rendering:auto;enable-background:accumulate"
       d="m 15,3 a 1.0001,1.0001 0 1 0 0,2 l 1,0 a 1.0001,1.0001 0 0 0 0.02734,0 c 0.437169,-0.01232 0.589638,0.073973 0.697265,0.1816406 C 16.83152,5.2885909 16.963047,5.5342448 17,6.0605469 l 0,6.7148441 C 16.462841,14.357982 15.457462,15.369911 13.761719,16 L 12,16 a 1.0001,1.0001 0 1 0 0,2 l 2,0 a 1.0001,1.0001 0 0 0 0.333984,-0.05664 c 2.274413,-0.806473 3.903986,-2.425452 4.617188,-4.636718 A 1.0001,1.0001 0 0 0 19,13 l 0,-7 a 1.0001,1.0001 0 0 0 -0.002,-0.066406 C 18.941937,5.0992641 18.697545,4.3266608 18.138672,3.7675781 17.579799,3.2084955 16.777487,2.9773196 15.972656,3 L 15,3 Z"
       id="path8809"
       inkscape:connector-curvature="0" /></g><g
     transform="matrix(-1.3265,0,0,1.33333,24.959,-11.3333)"
     id="g8811"><path
       style="color:#000000;font-style:normal;font-variant:normal;font-weight:normal;font-stretch:normal;font-size:medium;line-height:normal;font-family:sans-serif;text-indent:0;text-align:start;text-decoration:none;text-decoration-line:none;text-decoration-style:solid;text-decoration-color:#000000;letter-spacing:normal;word-spacing:normal;text-transform:none;direction:ltr;block-progression:tb;writing-mode:lr-tb;baseline-shift:baseline;text-anchor:start;white-space:normal;clip-rule:nonzero;display:inline;overflow:visible;visibility:visible;opacity:1;isolation:auto;mix-blend-mode:normal;color-interpolation:sRGB;color-interpolation-filters:linearRGB;solid-color:#000000;solid-opacity:1;fill:#000000;fill-opacity:1;fill-rule:nonzero;stroke:none;stroke-width:1.5px;stroke-linecap:butt;stroke-linejoin:miter;stroke-miterlimit:1.41420996;stroke-dasharray:none;stroke-dashoffset:0;stroke-opacity:1;color-rendering:auto;image-rendering:auto;shape-rendering:auto;text-rendering:auto;enable-background:accumulate"
       d="m 4.4921875,15.25 c -1.2360252,0 -2.2578125,1.014081 -2.2578125,2.25 0,1.235919 1.0217873,2.25 2.2578125,2.25 C 5.7282127,19.75 6.75,18.735919 6.75,17.5 6.75,16.264081 5.7282127,15.25 4.4921875,15.25 Z m 0,1.5 C 4.9218531,16.75 5.25,17.079065 5.25,17.5 c 0,0.420935 -0.3281469,0.75 -0.7578125,0.75 -0.4296656,0 -0.7578125,-0.329065 -0.7578125,-0.75 0,-0.420935 0.3281469,-0.75 0.7578125,-0.75 z"
       id="ellipse8813"
       inkscape:connector-curvature="0" /></g><g
     transform="matrix(-2,0,0,2,32,-6)"
     id="g8815"><path
       style="color:#000000;font-style:normal;font-variant:normal;font-weight:normal;font-stretch:normal;font-size:medium;line-height:normal;font-family:sans-serif;text-indent:0;text-align:start;text-decoration:none;text-decoration-line:none;text-decoration-style:solid;text-decoration-color:#000000;letter-spacing:normal;word-spacing:normal;text-transform:none;direction:ltr;block-progression:tb;writing-mode:lr-tb;baseline-shift:baseline;text-anchor:start;white-space:normal;clip-rule:nonzero;display:inline;overflow:visible;visibility:visible;opacity:1;isolation:auto;mix-blend-mode:normal;color-interpolation:sRGB;color-interpolation-filters:linearRGB;solid-color:#000000;solid-opacity:1;fill:#000000;fill-opacity:1;fill-rule:nonzero;stroke:none;stroke-width:1px;stroke-linecap:butt;stroke-linejoin:miter;stroke-miterlimit:1.41420996;stroke-dasharray:none;stroke-dashoffset:0;stroke-opacity:1;color-rendering:auto;image-rendering:auto;shape-rendering:auto;text-rendering:auto;enable-background:accumulate"
       d="m 13.5,3.5 c -0.546362,0 -1,0.4536376 -1,1 0,0.5463624 0.453638,1 1,1 0.546362,0 1,-0.4536376 1,-1 0,-0.5463624 -0.453638,-1 -1,-1 z"
       id="circle8817"
       inkscape:connector-curvature="0" /></g><g
     transform="matrix(-2,0,0,2,38,-6)"
     id="g8819"><path
       style="color:#000000;font-style:normal;font-variant:normal;font-weight:normal;font-stretch:normal;font-size:medium;line-height:normal;font-family:sans-serif;text-indent:0;text-align:start;text-decoration:none;text-decoration-line:none;text-decoration-style:solid;text-decoration-color:#000000;letter-spacing:normal;word-spacing:normal;text-transform:none;direction:ltr;block-progression:tb;writing-mode:lr-tb;baseline-shift:baseline;text-anchor:start;white-space:normal;clip-rule:nonzero;display:inline;overflow:visible;visibility:visible;opacity:1;isolation:auto;mix-blend-mode:normal;color-interpolation:sRGB;color-interpolation-filters:linearRGB;solid-color:#000000;solid-opacity:1;fill:#000000;fill-opacity:1;fill-rule:nonzero;stroke:none;stroke-width:1px;stroke-linecap:butt;stroke-linejoin:miter;stroke-miterlimit:1.41420996;stroke-dasharray:none;stroke-dashoffset:0;stroke-opacity:1;color-rendering:auto;image-rendering:auto;shape-rendering:auto;text-rendering:auto;enable-background:accumulate"
       d="m 13.5,3.5 c -0.546362,0 -1,0.4536376 -1,1 0,0.5463624 0.453638,1 1,1 0.546362,0 1,-0.4536376 1,-1 0,-0.5463624 -0.453638,-1 -1,-1 z"
       id="circle8821"
       inkscape:connector-curvature="0" /></g><g
     transform="matrix(-1,0,0,1,23,-1)"
     id="g8823"><path
       style="color:#000000;font-style:normal;font-variant:normal;font-weight:normal;font-stretch:normal;font-size:medium;line-height:normal;font-family:sans-serif;text-indent:0;text-align:start;text-decoration:none;text-decoration-line:none;text-decoration-style:solid;text-decoration-color:#000000;letter-spacing:normal;word-spacing:normal;text-transform:none;direction:ltr;block-progression:tb;writing-mode:lr-tb;baseline-shift:baseline;text-anchor:start;white-space:normal;clip-rule:nonzero;display:inline;overflow:visible;visibility:visible;opacity:1;isolation:auto;mix-blend-mode:normal;color-interpolation:sRGB;color-interpolation-filters:linearRGB;solid-color:#000000;solid-opacity:1;fill:#000000;fill-opacity:1;fill-rule:nonzero;stroke:none;stroke-width:2px;stroke-linecap:square;stroke-linejoin:miter;stroke-miterlimit:1.41420996;stroke-dasharray:none;stroke-dashoffset:0;stroke-opacity:1;color-rendering:auto;image-rendering:auto;shape-rendering:auto;text-rendering:auto;enable-background:accumulate"
       d="m 3,15 0,4 0,0.002 c 0.00256,2.150858 1.7006589,4.005959 4,3.998 l 4.972656,0 C 14.139705,23.059886 15.99595,21.2364 16,19.001953 L 16,19 l 0,-2 -2,0 0,1.998047 C 13.99805,20.0736 12.972295,21.026114 12.027344,21 12.01823,20.999875 12.009114,20.999875 12,21 L 7,21 6.99609,21 C 5.6742883,21.005836 5.0022432,20.212599 5,19 l 0,-4 z"
       id="path8825"
       inkscape:connector-curvature="0"
       sodipodi:nodetypes="ccccccccccccccccc" /></g></svg>