<?xml version="1.0" standalone="no"?>
<!DOCTYPE svg PUBLIC "-//W3C//DTD SVG 1.1//EN" "http://www.w3.org/Graphics/SVG/1.1/DTD/svg11.dtd" >
<svg xmlns="http://www.w3.org/2000/svg">
<metadata>Generated by IcoMoon</metadata>
<defs>
<font id="eleven" horiz-adv-x="1024">
<font-face units-per-em="1024" ascent="960" descent="-64" />
<missing-glyph horiz-adv-x="1024" />
<glyph unicode="&#x20;" horiz-adv-x="512" d="" />
<glyph unicode="&#xe900;" glyph-name="ambulance" d="M256 682.667c-0.001 0-0.002 0-0.003 0-16.609 0-31.001-9.489-38.052-23.341l-79.112-158.159-72.583-36.333c-14.095-7.163-23.583-21.555-23.583-38.164 0-0.001 0-0.002 0-0.003v-128c-0.003-0.179-0.004-0.391-0.004-0.603 0-23.567 19.104-42.671 42.671-42.671s42.671 19.104 42.671 42.671c0 0.212-0.002 0.424-0.005 0.635v101.635l61.75 30.833c8.295 4.21 14.874 10.788 18.971 18.841l73.612 147.326h613.667v-256c-0.003-0.179-0.004-0.391-0.004-0.603 0-23.567 19.104-42.671 42.671-42.671s42.671 19.104 42.671 42.671c0 0.212-0.002 0.424-0.005 0.635v298.635c-0.002 23.563-19.103 42.664-42.666 42.667h-682.667zM341.333 810.667c-0.179 0.003-0.391 0.004-0.603 0.004-23.567 0-42.671-19.104-42.671-42.671s19.104-42.671 42.671-42.671c0.212 0 0.424 0.002 0.635 0.005h85.301c0.179-0.003 0.391-0.004 0.603-0.004 23.567 0 42.671 19.104 42.671 42.671s-19.104 42.671-42.671 42.671c-0.212 0-0.424-0.002-0.635-0.005h-85.301zM256 298.667c-70.187 0-128-57.813-128-128s57.813-128 128-128c70.187 0 128 57.813 128 128s-57.813 128-128 128zM256 213.334c24.070 0 42.667-18.597 42.667-42.667s-18.597-42.667-42.667-42.667c-24.070 0-42.667 18.597-42.667 42.667s18.597 42.667 42.667 42.667zM810.667 298.667c-70.187 0-128-57.813-128-128s57.813-128 128-128c70.187 0 128 57.813 128 128s-57.813 128-128 128zM810.667 213.334c24.070 0 42.667-18.597 42.667-42.667s-18.597-42.667-42.667-42.667c-24.070 0-42.667 18.597-42.667 42.667s18.597 42.667 42.667 42.667zM596.667 555.25c-23.278-0.375-42.004-19.334-42.004-42.666 0-0.205 0.001-0.411 0.004-0.615v-170.636c-0.003-0.179-0.004-0.391-0.004-0.603 0-23.567 19.104-42.671 42.671-42.671s42.671 19.104 42.671 42.671c0 0.212-0.002 0.424-0.005 0.635v170.635c0.003 0.174 0.004 0.379 0.004 0.584 0 23.567-19.104 42.671-42.671 42.671-0.234 0-0.468-0.002-0.702-0.006zM512 469.334c-0.179 0.003-0.391 0.004-0.603 0.004-23.567 0-42.671-19.104-42.671-42.671s19.104-42.671 42.671-42.671c0.212 0 0.424 0.002 0.635 0.005h170.635c0.179-0.003 0.391-0.004 0.603-0.004 23.567 0 42.671 19.104 42.671 42.671s-19.104 42.671-42.671 42.671c-0.212 0-0.424-0.002-0.635-0.005h-170.635zM469.333 213.334c-0.179 0.003-0.391 0.004-0.603 0.004-23.567 0-42.671-19.104-42.671-42.671s19.104-42.671 42.671-42.671c0.212 0 0.424 0.002 0.635 0.005h127.968c0.179-0.003 0.391-0.004 0.603-0.004 23.567 0 42.671 19.104 42.671 42.671s-19.104 42.671-42.671 42.671c-0.212 0-0.424-0.002-0.635-0.005h-127.968z" />
<glyph unicode="&#xe901;" glyph-name="arrow-down" d="M511.333 853.917c-23.278-0.375-42.004-19.334-42.004-42.666 0-0.205 0.001-0.411 0.004-0.615v-664.969l-183.167 183.167c-7.778 8.091-18.692 13.118-30.781 13.118-23.567 0-42.671-19.104-42.671-42.671 0-12.089 5.027-23.003 13.104-30.767l252.264-252.263c7.875-10.259 20.142-16.807 33.939-16.807 13.723 0 25.933 6.478 33.739 16.543 0.032 0.029 0.087 0.111 0.142 0.193l252.264 252.321c7.971 7.76 12.916 18.594 12.917 30.583-0.006 23.562-19.108 42.66-42.671 42.66-11.987 0-22.819-4.942-30.57-12.9l-183.176-183.176v665c0.003 0.174 0.004 0.379 0.004 0.584 0 23.567-19.104 42.671-42.671 42.671-0.234 0-0.468-0.002-0.702-0.006z" />
<glyph unicode="&#xe902;" glyph-name="arrow-left" d="M384.417 725.75c-11.989-0.001-22.823-4.946-30.574-12.907l-252.176-252.176c-0.236-0.152-0.318-0.207-0.399-0.262-10.013-7.783-16.491-19.993-16.491-33.716 0-13.797 6.548-26.064 16.705-33.864l252.351-252.325c7.778-8.091 18.692-13.118 30.781-13.118 23.567 0 42.671 19.104 42.671 42.671 0 12.089-5.027 23.003-13.104 30.767l-183.181 183.18h665c0.179-0.003 0.391-0.004 0.603-0.004 23.567 0 42.671 19.104 42.671 42.671s-19.104 42.671-42.671 42.671c-0.212 0-0.424-0.002-0.635-0.005h-664.968l183.167 183.167c7.967 7.76 12.91 18.592 12.91 30.579 0 23.563-19.098 42.665-42.659 42.671z" />
<glyph unicode="&#xe903;" glyph-name="arrow-right" d="M639.583 725.75c-23.562-0.006-42.66-19.108-42.66-42.671 0-11.987 4.942-22.819 12.9-30.57l183.176-183.176h-665c-0.179 0.003-0.391 0.004-0.603 0.004-23.567 0-42.671-19.104-42.671-42.671s19.104-42.671 42.671-42.671c0.212 0 0.424 0.002 0.635 0.005h664.968l-183.167-183.167c-8.092-7.778-13.118-18.692-13.118-30.781 0-23.567 19.104-42.671 42.671-42.671 12.089 0 23.003 5.027 30.767 13.104l252.263 252.264c10.259 7.875 16.807 20.142 16.807 33.939 0 13.723-6.478 25.933-16.543 33.739-0.029 0.032-0.111 0.087-0.193 0.142l-252.321 252.264c-7.76 7.971-18.594 12.916-30.583 12.917z" />
<glyph unicode="&#xe904;" glyph-name="arrow-up" d="M512.667 853.917c-0.185 0.003-0.402 0.005-0.621 0.005-13.811 0-26.089-6.561-33.888-16.736l-252.325-252.352c-8.091-7.778-13.118-18.692-13.118-30.78 0-23.567 19.104-42.671 42.671-42.671 12.088 0 23.003 5.027 30.767 13.104l183.18 183.181v-665c-0.003-0.179-0.004-0.391-0.004-0.603 0-23.567 19.104-42.671 42.671-42.671s42.671 19.104 42.671 42.671c0 0.212-0.002 0.424-0.005 0.635v664.968l183.167-183.167c7.76-7.967 18.592-12.91 30.579-12.91 23.563 0 42.665 19.098 42.671 42.659-0.001 11.99-4.946 22.824-12.907 30.575l-252.343 252.426c-7.744 10.008-19.681 16.449-33.131 16.666z" />
<glyph unicode="&#xe905;" glyph-name="asterisk" d="M511.333 811.25c-23.278-0.375-42.004-19.334-42.004-42.666 0-0.205 0.001-0.411 0.004-0.615v-238.302l-183.167 183.167c-7.76 7.971-18.594 12.916-30.583 12.917-23.562-0.006-42.66-19.108-42.66-42.671 0-11.987 4.942-22.819 12.9-30.57l183.176-183.176h-238.333c-0.179 0.003-0.391 0.004-0.603 0.004-23.567 0-42.671-19.104-42.671-42.671s19.104-42.671 42.671-42.671c0.212 0 0.424 0.002 0.635 0.005h238.301l-183.167-183.167c-8.091-7.778-13.118-18.692-13.118-30.781 0-23.567 19.104-42.671 42.671-42.671 12.089 0 23.003 5.027 30.767 13.104l183.18 183.181v-238.333c-0.003-0.179-0.004-0.391-0.004-0.603 0-23.567 19.104-42.671 42.671-42.671s42.671 19.104 42.671 42.671c0 0.212-0.002 0.424-0.005 0.635v238.301l183.167-183.167c7.778-8.092 18.692-13.118 30.781-13.118 23.567 0 42.671 19.104 42.671 42.671 0 12.089-5.027 23.003-13.104 30.767l-183.181 183.18h238.333c0.179-0.003 0.391-0.004 0.603-0.004 23.567 0 42.671 19.104 42.671 42.671s-19.104 42.671-42.671 42.671c-0.212 0-0.424-0.002-0.635-0.005h-238.301l183.167 183.167c7.979 7.762 12.929 18.602 12.929 30.598 0 23.567-19.104 42.671-42.671 42.671-0.442 0-0.883-0.007-1.322-0.020-11.467-0.353-21.795-5.229-29.259-12.905l-183.176-183.177v238.333c0.003 0.174 0.004 0.379 0.004 0.584 0 23.567-19.104 42.671-42.671 42.671-0.234 0-0.468-0.002-0.702-0.006z" />
<glyph unicode="&#xe906;" glyph-name="baby" d="M512 850.667c-121.624 0-215.667-97.189-215.667-210.667 0-72.41 38.519-137.874 97.833-176-32.376-31.116-52.833-74.578-52.833-122.667v-85.333c0.008-3.223 0.372-6.356 1.054-9.369l46.696-213.048c4.314-19.34 21.327-33.581 41.666-33.583h166.667c0.002 0 0.004 0 0.007 0 20.611 0 37.807 14.622 41.78 34.059l42.63 213.608c0.478 2.397 0.752 5.152 0.752 7.971 0 0.127-0.001 0.255-0.002 0.382v85.314c0 48.142-20.534 91.451-52.917 122.583 59.403 38.111 98 103.61 98 176.083 0 113.478-94.042 210.667-215.667 210.667zM512 770.667c66.889 0 125.667-55.631 125.667-130.667 0-69.788-50.991-122.179-111.917-129.25-4.595 0.37-9.086 1.25-13.75 1.25-4.475 0-8.691-0.989-13.083-1.333-61.222 6.76-112.583 59.29-112.583 129.333 0 75.035 58.778 130.667 125.667 130.667zM512 426.667c5.309 0 10.469-0.433 15.417-1.333 39.684-7.226 70-41.732 70-84v-81l-35-175h-97.417l-38.333 175.25v80.75c0 47.557 37.776 85.333 85.333 85.333z" />
<glyph unicode="&#xe907;" glyph-name="barcode" d="M255.333 683.25c-23.278-0.375-42.004-19.334-42.004-42.666 0-0.205 0.001-0.411 0.004-0.615v-426.636c-0.003-0.179-0.004-0.391-0.004-0.603 0-23.567 19.104-42.671 42.671-42.671s42.671 19.104 42.671 42.671c0 0.212-0.002 0.424-0.005 0.635v426.635c0.003 0.174 0.004 0.379 0.004 0.584 0 23.567-19.104 42.671-42.671 42.671-0.234 0-0.468-0.002-0.702-0.006zM383.333 683.25c-23.278-0.375-42.004-19.334-42.004-42.666 0-0.205 0.001-0.411 0.004-0.615v-426.636c-0.003-0.179-0.004-0.391-0.004-0.603 0-23.567 19.104-42.671 42.671-42.671s42.671 19.104 42.671 42.671c0 0.212-0.002 0.424-0.005 0.635v426.635c0.003 0.174 0.004 0.379 0.004 0.584 0 23.567-19.104 42.671-42.671 42.671-0.234 0-0.468-0.002-0.702-0.006zM810 683.25c-23.278-0.375-42.004-19.334-42.004-42.666 0-0.205 0.001-0.411 0.004-0.615v-426.636c-0.003-0.179-0.004-0.391-0.004-0.603 0-23.567 19.104-42.671 42.671-42.671s42.671 19.104 42.671 42.671c0 0.212-0.002 0.424-0.005 0.635v426.635c0.003 0.174 0.004 0.379 0.004 0.584 0 23.567-19.104 42.671-42.671 42.671-0.234 0-0.468-0.002-0.702-0.006zM938 683.25c-23.278-0.375-42.004-19.334-42.004-42.666 0-0.205 0.001-0.411 0.004-0.615v-426.636c-0.003-0.179-0.004-0.391-0.004-0.603 0-23.567 19.104-42.671 42.671-42.671s42.671 19.104 42.671 42.671c0 0.212-0.002 0.424-0.005 0.635v426.635c0.003 0.174 0.004 0.379 0.004 0.584 0 23.567-19.104 42.671-42.671 42.671-0.234 0-0.468-0.002-0.702-0.006zM85.333 682.667c-23.563-0.002-42.664-19.103-42.667-42.666v-426.667c0.002-23.563 19.103-42.664 42.666-42.667h42.667c23.563 0.002 42.664 19.103 42.667 42.666v426.667c-0.002 23.563-19.103 42.664-42.666 42.667h-42.667zM597.333 682.667c-23.563-0.002-42.664-19.103-42.667-42.666v-426.667c0.002-23.563 19.103-42.664 42.666-42.667h85.334c23.563 0.002 42.664 19.103 42.667 42.666v426.667c-0.002 23.563-19.103 42.664-42.666 42.667h-85.334z" />
<glyph unicode="&#xe908;" glyph-name="box-checked" d="M854.667 910.917c-0.23 0.003-0.501 0.005-0.772 0.005-17.166 0-32.558-7.593-43.002-19.603-23.040-25.792-45.347-52.74-67.309-80.653h-572.917c-23.563-0.002-42.664-19.103-42.667-42.666v-682.667c0.002-23.563 19.103-42.664 42.666-42.667h682.667c23.563 0.002 42.664 19.103 42.667 42.666v682.667c-0.031 12.475-5.411 23.687-13.965 31.469 4.61 5.315 9.086 10.673 13.799 15.948 9.309 10.107 15.016 23.657 15.016 38.54 0 31.186-25.060 56.519-56.141 56.96zM213.333 725.334h467.833c-71.327-106.418-136.851-236.633-196.5-417.167l-150.417 120.333c-9.657 7.774-22.071 12.477-35.583 12.477-31.468 0-56.977-25.51-56.977-56.977 0-17.955 8.305-33.971 21.284-44.414l213.444-170.752c9.655-7.772 22.066-12.474 35.575-12.474 25.762 0 47.53 17.101 54.571 40.571 74.166 253.012 152.783 396.989 244.104 516.153v-585.083h-597.333v597.333z" />
<glyph unicode="&#xe909;" glyph-name="box" d="M170.667 810.667c-23.563-0.002-42.664-19.103-42.667-42.666v-682.667c0.002-23.563 19.103-42.664 42.666-42.667h682.667c23.563 0.002 42.664 19.103 42.667 42.666v682.667c-0.002 23.563-19.103 42.664-42.666 42.667h-682.667zM213.333 725.334h597.333v-597.333h-597.333v597.333z" />
<glyph unicode="&#xe90a;" glyph-name="calculator" d="M213.333 894.5c-24.347-0.019-44.077-18.441-44.083-41.166v-853.334c0.007-22.725 19.737-41.148 44.081-41.167h640.002c24.347 0.019 44.077 18.441 44.083 41.166v853.334c-0.007 22.725-19.737 41.148-44.081 41.167h-640.002zM257.417 812.167h551.833v-257.5h-551.833v257.5zM257.417 469.334h551.833v-428.167h-551.833v428.167zM384 128c0-23.564-19.103-42.667-42.667-42.667s-42.667 19.103-42.667 42.667c0 23.564 19.103 42.667 42.667 42.667s42.667-19.103 42.667-42.667zM512 128c0-23.564-19.103-42.667-42.667-42.667s-42.667 19.103-42.667 42.667c0 23.564 19.103 42.667 42.667 42.667s42.667-19.103 42.667-42.667zM384 256c0-23.564-19.103-42.667-42.667-42.667s-42.667 19.103-42.667 42.667c0 23.564 19.103 42.667 42.667 42.667s42.667-19.103 42.667-42.667zM512 256c0-23.564-19.103-42.667-42.667-42.667s-42.667 19.103-42.667 42.667c0 23.564 19.103 42.667 42.667 42.667s42.667-19.103 42.667-42.667zM384 384c0-23.564-19.103-42.667-42.667-42.667s-42.667 19.103-42.667 42.667c0 23.564 19.103 42.667 42.667 42.667s42.667-19.103 42.667-42.667zM512 384c0-23.564-19.103-42.667-42.667-42.667s-42.667 19.103-42.667 42.667c0 23.564 19.103 42.667 42.667 42.667s42.667-19.103 42.667-42.667zM640 256c0-23.564-19.103-42.667-42.667-42.667s-42.667 19.103-42.667 42.667c0 23.564 19.103 42.667 42.667 42.667s42.667-19.103 42.667-42.667zM640 128c0-23.564-19.103-42.667-42.667-42.667s-42.667 19.103-42.667 42.667c0 23.564 19.103 42.667 42.667 42.667s42.667-19.103 42.667-42.667zM640 384c0-23.564-19.103-42.667-42.667-42.667s-42.667 19.103-42.667 42.667c0 23.564 19.103 42.667 42.667 42.667s42.667-19.103 42.667-42.667zM768 384c0-23.564-19.103-42.667-42.667-42.667s-42.667 19.103-42.667 42.667c0 23.564 19.103 42.667 42.667 42.667s42.667-19.103 42.667-42.667zM724.667 299.25c-23.278-0.375-42.004-19.334-42.004-42.666 0-0.205 0.001-0.411 0.004-0.615v-127.969c-0.003-0.179-0.004-0.391-0.004-0.603 0-23.567 19.104-42.671 42.671-42.671s42.671 19.104 42.671 42.671c0 0.212-0.002 0.424-0.005 0.635v127.968c0.003 0.174 0.004 0.379 0.004 0.584 0 23.567-19.104 42.671-42.671 42.671-0.234 0-0.468-0.002-0.702-0.006zM724.667 768.584c-23.278-0.375-42.004-19.334-42.004-42.666 0-0.205 0.001-0.411 0.004-0.615v-85.302c-0.003-0.179-0.004-0.391-0.004-0.603 0-23.567 19.104-42.671 42.671-42.671s42.671 19.104 42.671 42.671c0 0.212-0.002 0.424-0.005 0.635v85.301c0.003 0.174 0.004 0.379 0.004 0.584 0 23.567-19.104 42.671-42.671 42.671-0.234 0-0.468-0.002-0.702-0.006zM554.667 768c-0.179 0.003-0.391 0.004-0.603 0.004-23.567 0-42.671-19.104-42.671-42.671s19.104-42.671 42.671-42.671c0.212 0 0.424 0.002 0.635 0.005l-0.032-42.667c-0.003-0.179-0.004-0.391-0.004-0.603 0-23.567 19.104-42.671 42.671-42.671s42.671 19.104 42.671 42.671c0 0.212-0.002 0.424-0.005 0.635v85.301c-0.002 23.563-19.103 42.664-42.666 42.667h-42.667z" />
<glyph unicode="&#xe90b;" glyph-name="calendar" d="M85.25 805.917c-25.828-0.033-46.75-16.99-46.75-37.902 0-0.005 0-0.010 0-0.015v-682.666c0-0.004 0-0.009 0-0.014 0-20.913 20.922-37.87 46.746-37.902h853.421c0.004 0 0.008 0 0.013 0 25.858 0 46.821 16.97 46.821 37.902 0 0.005 0 0.010 0 0.015v682.666c0 0.004 0 0.009 0 0.014 0 20.933-20.962 37.902-46.821 37.902-0.004 0-0.009 0-0.013 0h-853.416zM132.083 730.167h266.25v-104.5h-266.25v104.5zM455 730.167h114v-104.5h-114v104.5zM625.667 730.167h114v-104.5h-114v104.5zM796.333 730.167h95.5v-104.5h-95.5v104.5zM132.083 569h95.583v-114h-95.583v114zM284.333 569h114v-114h-114v114zM455 569h114v-114h-114v114zM625.667 569h114v-114h-114v114zM796.333 569h95.5v-114h-95.5v114zM132.083 398.334h95.583v-114h-95.583v114zM284.333 398.334h114v-114h-114v114zM455 398.334h114v-114h-114v114zM625.667 398.334h114v-114h-114v114zM796.333 398.334h95.5v-114h-95.5v114zM132.083 227.667h95.583v-104.417h-95.583v104.417zM284.333 227.667h114v-104.417h-114v104.417zM455 227.667h436.833v-104.417h-436.833v104.417z" />
<glyph unicode="&#xe90c;" glyph-name="camera" d="M85.333 682.667c-23.563-0.002-42.664-19.103-42.667-42.666v-597.334c0.002-23.563 19.103-42.664 42.666-42.667h853.334c23.563 0.002 42.664 19.103 42.667 42.666v597.334c-0.002 23.563-19.103 42.664-42.666 42.667h-853.334zM128 597.334h768v-512h-768v512zM341.333 810.667c-0.179 0.003-0.391 0.004-0.603 0.004-23.567 0-42.671-19.104-42.671-42.671s19.104-42.671 42.671-42.671c0.212 0 0.424 0.002 0.635 0.005h341.301c0.179-0.003 0.391-0.004 0.603-0.004 23.567 0 42.671 19.104 42.671 42.671s-19.104 42.671-42.671 42.671c-0.212 0-0.424-0.002-0.635-0.005h-341.301zM512 554.667c-117.315 0-213.333-96.018-213.333-213.333s96.018-213.333 213.333-213.333c117.315 0 213.333 96.018 213.333 213.333s-96.018 213.333-213.333 213.333zM512 469.334c71.198 0 128-56.802 128-128s-56.802-128-128-128c-71.198 0-128 56.802-128 128s56.802 128 128 128z" />
<glyph unicode="&#xe90d;" glyph-name="chart-bar" d="M170 384.584c-23.278-0.375-42.004-19.334-42.004-42.666 0-0.205 0.001-0.411 0.004-0.615v-255.969c-0.003-0.179-0.004-0.391-0.004-0.603 0-23.567 19.104-42.671 42.671-42.671s42.671 19.104 42.671 42.671c0 0.212-0.002 0.424-0.005 0.635v255.968c0.003 0.174 0.004 0.379 0.004 0.584 0 23.567-19.104 42.671-42.671 42.671-0.234 0-0.468-0.002-0.702-0.006zM340.667 469.917c-23.278-0.375-42.004-19.334-42.004-42.666 0-0.205 0.001-0.411 0.004-0.615v-341.302c-0.003-0.179-0.004-0.391-0.004-0.603 0-23.567 19.104-42.671 42.671-42.671s42.671 19.104 42.671 42.671c0 0.212-0.002 0.424-0.005 0.635v341.301c0.003 0.174 0.004 0.379 0.004 0.584 0 23.567-19.104 42.671-42.671 42.671-0.234 0-0.468-0.002-0.702-0.006zM511.333 555.25c-23.278-0.375-42.004-19.334-42.004-42.666 0-0.205 0.001-0.411 0.004-0.615v-426.636c-0.003-0.179-0.004-0.391-0.004-0.603 0-23.567 19.104-42.671 42.671-42.671s42.671 19.104 42.671 42.671c0 0.212-0.002 0.424-0.005 0.635v426.635c0.003 0.174 0.004 0.379 0.004 0.584 0 23.567-19.104 42.671-42.671 42.671-0.234 0-0.468-0.002-0.702-0.006zM682 640.584c-23.278-0.375-42.004-19.334-42.004-42.666 0-0.205 0.001-0.411 0.004-0.615v-511.969c-0.003-0.179-0.004-0.391-0.004-0.603 0-23.567 19.104-42.671 42.671-42.671s42.671 19.104 42.671 42.671c0 0.212-0.002 0.424-0.005 0.635v511.968c0.003 0.174 0.004 0.379 0.004 0.584 0 23.567-19.104 42.671-42.671 42.671-0.234 0-0.468-0.002-0.702-0.006zM852.667 768.584c-23.278-0.375-42.004-19.334-42.004-42.666 0-0.205 0.001-0.411 0.004-0.615v-639.969c-0.003-0.179-0.004-0.391-0.004-0.603 0-23.567 19.104-42.671 42.671-42.671s42.671 19.104 42.671 42.671c0 0.212-0.002 0.424-0.005 0.635v639.968c0.003 0.174 0.004 0.379 0.004 0.584 0 23.567-19.104 42.671-42.671 42.671-0.234 0-0.468-0.002-0.702-0.006z" />
<glyph unicode="&#xe90e;" glyph-name="chart-pie" d="M469.333 768c-211.501 0-384-172.499-384-384s172.499-384 384-384c211.501 0 384 172.499 384 384-0.002 23.563-19.103 42.664-42.666 42.667h-298.667v298.667c-0.002 23.563-19.103 42.664-42.666 42.667zM426.667 665v-281c0.002-23.563 19.103-42.664 42.666-42.667h281c-23.279-141.898-132.364-256-281-256-165.331 0-298.667 133.336-298.667 298.667 0 148.636 114.102 257.721 256 281zM597.75 896c-0.123 0.001-0.267 0.002-0.412 0.002-23.566 0-42.67-19.103-42.671-42.669v-341.333c0.002-23.563 19.103-42.664 42.666-42.667h341.334c23.566 0.001 42.669 19.105 42.669 42.671 0 0.145-0.001 0.29-0.002 0.435-2.004 211.458-172.104 381.557-383.583 383.561zM640 801.834c129.884-20.081 227.086-117.283 247.167-247.167h-247.167v247.167z" />
<glyph unicode="&#xe90f;" glyph-name="check" d="M851.917 853.75c-12.989-0.57-24.401-6.864-31.845-16.405-124.491-156.077-234.403-381.691-329.655-688.261l-297.167 185.75c-6.721 4.625-15.036 7.387-23.996 7.387-23.567 0-42.671-19.104-42.671-42.671 0-15.778 8.563-29.556 21.296-36.939l341.538-213.443c6.407-4.051 14.206-6.455 22.566-6.455 19.272 0 35.559 12.776 40.856 30.319 97.070 331.12 210.811 556.829 333.828 711.052 6.010 7.297 9.654 16.738 9.654 27.031 0 23.567-19.104 42.671-42.671 42.671-0.609 0-1.216-0.013-1.819-0.038z" />
<glyph unicode="&#xe910;" glyph-name="chevron-down" d="M896.417 512.417c-0.006 23.562-19.108 42.66-42.671 42.66-11.987 0-22.819-4.942-30.57-12.9l-311.176-311.176-311.167 311.167c-7.778 8.092-18.692 13.118-30.781 13.118-23.567 0-42.671-19.104-42.671-42.671 0-12.089 5.027-23.003 13.104-30.767l341.347-341.347c7.721-7.718 18.387-12.492 30.167-12.492s22.445 4.774 30.167 12.492l341.333 341.333c7.971 7.76 12.916 18.594 12.917 30.583z" />
<glyph unicode="&#xe911;" glyph-name="chevron-left" d="M597.75 811.084c23.562-0.006 42.66-19.108 42.66-42.671 0-11.987-4.942-22.819-12.9-30.57l-311.176-311.176 311.167-311.167c8.092-7.778 13.118-18.692 13.118-30.781 0-23.567-19.104-42.671-42.671-42.671-12.089 0-23.003 5.027-30.767 13.104l-341.347 341.347c-7.718 7.721-12.492 18.387-12.492 30.167s4.774 22.445 12.492 30.167l341.333 341.333c7.76 7.971 18.594 12.916 30.583 12.917z" />
<glyph unicode="&#xe912;" glyph-name="chevron-right" d="M426.25 811.084c-23.562-0.006-42.66-19.108-42.66-42.671 0-11.987 4.942-22.819 12.9-30.57l311.176-311.176-311.167-311.167c-8.092-7.778-13.118-18.692-13.118-30.781 0-23.567 19.104-42.671 42.671-42.671 12.089 0 23.003 5.027 30.767 13.104l341.347 341.347c7.718 7.721 12.492 18.387 12.492 30.167s-4.774 22.445-12.492 30.167l-341.333 341.333c-7.76 7.971-18.594 12.916-30.583 12.917z" />
<glyph unicode="&#xe913;" glyph-name="chevron-up" d="M896.417 340.917c-0.006-23.562-19.108-42.66-42.671-42.66-11.987 0-22.819 4.942-30.57 12.9l-311.176 311.176-311.167-311.167c-7.778-8.092-18.692-13.118-30.781-13.118-23.567 0-42.671 19.104-42.671 42.671 0 12.089 5.027 23.003 13.104 30.767l341.347 341.347c7.721 7.718 18.387 12.492 30.167 12.492s22.445-4.774 30.167-12.492l341.333-341.333c7.971-7.76 12.916-18.594 12.917-30.583z" />
<glyph unicode="&#xe914;" glyph-name="circle-filled" d="M512 810.667c-211.572 0-384-172.428-384-384s172.428-384 384-384c211.572 0 384 172.428 384 384s-172.428 384-384 384zM512 725.334c165.454 0 298.667-133.212 298.667-298.667s-133.212-298.667-298.667-298.667c-165.454 0-298.667 133.212-298.667 298.667s133.212 298.667 298.667 298.667zM682.667 426.667c0-94.257-76.41-170.667-170.667-170.667s-170.667 76.41-170.667 170.667c0 94.257 76.41 170.667 170.667 170.667s170.667-76.41 170.667-170.667z" />
<glyph unicode="&#xe915;" glyph-name="circle" d="M512 810.667c-211.572 0-384-172.428-384-384s172.428-384 384-384c211.572 0 384 172.428 384 384s-172.428 384-384 384zM512 725.334c165.454 0 298.667-133.212 298.667-298.667s-133.212-298.667-298.667-298.667c-165.454 0-298.667 133.212-298.667 298.667s133.212 298.667 298.667 298.667z" />
<glyph unicode="&#xe916;" glyph-name="clock" d="M512 895.985c-258.7 0-469.318-210.618-469.318-469.318s210.618-469.318 469.318-469.318c258.7 0 469.318 210.618 469.318 469.318s-210.618 469.318-469.318 469.318zM512 810.682c212.583 0 384.015-171.432 384.015-384.015s-171.432-384.015-384.015-384.015c-212.583 0-384.015 171.432-384.015 384.015s171.432 384.015 384.015 384.015zM511.333 768.584c-23.278-0.375-42.004-19.334-42.004-42.666 0-0.205 0.001-0.411 0.004-0.615v-298.636c0.002-11.781 4.779-22.446 12.5-30.167l128-128c7.778-8.092 18.692-13.118 30.781-13.118 23.567 0 42.671 19.104 42.671 42.671 0 12.089-5.027 23.003-13.104 30.767l-115.514 115.513v281c0.003 0.174 0.004 0.379 0.004 0.584 0 23.567-19.104 42.671-42.671 42.671-0.234 0-0.468-0.002-0.702-0.006z" />
<glyph unicode="&#xe917;" glyph-name="cloud-bad" d="M554.667 768c-124.023 0-229.9-72.408-282.917-176.167-66.536-12.788-117.771-67.798-121.083-137.083-62.681-25.36-108-84.781-108-156.083 0-93.741 76.925-170.667 170.667-170.667h554.667c117.293 0 213.333 96.040 213.333 213.333 0 81.941-50.315 148.497-118.667 184.167-35.104 138.784-158.856 242.5-308 242.5zM554.667 682.667c114.412 0 209.201-81.531 230.333-189.25 2.963-14.771 13.228-26.609 26.79-31.736 49.077-18.028 84.21-64.86 84.21-120.347 0-71.123-56.877-128-128-128h-554.667c-47.571 0-85.333 37.763-85.333 85.333 0 43.215 31.604 78.34 72.667 84.417 20.739 3.142 36.45 20.844 36.45 42.215 0 3.171-0.346 6.261-1.002 9.235-0.918 4.229-1.448 8.768-1.448 13.467 0 35.735 28.248 63.974 64 64 17.62 0.022 32.735 10.72 39.228 25.971 35.443 84.946 118.878 144.696 216.772 144.696zM682.667 598.084c-11.882-0.214-22.546-5.252-30.15-13.233l-97.85-97.851-97.833 97.833c-7.76 7.972-18.595 12.918-30.585 12.918-12.031 0-22.898-4.98-30.654-12.99-7.436-7.679-12.013-18.143-12.013-29.677 0-11.99 4.946-22.825 12.909-30.575l97.843-97.843-97.833-97.833c-7.912-7.751-12.817-18.546-12.817-30.486 0-23.563 19.102-42.664 42.664-42.664 11.94 0 22.735 4.905 30.479 12.81l97.84 97.841 97.833-97.833c7.751-7.912 18.546-12.818 30.486-12.818 23.563 0 42.664 19.102 42.664 42.664 0 11.94-4.905 22.735-12.81 30.479l-97.841 97.84 97.833 97.833c8.183 7.789 13.273 18.763 13.273 30.926 0 23.563-19.102 42.664-42.664 42.664-0.273 0-0.545-0.003-0.816-0.008z" />
<glyph unicode="&#xe918;" glyph-name="cloud-good" d="M554.667 768c-124.023 0-229.9-72.408-282.917-176.167-66.536-12.788-117.771-67.798-121.083-137.083-62.681-25.36-108-84.781-108-156.083 0-93.741 76.925-170.667 170.667-170.667h554.667c117.293 0 213.333 96.040 213.333 213.333 0 81.941-50.315 148.497-118.667 184.167-35.104 138.784-158.856 242.5-308 242.5zM554.667 682.667c114.412 0 209.201-81.531 230.333-189.25 2.963-14.771 13.228-26.609 26.79-31.736 49.077-18.028 84.21-64.86 84.21-120.347 0-71.123-56.877-128-128-128h-554.667c-47.571 0-85.333 37.763-85.333 85.333 0 43.215 31.604 78.34 72.667 84.417 20.739 3.142 36.45 20.844 36.45 42.215 0 3.171-0.346 6.261-1.002 9.235-0.918 4.229-1.448 8.768-1.448 13.467 0 35.735 28.248 63.974 64 64 17.62 0.022 32.735 10.72 39.228 25.971 35.443 84.946 118.878 144.696 216.772 144.696zM638.583 640.459c-13.005-0.557-24.434-6.854-31.887-16.405-54.226-67.987-111.046-129.005-158.738-259.845l-82.958 55.292c-6.768 4.721-15.167 7.542-24.224 7.542-23.567 0-42.671-19.104-42.671-42.671 0-14.98 7.719-28.157 19.397-35.771l128.164-85.434c6.653-4.492 14.852-7.171 23.676-7.171 19.29 0 35.59 12.8 40.871 30.369 47.219 161.089 97.058 201.472 163.161 284.344 6.054 7.312 9.726 16.786 9.726 27.119 0 23.567-19.104 42.671-42.671 42.671-0.65 0-1.296-0.015-1.938-0.043z" />
<glyph unicode="&#xe919;" glyph-name="cloud" d="M554.667 768c-124.023 0-229.9-72.408-282.917-176.167-66.536-12.788-117.771-67.798-121.083-137.083-62.681-25.36-108-84.781-108-156.083 0-93.741 76.925-170.667 170.667-170.667h554.667c117.293 0 213.333 96.040 213.333 213.333 0 81.941-50.315 148.497-118.667 184.167-35.104 138.784-158.856 242.5-308 242.5zM554.667 682.667c114.412 0 209.201-81.531 230.333-189.25 2.963-14.771 13.228-26.609 26.79-31.736 49.077-18.028 84.21-64.86 84.21-120.347 0-71.123-56.877-128-128-128h-554.667c-47.571 0-85.333 37.763-85.333 85.333 0 43.215 31.604 78.34 72.667 84.417 20.739 3.142 36.45 20.844 36.45 42.215 0 3.171-0.346 6.261-1.002 9.235-0.918 4.229-1.448 8.768-1.448 13.467 0 35.735 28.248 63.974 64 64 17.62 0.022 32.735 10.72 39.228 25.971 35.443 84.946 118.878 144.696 216.772 144.696z" />
<glyph unicode="&#xe91a;" glyph-name="coffee" d="M638.75 853.75c-23.202-0.471-41.831-19.391-41.831-42.663 0-11.907 4.877-22.675 12.742-30.415-0.529-1.533-2.067-6.25-6.828-15.422-5.456-10.511-14.041-24.162-17.083-45.417s6.121-50.463 25-68.25c7.711-7.656 18.334-12.388 30.062-12.388 23.567 0 42.671 19.104 42.671 42.671 0 11.355-4.436 21.675-11.669 29.32 0.826 2.032 2.176 5.966 6.769 14.813 5.653 10.891 14.283 25.285 16.833 47s-6.877 50.117-25.75 68.333c-7.715 7.678-18.353 12.424-30.099 12.424-0.287 0-0.574-0.003-0.86-0.008zM510.75 853.75c-23.202-0.471-41.831-19.391-41.831-42.663 0-11.907 4.877-22.675 12.742-30.415-0.529-1.533-2.067-6.25-6.828-15.422-5.456-10.511-14.041-24.162-17.083-45.417s6.121-50.463 25-68.25c7.711-7.656 18.334-12.388 30.062-12.388 23.567 0 42.671 19.104 42.671 42.671 0 11.355-4.436 21.675-11.669 29.32 0.826 2.032 2.176 5.966 6.769 14.813 5.653 10.891 14.283 25.285 16.833 47s-6.877 50.117-25.75 68.333c-7.715 7.678-18.353 12.424-30.099 12.424-0.287 0-0.574-0.003-0.86-0.008zM341.333 597.334c-23.563-0.002-42.664-19.103-42.667-42.666v-42.667h-85.333c-0.007 0-0.015 0-0.023 0-15.845 0-29.673-8.636-37.033-21.459-61.476-109.018-61.317-228.95-0.36-340.375 7.397-13.308 21.372-22.165 37.416-22.167h85.334v-85.333c0.002-23.563 19.103-42.664 42.666-42.667h469.334c23.563 0.002 42.664 19.103 42.667 42.666v512c-0.002 23.563-19.103 42.664-42.666 42.667h-469.334zM384 512h384v-426.667h-384v426.667zM244.25 426.667h54.417v-213.333h-54.25c-34.137 73.758-34.070 141.943-0.167 213.333z" />
<glyph unicode="&#xe91b;" glyph-name="compass" d="M512 853.417c-235.165 0-426.75-191.585-426.75-426.75s191.585-426.75 426.75-426.75c235.165 0 426.75 191.585 426.75 426.75s-191.585 426.75-426.75 426.75zM512 767.917c188.99 0 341.25-152.26 341.25-341.25s-152.26-341.25-341.25-341.25c-188.99 0-341.25 152.26-341.25 341.25s152.26 341.25 341.25 341.25zM338.75 639.917c-22.413-1.419-40.054-19.945-40.054-42.591 0-8.090 2.251-15.653 6.161-22.099l127.893-213.144c3.671-6.056 8.61-10.996 14.477-14.56l213.523-128.107c6.241-3.779 13.782-6.015 21.845-6.015 23.567 0 42.671 19.104 42.671 42.671 0 8.063-2.236 15.604-6.123 22.036l-127.893 213.142c-3.671 6.056-8.61 10.996-14.477 14.56l-213.523 128.107c-6.265 3.817-13.842 6.076-21.947 6.076-0.898 0-1.79-0.028-2.675-0.082zM465.667 473l57.917-34.75 34.75-57.917-57.917 34.75-34.75 57.917zM554.333 747c-11.639-0.187-21.003-9.667-21.003-21.333 0-0.117 0.001-0.235 0.003-0.351v-33.816l-48.917 48.917c-3.86 3.858-9.192 6.244-15.081 6.244-11.78 0-21.331-9.547-21.335-21.327v-85.334c-0.001-0.090-0.002-0.196-0.002-0.302 0-11.783 9.552-21.335 21.335-21.335s21.335 9.552 21.335 21.335c0 0.106-0.001 0.212-0.002 0.318v33.817l48.917-48.917c3.86-3.858 9.192-6.244 15.081-6.244 11.78 0 21.331 9.547 21.335 21.327v85.334c0.002 0.099 0.003 0.216 0.003 0.334 0 11.783-9.552 21.335-21.335 21.335-0.117 0-0.235-0.001-0.351-0.003z" />
<glyph unicode="&#xe91c;" glyph-name="cross" d="M209.833 771.417c-11.989-0.001-22.823-4.946-30.574-12.907-7.458-7.682-12.050-18.164-12.050-29.718 0-12.010 4.962-22.861 12.947-30.615l271.51-271.51-271.5-271.5c-8.091-7.778-13.118-18.692-13.118-30.78 0-23.567 19.104-42.671 42.671-42.671 12.088 0 23.003 5.027 30.767 13.104l271.513 271.514 271.5-271.5c7.778-8.091 18.692-13.118 30.78-13.118 23.567 0 42.671 19.104 42.671 42.671 0 12.088-5.027 23.003-13.104 30.767l-271.514 271.513 271.5 271.5c8.091 7.778 13.118 18.692 13.118 30.78 0 23.567-19.104 42.671-42.671 42.671-12.088 0-23.003-5.027-30.767-13.104l-271.513-271.514-271.5 271.5c-7.761 7.972-18.596 12.917-30.586 12.917-0.028 0-0.057 0-0.085 0z" />
<glyph unicode="&#xe91d;" glyph-name="desktop" d="M170.667 810.667c-23.563-0.002-42.664-19.103-42.667-42.666v-512c0.002-23.563 19.103-42.664 42.666-42.667h298.667v-85.333h-128c-0.179 0.003-0.391 0.004-0.603 0.004-23.567 0-42.671-19.104-42.671-42.671s19.104-42.671 42.671-42.671c0.212 0 0.424 0.002 0.635 0.005h341.301c0.179-0.003 0.391-0.004 0.603-0.004 23.567 0 42.671 19.104 42.671 42.671s-19.104 42.671-42.671 42.671c-0.212 0-0.424-0.002-0.635-0.005h-127.968v85.333h298.667c23.563 0.002 42.664 19.103 42.667 42.666v512c-0.002 23.563-19.103 42.664-42.666 42.667h-682.667zM213.333 725.334h597.333v-426.667h-597.333v426.667z" />
<glyph unicode="&#xe91e;" glyph-name="doctor" d="M512 850.667c-121.624 0-215.667-97.189-215.667-210.667 0-64.455 30.999-122.963 79.5-162.083-96.128-49.722-162.583-149.347-162.583-264.583v-170.583c0-0.032 0-0.071 0-0.109 0-23.596 19.128-42.724 42.724-42.724 0.009 0 0.018 0 0.027 0h511.999c0.008 0 0.017 0 0.026 0 23.596 0 42.724 19.128 42.724 42.724 0 0.038 0 0.077 0 0.115v170.577c0 115.243-66.181 215.081-162.333 264.833 48.341 39.122 79.25 97.5 79.25 161.833 0 113.478-94.042 210.667-215.667 210.667zM512 770.667c66.889 0 125.667-55.631 125.667-130.667s-58.778-130.667-125.667-130.667c-66.889 0-125.667 55.631-125.667 130.667s58.778 130.667 125.667 130.667zM512 426.584c13.16 0 26.002-1.157 38.417-3.417 99.311-18.083 174.833-104.82 174.833-209.833v-127.917h-426.5v127.917c0 118.154 95.096 213.25 213.25 213.25zM511.333 384.584c-23.278-0.375-42.004-19.334-42.004-42.666 0-0.205 0.001-0.411 0.004-0.615v-42.636h-42.667c-0.179 0.003-0.391 0.004-0.603 0.004-23.567 0-42.671-19.104-42.671-42.671s19.104-42.671 42.671-42.671c0.212 0 0.424 0.002 0.635 0.005h42.635v-42.667c-0.003-0.179-0.004-0.391-0.004-0.603 0-23.567 19.104-42.671 42.671-42.671s42.671 19.104 42.671 42.671c0 0.212-0.002 0.424-0.005 0.635v42.635h42.667c0.179-0.003 0.391-0.004 0.603-0.004 23.567 0 42.671 19.104 42.671 42.671s-19.104 42.671-42.671 42.671c-0.212 0-0.424-0.002-0.635-0.005h-42.635v42.667c0.003 0.174 0.004 0.379 0.004 0.584 0 23.567-19.104 42.671-42.671 42.671-0.234 0-0.468-0.002-0.702-0.006z" />
<glyph unicode="&#xe91f;" glyph-name="dots-horizontal" d="M213.333 554.667c-70.187 0-128-57.813-128-128s57.813-128 128-128c70.187 0 128 57.813 128 128s-57.813 128-128 128zM213.333 469.334c24.070 0 42.667-18.597 42.667-42.667s-18.597-42.667-42.667-42.667c-24.070 0-42.667 18.597-42.667 42.667s18.597 42.667 42.667 42.667zM512 554.667c-70.187 0-128-57.813-128-128s57.813-128 128-128c70.187 0 128 57.813 128 128s-57.813 128-128 128zM512 469.334c24.070 0 42.667-18.597 42.667-42.667s-18.597-42.667-42.667-42.667c-24.070 0-42.667 18.597-42.667 42.667s18.597 42.667 42.667 42.667zM810.667 554.667c-70.187 0-128-57.813-128-128s57.813-128 128-128c70.187 0 128 57.813 128 128s-57.813 128-128 128zM810.667 469.334c24.070 0 42.667-18.597 42.667-42.667s-18.597-42.667-42.667-42.667c-24.070 0-42.667 18.597-42.667 42.667s18.597 42.667 42.667 42.667z" />
<glyph unicode="&#xe920;" glyph-name="dots-vertical" d="M512 853.334c-70.187 0-128-57.813-128-128s57.813-128 128-128c70.187 0 128 57.813 128 128s-57.813 128-128 128zM512 768c24.070 0 42.667-18.597 42.667-42.667s-18.597-42.667-42.667-42.667c-24.070 0-42.667 18.597-42.667 42.667s18.597 42.667 42.667 42.667zM512 554.667c-70.187 0-128-57.813-128-128s57.813-128 128-128c70.187 0 128 57.813 128 128s-57.813 128-128 128zM512 469.334c24.070 0 42.667-18.597 42.667-42.667s-18.597-42.667-42.667-42.667c-24.070 0-42.667 18.597-42.667 42.667s18.597 42.667 42.667 42.667zM512 256c-70.187 0-128-57.813-128-128s57.813-128 128-128c70.187 0 128 57.813 128 128s-57.813 128-128 128zM512 170.667c24.070 0 42.667-18.597 42.667-42.667s-18.597-42.667-42.667-42.667c-24.070 0-42.667 18.597-42.667 42.667s18.597 42.667 42.667 42.667z" />
<glyph unicode="&#xe921;" glyph-name="emergency" d="M128 853.334c-23.563-0.002-42.664-19.103-42.667-42.666v-768c0.002-23.563 19.103-42.664 42.666-42.667h768c23.563 0.002 42.664 19.103 42.667 42.666v768c-0.002 23.563-19.103 42.664-42.666 42.667h-768zM170.667 768h682.667v-682.667h-682.667v682.667zM426.667 725.334c-23.563-0.002-42.664-19.103-42.667-42.666v-128h-128c-23.563-0.002-42.664-19.103-42.667-42.666v-170.667c0.002-23.563 19.103-42.664 42.666-42.667h128v-128c0.002-23.563 19.103-42.664 42.666-42.667h170.667c23.563 0.002 42.664 19.103 42.667 42.666v128h128c23.563 0.002 42.664 19.103 42.667 42.666v170.667c-0.002 23.563-19.103 42.664-42.666 42.667h-128v128c-0.002 23.563-19.103 42.664-42.666 42.667h-170.667zM469.333 640h85.333v-128c0.002-23.563 19.103-42.664 42.666-42.667h128v-85.333h-128c-23.563-0.002-42.664-19.103-42.667-42.666v-128h-85.333v128c-0.002 23.563-19.103 42.664-42.666 42.667h-128v85.333h128c23.563 0.002 42.664 19.103 42.667 42.666v128z" />
<glyph unicode="&#xe922;" glyph-name="envelope" d="M85.333 768c-23.563-0.002-42.664-19.103-42.667-42.666v-597.334c0.002-23.563 19.103-42.664 42.666-42.667h853.334c23.563 0.002 42.664 19.103 42.667 42.666v597.334c-0.002 23.563-19.103 42.664-42.666 42.667h-853.334zM128 682.667h768v-16.333l-384-192-384 192v16.333zM128 571l364.917-182.5c12.013-6.007 26.153-6.007 38.167 0l364.917 182.5v-400.333h-768v400.333z" />
<glyph unicode="&#xe923;" glyph-name="error" d="M341.333 853.334c-11.781-0.002-22.446-4.779-30.167-12.5l-213.333-213.333c-7.721-7.72-12.498-18.385-12.5-30.166v-341.334c0.002-11.781 4.779-22.446 12.5-30.167l213.333-213.333c7.72-7.721 18.385-12.498 30.166-12.5h341.334c11.781 0.002 22.446 4.779 30.167 12.5l213.333 213.333c7.721 7.72 12.498 18.385 12.5 30.166v341.334c-0.002 11.781-4.779 22.446-12.5 30.167l-213.333 213.333c-7.72 7.721-18.385 12.498-30.166 12.5h-341.334zM359 768h306l188.333-188.333v-306l-188.333-188.333h-306l-188.333 188.333v306l188.333 188.333zM340.917 640.417c-23.562-0.006-42.66-19.108-42.66-42.671 0-11.987 4.942-22.819 12.9-30.57l140.509-140.509-140.5-140.5c-8.091-7.778-13.118-18.692-13.118-30.781 0-23.567 19.104-42.671 42.671-42.671 12.089 0 23.003 5.027 30.767 13.104l140.513 140.514 140.5-140.5c7.778-8.092 18.692-13.118 30.781-13.118 23.567 0 42.671 19.104 42.671 42.671 0 12.089-5.027 23.003-13.104 30.767l-140.514 140.513 140.5 140.5c7.979 7.762 12.929 18.602 12.929 30.598 0 23.567-19.104 42.671-42.671 42.671-0.442 0-0.883-0.007-1.322-0.020-11.467-0.353-21.795-5.229-29.259-12.905l-140.51-140.51-140.5 140.5c-7.76 7.971-18.594 12.916-30.583 12.917z" />
<glyph unicode="&#xe924;" glyph-name="face-happy" d="M512 895.985c-258.7 0-469.318-210.618-469.318-469.318s210.618-469.318 469.318-469.318c258.7 0 469.318 210.618 469.318 469.318s-210.618 469.318-469.318 469.318zM512 810.682c212.583 0 384.015-171.432 384.015-384.015s-171.432-384.015-384.015-384.015c-212.583 0-384.015 171.432-384.015 384.015s171.432 384.015 384.015 384.015zM340.667 640.584c-23.278-0.375-42.004-19.334-42.004-42.666 0-0.205 0.001-0.411 0.004-0.615v-170.636c-0.003-0.179-0.004-0.391-0.004-0.603 0-23.567 19.104-42.671 42.671-42.671s42.671 19.104 42.671 42.671c0 0.212-0.002 0.424-0.005 0.635v170.635c0.003 0.174 0.004 0.379 0.004 0.584 0 23.567-19.104 42.671-42.671 42.671-0.234 0-0.468-0.002-0.702-0.006zM682 640.584c-23.278-0.375-42.004-19.334-42.004-42.666 0-0.205 0.001-0.411 0.004-0.615v-170.636c-0.003-0.179-0.004-0.391-0.004-0.603 0-23.567 19.104-42.671 42.671-42.671s42.671 19.104 42.671 42.671c0 0.212-0.002 0.424-0.005 0.635v170.635c0.003 0.174 0.004 0.379 0.004 0.584 0 23.567-19.104 42.671-42.671 42.671-0.234 0-0.468-0.002-0.702-0.006zM512 85.271c-187.967 0-341.396 153.429-341.396 341.396-0.014 0.407-0.022 0.885-0.022 1.364 0 23.611 19.14 42.751 42.751 42.751s42.751-19.14 42.751-42.751c0-0.48-0.008-0.958-0.024-1.434 0.002-141.617 114.253-255.868 255.939-255.868 15.777 0 31.179 1.444 46.083 4.156 119.186 21.702 209.854 125.852 209.854 251.781-0.014 0.407-0.022 0.885-0.022 1.365 0 23.611 19.14 42.751 42.751 42.751s42.751-19.14 42.751-42.751c0-0.48-0.008-0.958-0.024-1.434 0.002-166.994-120.753-306.861-279.998-335.858-19.965-3.634-40.511-5.469-61.396-5.469z" />
<glyph unicode="&#xe925;" glyph-name="face-meh" d="M512 895.985c-258.7 0-469.318-210.618-469.318-469.318s210.618-469.318 469.318-469.318c258.7 0 469.318 210.618 469.318 469.318s-210.618 469.318-469.318 469.318zM512 810.682c212.583 0 384.015-171.432 384.015-384.015s-171.432-384.015-384.015-384.015c-212.583 0-384.015 171.432-384.015 384.015s171.432 384.015 384.015 384.015zM340.667 597.917c-23.278-0.375-42.004-19.334-42.004-42.666 0-0.205 0.001-0.411 0.004-0.615v-85.302c-0.003-0.179-0.004-0.391-0.004-0.603 0-23.567 19.104-42.671 42.671-42.671s42.671 19.104 42.671 42.671c0 0.212-0.002 0.424-0.005 0.635v85.301c0.003 0.174 0.004 0.379 0.004 0.584 0 23.567-19.104 42.671-42.671 42.671-0.234 0-0.468-0.002-0.702-0.006zM682 597.917c-23.278-0.375-42.004-19.334-42.004-42.666 0-0.205 0.001-0.411 0.004-0.615v-85.302c-0.003-0.179-0.004-0.391-0.004-0.603 0-23.567 19.104-42.671 42.671-42.671s42.671 19.104 42.671 42.671c0 0.212-0.002 0.424-0.005 0.635v85.301c0.003 0.174 0.004 0.379 0.004 0.584 0 23.567-19.104 42.671-42.671 42.671-0.234 0-0.468-0.002-0.702-0.006zM341.333 298.667c-0.179 0.003-0.391 0.004-0.603 0.004-23.567 0-42.671-19.104-42.671-42.671s19.104-42.671 42.671-42.671c0.212 0 0.424 0.002 0.635 0.005h341.301c0.179-0.003 0.391-0.004 0.603-0.004 23.567 0 42.671 19.104 42.671 42.671s-19.104 42.671-42.671 42.671c-0.212 0-0.424-0.002-0.635-0.005h-341.301z" />
<glyph unicode="&#xe926;" glyph-name="face-sad" d="M512 895.985c-258.7 0-469.318-210.618-469.318-469.318s210.618-469.318 469.318-469.318c258.7 0 469.318 210.618 469.318 469.318s-210.618 469.318-469.318 469.318zM512 810.682c212.583 0 384.015-171.432 384.015-384.015s-171.432-384.015-384.015-384.015c-212.583 0-384.015 171.432-384.015 384.015s171.432 384.015 384.015 384.015zM340.667 555.25c-23.278-0.375-42.004-19.334-42.004-42.666 0-0.205 0.001-0.411 0.004-0.615v-42.636c-0.003-0.179-0.004-0.391-0.004-0.603 0-23.567 19.104-42.671 42.671-42.671s42.671 19.104 42.671 42.671c0 0.212-0.002 0.424-0.005 0.635v42.635c0.003 0.174 0.004 0.379 0.004 0.584 0 23.567-19.104 42.671-42.671 42.671-0.234 0-0.468-0.002-0.702-0.006zM682 555.25c-23.278-0.375-42.004-19.334-42.004-42.666 0-0.205 0.001-0.411 0.004-0.615v-42.636c-0.003-0.179-0.004-0.391-0.004-0.603 0-23.567 19.104-42.671 42.671-42.671s42.671 19.104 42.671 42.671c0 0.212-0.002 0.424-0.005 0.635v42.635c0.003 0.174 0.004 0.379 0.004 0.584 0 23.567-19.104 42.671-42.671 42.671-0.234 0-0.468-0.002-0.702-0.006zM512.25 342.917c-71.366 0-139.273-36.702-201.333-99.667-7.908-7.751-12.81-18.544-12.81-30.482 0-23.567 19.104-42.671 42.671-42.671 12.186 0 23.179 5.108 30.955 13.3 52.133 52.894 98.113 74.185 140.518 74.185s88.201-21.259 139.917-74.083c7.796-8.234 18.804-13.358 31.009-13.358 23.567 0 42.671 19.104 42.671 42.671 0 11.873-4.849 22.614-12.676 30.349-61.697 63.020-129.555 99.754-200.921 99.754z" />
<glyph unicode="&#xe927;" glyph-name="family" d="M298.667 893.417c-98.125 0-173.083-78.124-173.083-168.083 0-44.593 18.46-86.207 49-116.917-78.213-42.226-131.917-122.793-131.917-215.917v-136.5c0.002-23.563 19.103-42.664 42.666-42.667h182.834c-8.335-24.211-13-50.029-13-76.833v-136.5c0-0.005 0-0.012 0-0.018 0-23.048 19.463-41.732 43.471-41.732 0.010 0 0.020 0 0.031 0h426.665c0.009 0 0.019 0 0.029 0 24.008 0 43.471 18.684 43.471 41.732 0 0.006 0 0.013 0 0.019v136.499c0 26.889-5.023 52.6-13.417 76.833h183.25c23.563 0.002 42.664 19.103 42.667 42.666v136.5c0 93.124-53.704 173.691-131.917 215.917 30.529 30.702 49 72.324 49 116.917 0 89.959-74.958 168.083-173.083 168.083s-173.083-78.124-173.083-168.083c0-41.203 16.267-79.459 42.75-109.333-24.517 13.176-52.411 21.417-83 21.417-30.596 0-58.473-8.232-83-21.417 26.491 29.865 42.75 68.126 42.75 109.333 0 89.959-74.958 168.083-173.083 168.083zM298.667 813.25c43.26 0 82.917-36.491 82.917-87.917 0-45.634-31.246-79.37-68.5-86.417-4.836 0.265-9.518 1.083-14.417 1.083-4.603 0-8.951-0.926-13.5-1.167-37.651 6.667-69.417 40.499-69.417 86.5 0 51.426 39.657 87.917 82.917 87.917zM725.333 813.25c43.26 0 82.917-36.491 82.917-87.917 0-46.001-31.759-79.829-69.417-86.5-4.549 0.241-8.897 1.167-13.5 1.167-4.898 0-9.58-0.819-14.417-1.083-37.261 7.051-68.5 40.783-68.5 86.417 0 51.426 39.657 87.917 82.917 87.917zM512 557.25c43.26 0 82.917-36.491 82.917-87.917 0-26.561-10.794-48.813-27-64.333-14.941-12.965-34.306-21-55.917-21-22.923 0-43.426 8.924-58.667 23.333-14.682 15.47-24.25 36.91-24.25 62 0 25.713 9.939 47.706 25.25 63.25s36.037 24.667 57.667 24.667zM298.667 554.667c20.913 0 37.595-10.031 55.833-16.833-9.821-21.177-15.583-44.332-15.583-68.5 0-44.712 18.73-86.271 49.417-117-26.181-13.924-49.463-32.211-69.083-53.667h-191.25v93.833c0 79.101 59.469 145.497 139.667 159.5 10.010 1.754 20.403 2.667 31 2.667zM725.333 554.667c10.597 0 20.99-0.912 31-2.667 80.197-14.003 139.667-80.399 139.667-159.5v-93.833h-191.917c-19.702 21.364-42.832 39.808-69.083 53.667 1.989 2.090 3.53 4.565 5.417 6.75 27.48 29.836 44.667 68.291 44.667 110.25 0 24.225-6.146 47.163-16.167 68.25 18.473 6.801 35.275 17.083 56.417 17.083zM512 298.667c10.597 0 20.99-0.912 31-2.667 22.308-3.887 43.023-11.924 61.333-23.167 8.287-5.088 15.964-11.018 23.167-17.333 2.172-1.944 4.186-4.033 6.25-6.083 4.394-4.277 8.464-8.797 12.333-13.5 22.154-27.522 35.75-61.777 35.75-99.417v-94.75h-339.667v94.75c0 38.306 14.112 73.003 36.917 100.75 25.003 29.732 60.565 51.545 101.917 58.75 10.010 1.754 20.403 2.667 31 2.667z" />
<glyph unicode="&#xe928;" glyph-name="fax" d="M426.667 853.334c-0.001 0-0.002 0-0.003 0-16.609 0-31.001-9.489-38.052-23.341l-128.112-256.242c-2.839-5.559-4.503-12.125-4.503-19.079 0-23.566 19.104-42.67 42.67-42.671h59l-11.833-23.583-42.667-85.333-29.833-59.583h-145.333c-0.003 0-0.006 0-0.009 0-22.27 0-40.324-20.060-40.324-44.804 0-0.010 0-0.020 0-0.030v-255.998c0-0.009 0-0.019 0-0.029 0-24.745 18.054-44.804 40.324-44.804 0.003 0 0.007 0 0.010 0h767.999c0.003 0 0.006 0 0.009 0 22.27 0 40.324 20.060 40.324 44.804 0 0.010 0 0.020 0 0.030v255.998c0 0.009 0 0.019 0 0.029 0 24.745-18.054 44.804-40.324 44.804-0.003 0-0.007 0-0.010 0h-185.833l96 192.083c2.839 5.559 4.503 12.125 4.503 19.079 0 23.566-19.104 42.67-42.669 42.671h-59l97.167 194.25c2.839 5.559 4.503 12.125 4.503 19.079 0 23.566-19.104 42.67-42.669 42.671h-341.333zM453 768h246l-97.167-194.25c-2.839-5.559-4.503-12.125-4.503-19.079 0-23.566 19.104-42.67 42.669-42.671h59l-84.25-168.5h-245.917l10.667 21.417 85.333 170.667c2.839 5.559 4.503 12.125 4.503 19.079 0 23.566-19.104 42.67-42.669 42.671h-59l85.333 170.667zM168.333 253.834h687.333v-166.333h-687.333v166.333z" />
<glyph unicode="&#xe929;" glyph-name="file" d="M170.667 896c-23.563-0.002-42.664-19.103-42.667-42.666v-853.334c0.002-23.563 19.103-42.664 42.666-42.667h682.667c23.563 0.002 42.664 19.103 42.667 42.666v704c-0.002 11.781-4.779 22.446-12.5 30.167l-149.333 149.333c-7.72 7.721-18.385 12.498-30.166 12.5h-533.334zM213.333 810.667h426.667v-128c0.002-23.563 19.103-42.664 42.667-42.667h128v-597.333h-597.333v768zM725.333 771.667l46.333-46.333h-46.333v46.333zM298.667 469.334c-0.179 0.003-0.391 0.004-0.603 0.004-23.567 0-42.671-19.104-42.671-42.671s19.104-42.671 42.671-42.671c0.212 0 0.424 0.002 0.635 0.005h426.635c0.179-0.003 0.391-0.004 0.603-0.004 23.567 0 42.671 19.104 42.671 42.671s-19.104 42.671-42.671 42.671c-0.212 0-0.424-0.002-0.635-0.005h-426.635zM298.667 597.334c-0.179 0.003-0.391 0.004-0.603 0.004-23.567 0-42.671-19.104-42.671-42.671s19.104-42.671 42.671-42.671c0.212 0 0.424 0.002 0.635 0.005h426.635c0.179-0.003 0.391-0.004 0.603-0.004 23.567 0 42.671 19.104 42.671 42.671s-19.104 42.671-42.671 42.671c-0.212 0-0.424-0.002-0.635-0.005h-426.635zM298.667 341.334c-0.179 0.003-0.391 0.004-0.603 0.004-23.567 0-42.671-19.104-42.671-42.671s19.104-42.671 42.671-42.671c0.212 0 0.424 0.002 0.635 0.005h426.635c0.179-0.003 0.391-0.004 0.603-0.004 23.567 0 42.671 19.104 42.671 42.671s-19.104 42.671-42.671 42.671c-0.212 0-0.424-0.002-0.635-0.005h-426.635zM298.667 213.334c-0.179 0.003-0.391 0.004-0.603 0.004-23.567 0-42.671-19.104-42.671-42.671s19.104-42.671 42.671-42.671c0.212 0 0.424 0.002 0.635 0.005h426.635c0.179-0.003 0.391-0.004 0.603-0.004 23.567 0 42.671 19.104 42.671 42.671s-19.104 42.671-42.671 42.671c-0.212 0-0.424-0.002-0.635-0.005h-426.635z" />
<glyph unicode="&#xe92a;" glyph-name="folder" d="M213.333 810.667c-0.001 0-0.002 0-0.003 0-16.609 0-31.001-9.489-38.052-23.341l-30.945-61.992h-59c-23.563-0.002-42.664-19.103-42.667-42.666v-597.334c0.002-23.563 19.103-42.664 42.666-42.667h853.334c23.563 0.002 42.664 19.103 42.667 42.666v597.334c-0.002 23.563-19.103 42.664-42.666 42.667h-400.334l-30.833 61.75c-7.163 14.095-21.555 23.583-38.164 23.583-0.001 0-0.002 0-0.003 0h-256zM239.667 725.334h203.333l30.833-61.75c7.163-14.095 21.555-23.583 38.164-23.583 0.001 0 0.002 0 0.003 0h384v-512h-768v512h42.667c0.001 0 0.002 0 0.003 0 16.609 0 31.001 9.489 38.052 23.341l30.945 61.992zM256 640c-0.179 0.003-0.391 0.004-0.603 0.004-23.567 0-42.671-19.104-42.671-42.671s19.104-42.671 42.671-42.671c0.212 0 0.424 0.002 0.635 0.005h191.968c0.179-0.003 0.391-0.004 0.603-0.004 23.567 0 42.671 19.104 42.671 42.671s-19.104 42.671-42.671 42.671c-0.212 0-0.424-0.002-0.635-0.005h-191.968z" />
<glyph unicode="&#xe92b;" glyph-name="gear" d="M455.583 806.5c-16.326-2.501-29.453-13.958-34.333-29.115-3.998-12.785-7.93-25.397-11.834-37.969-15.836-5.196-31.111-11.645-46-19.167-11.656 6.126-23.329 12.309-35 18.417-5.723 3.044-12.515 4.832-19.723 4.832-9.584 0-18.431-3.16-25.554-8.495-30.215-22.425-57.051-49.261-79.556-79.587-5.255-7.012-8.415-15.859-8.415-25.443 0-7.209 1.788-14 4.944-19.955 5.996-11.439 12.178-23.113 18.305-34.768-7.522-14.889-13.971-30.164-19.167-46-12.572-3.904-25.183-7.836-37.667-11.75-15.459-4.964-26.916-18.091-29.387-34.179-5.602-37.61-5.602-75.699-0.030-113.071 2.501-16.326 13.958-29.453 29.115-34.333 12.785-3.997 25.397-7.93 37.969-11.834 5.196-15.836 11.645-31.111 19.167-46-6.126-11.656-12.309-23.329-18.417-35-3.044-5.723-4.832-12.515-4.832-19.724 0-9.584 3.16-18.431 8.495-25.554 22.425-30.215 49.261-57.051 79.587-79.556 7.012-5.255 15.859-8.415 25.443-8.415 7.209 0 14 1.788 19.955 4.944 11.439 5.996 23.113 12.178 34.768 18.305 14.889-7.522 30.164-13.971 46-19.167 3.904-12.572 7.836-25.183 11.75-37.667 4.964-15.459 18.091-26.916 34.179-29.387 37.61-5.602 75.699-5.602 113.071-0.030 16.326 2.501 29.453 13.958 34.333 29.115 3.997 12.785 7.93 25.397 11.834 37.969 15.836 5.196 31.111 11.645 46 19.167 11.656-6.126 23.329-12.309 35-18.417 5.723-3.044 12.515-4.832 19.724-4.832 9.584 0 18.431 3.16 25.554 8.495 30.214 22.425 57.051 49.261 79.556 79.587 5.255 7.012 8.415 15.859 8.415 25.443 0 7.209-1.788 14-4.944 19.955-5.996 11.439-12.178 23.113-18.305 34.768 7.522 14.889 13.971 30.164 19.167 46 12.572 3.904 25.183 7.836 37.667 11.75 15.459 4.964 26.916 18.090 29.387 34.179 5.602 37.61 5.602 75.699 0.030 113.071-2.501 16.326-13.958 29.453-29.114 34.333-12.785 3.998-25.397 7.93-37.969 11.834-5.196 15.836-11.645 31.111-19.167 46 6.126 11.656 12.309 23.329 18.417 35 3.044 5.723 4.832 12.515 4.832 19.723 0 9.584-3.16 18.431-8.495 25.554-22.425 30.215-49.261 57.051-79.587 79.556-7.012 5.255-15.859 8.415-25.443 8.415-7.209 0-14-1.788-19.955-4.944-11.439-5.996-23.113-12.178-34.768-18.305-14.889 7.522-30.164 13.971-46 19.167-3.904 12.572-7.836 25.183-11.75 37.667-4.964 15.459-18.090 26.916-34.179 29.387-37.61 5.602-75.699 5.602-113.071 0.030zM493.417 722.084c12.397 0.778 24.77 0.778 37.167 0 2.742-8.803 5.461-17.62 8.167-26.417 4.535-14.379 16.089-25.299 30.54-28.856 25.513-6.102 49.614-16.089 71.71-29.644 6.362-3.975 14.089-6.332 22.367-6.332 7.272 0 14.119 1.819 20.112 5.027 7.953 4.201 16.164 8.504 24.355 12.805 9.273-8.189 17.978-16.894 26.167-26.167-4.301-8.191-8.604-16.402-12.917-24.583-3.096-5.763-4.915-12.611-4.915-19.883 0-8.278 2.357-16.005 6.437-22.547 13.45-21.915 23.437-46.017 29.479-71.236 3.618-14.744 14.538-26.299 28.614-30.751 9.099-2.788 17.916-5.507 26.719-8.249 0.778-12.397 0.778-24.77 0-37.167-8.803-2.742-17.62-5.461-26.417-8.167-14.379-4.535-25.299-16.089-28.856-30.54-6.102-25.513-16.089-49.614-29.644-71.71-3.975-6.362-6.332-14.089-6.332-22.367 0-7.272 1.819-14.119 5.027-20.112 4.201-7.953 8.504-16.164 12.805-24.355-8.189-9.273-16.894-17.978-26.167-26.167-8.191 4.301-16.402 8.604-24.583 12.917-5.763 3.096-12.611 4.915-19.883 4.915-8.278 0-16.005-2.357-22.547-6.437-21.915-13.45-46.017-23.437-71.236-29.479-14.744-3.618-26.299-14.538-30.751-28.614-2.788-9.099-5.507-17.916-8.249-26.719-12.397-0.778-24.77-0.778-37.167 0-2.742 8.803-5.461 17.62-8.167 26.417-4.535 14.379-16.089 25.298-30.54 28.856-25.513 6.102-49.614 16.089-71.71 29.644-6.362 3.975-14.089 6.332-22.367 6.332-7.272 0-14.119-1.819-20.112-5.027-7.953-4.2-16.164-8.504-24.355-12.805-9.273 8.189-17.978 16.894-26.167 26.167 4.301 8.191 8.604 16.402 12.917 24.583 3.096 5.763 4.915 12.611 4.915 19.883 0 8.278-2.357 16.005-6.437 22.547-13.45 21.915-23.438 46.017-29.479 71.236-3.618 14.744-14.538 26.299-28.614 30.751-9.099 2.788-17.916 5.507-26.719 8.249-0.778 12.397-0.778 24.77 0 37.167 8.803 2.742 17.62 5.461 26.417 8.167 14.379 4.535 25.299 16.089 28.856 30.54 6.102 25.513 16.089 49.614 29.644 71.71 3.975 6.362 6.332 14.089 6.332 22.367 0 7.272-1.819 14.119-5.027 20.112-4.201 7.953-8.504 16.164-12.805 24.355 8.189 9.273 16.894 17.978 26.167 26.167 8.191-4.301 16.402-8.604 24.583-12.917 5.763-3.096 12.611-4.915 19.883-4.915 8.278 0 16.005 2.357 22.547 6.437 21.915 13.45 46.017 23.438 71.236 29.479 14.744 3.618 26.299 14.538 30.751 28.614 2.788 9.099 5.507 17.916 8.249 26.719zM512 553.334c-69.459 0-126.667-57.208-126.667-126.667s57.208-126.667 126.667-126.667c69.459 0 126.667 57.208 126.667 126.667s-57.208 126.667-126.667 126.667zM512 468c23.299 0 41.333-18.035 41.333-41.333s-18.035-41.333-41.333-41.333c-23.299 0-41.333 18.035-41.333 41.333s18.035 41.333 41.333 41.333z" />
<glyph unicode="&#xe92c;" glyph-name="heart" d="M376.083 782.917c-66.745 11.151-134.691-8.33-180.917-52.25-46.222-43.917-67.167-107.713-67.167-176 0-68.135 20.18-142.372 58.667-215.667 58.267-118.014 191.663-219.545 302.5-289.75 6.468-4.155 14.362-6.623 22.833-6.623s16.366 2.468 23.004 6.725c110.666 70.103 244.062 171.634 302.33 289.648 38.487 73.295 58.667 147.531 58.667 215.667 0 68.287-20.944 132.083-67.167 176-81.163 77.114-225.861 72.299-316.833-34.833-39.16 46.116-85.47 78.655-135.917 87.083zM360.5 701.917c41.052-5.916 83.285-32.443 113.75-90.333 7.302-13.649 21.46-22.778 37.75-22.778s30.448 9.128 37.638 22.549c61.041 116.008 169.195 106.173 220.445 57.479 25.628-24.35 40.583-62.987 40.583-114.167s-15.804-113.337-49-176.417c-0.059-0.091-0.226-0.419-0.389-0.75-39.567-80.567-150.022-172.718-249.278-238.834-99.256 66.115-209.711 158.266-249.167 238.583-0.274 0.581-0.441 0.909-0.612 1.234-33.084 62.846-48.888 125.003-48.888 176.183s14.955 89.817 40.583 114.167c25.625 24.347 65.531 38.999 106.583 33.083z" />
<glyph unicode="&#xe92d;" glyph-name="help" d="M512 853.281c-235.094 0-426.614-191.519-426.614-426.614s191.519-426.614 426.614-426.614c235.094 0 426.614 191.519 426.614 426.614s-191.519 426.614-426.614 426.614zM512 768.053c189.061 0 341.386-152.326 341.386-341.386s-152.326-341.386-341.386-341.386c-189.061 0-341.386 152.326-341.386 341.386s152.326 341.386 341.386 341.386zM517.689 683.781c-46.453 0-85.131-13.551-112.834-37.992-22.934-20.178-38.406-46.673-46.908-74.697-2.164-6.927-3.438-13.596-3.438-21.718 0-17.21 8.429-34.72 18.408-44.49s20.184-13.982 29.276-16.508c0.937-0.29 2.19-0.594 3.462-0.838 2.978-0.52 7.948-1.562 15.279-1.562 21.992 0 50.492 20.718 58.386 45.72 6.287 19.616 8.535 25.231 36.096 25.231 14.74 0 22.275-3.947 24.729-6.030s2.828-1.746 2.828-8.254c0-5.936 0.972-1.867-0.721-4.215s-9.5-10.167-25.228-21.835c-12.842-9.171-28.749-19.686-43.858-35.065-15.295-15.569-31.494-39.632-31.494-70.482v-13.464c0-17.455 8.667-37.45 21.846-48.413s27.719-14.050 40.532-14.050c12.862 0 27.683 3.4 40.643 14.694 12.546 10.933 19.646 29.736 20.127 46.247 5.853 4.685 16.089 12.124 33.379 24.879 0.028 0.028 0.046 0.047 0.065 0.066 19.178 14.198 36.634 28.931 50.172 49.517s21.070 46.946 21.070 74.053c0 40.612-16.828 79.058-45.245 103.557s-65.77 35.651-106.57 35.651zM512 298.67c-39.073 0-71.683-32.61-71.683-71.683s32.61-71.683 71.683-71.683c39.073 0 71.683 32.61 71.683 71.683s-32.61 71.683-71.683 71.683z" />
<glyph unicode="&#xe92e;" glyph-name="here-left" d="M938.667 725.334c23.559-0.010 42.654-19.11 42.654-42.671 0-11.778-4.772-22.442-12.488-30.163l-225.833-225.833 225.833-225.833c7.716-7.721 12.488-18.384 12.488-30.162 0-23.561-19.095-42.661-42.653-42.671h-597.334c-11.781 0.002-22.446 4.779-30.167 12.5l-256 256c-7.718 7.721-12.492 18.387-12.492 30.167s4.774 22.445 12.492 30.167l256 256c7.72 7.721 18.385 12.498 30.166 12.5h597.334zM835.667 640h-476.667l-213.333-213.333 213.333-213.333h476.667l-183.167 183.167c-7.718 7.721-12.492 18.387-12.492 30.167s4.774 22.445 12.492 30.167l183.167 183.167z" />
<glyph unicode="&#xe92f;" glyph-name="here-right" d="M85.333 725.334c-23.559-0.010-42.654-19.11-42.654-42.671 0-11.778 4.772-22.442 12.488-30.163l225.833-225.833-225.833-225.833c-7.716-7.721-12.488-18.384-12.488-30.162 0-23.561 19.095-42.661 42.653-42.671h597.334c11.781 0.002 22.446 4.779 30.167 12.5l256 256c7.718 7.721 12.492 18.387 12.492 30.167s-4.774 22.445-12.492 30.167l-256 256c-7.72 7.721-18.385 12.498-30.166 12.5h-597.334zM188.333 640h476.667l213.333-213.333-213.333-213.333h-476.667l183.167 183.167c7.718 7.721 12.492 18.387 12.492 30.167s-4.774 22.445-12.492 30.167l-183.167 183.167z" />
<glyph unicode="&#xe930;" glyph-name="home" d="M511.333 725.334c-11.539-0.19-21.934-4.93-29.5-12.5l-341.334-341.334c-7.721-7.72-12.498-18.385-12.5-30.166v-341.334c0.002-23.563 19.103-42.664 42.666-42.667h682.667c23.563 0.002 42.664 19.103 42.667 42.666v341.334c-0.002 11.781-4.779 22.446-12.5 30.167l-341.333 341.333c-7.723 7.726-18.393 12.505-30.18 12.505-0.23 0-0.459-0.002-0.688-0.005zM512 622.334l298.667-298.667v-281h-597.333v281l298.667 298.667zM511.333 896c-11.539-0.19-21.934-4.93-29.5-12.5l-426.667-426.667c-8.091-7.778-13.118-18.692-13.118-30.781 0-23.567 19.104-42.671 42.671-42.671 12.089 0 23.003 5.027 30.767 13.104l396.513 396.514 396.5-396.5c7.778-8.092 18.692-13.118 30.781-13.118 23.567 0 42.671 19.104 42.671 42.671 0 12.089-5.027 23.003-13.104 30.767l-426.681 426.68c-7.723 7.726-18.393 12.505-30.18 12.505-0.23 0-0.459-0.002-0.688-0.005zM426.667 170.667c-0.179 0.003-0.391 0.004-0.603 0.004-23.567 0-42.671-19.104-42.671-42.671s19.104-42.671 42.671-42.671c0.212 0 0.424 0.002 0.635 0.005h170.635c0.179-0.003 0.391-0.004 0.603-0.004 23.567 0 42.671 19.104 42.671 42.671s-19.104 42.671-42.671 42.671c-0.212 0-0.424-0.002-0.635-0.005h-170.635zM426.667 298.667c-0.179 0.003-0.391 0.004-0.603 0.004-23.567 0-42.671-19.104-42.671-42.671s19.104-42.671 42.671-42.671c0.212 0 0.424 0.002 0.635 0.005h170.635c0.179-0.003 0.391-0.004 0.603-0.004 23.567 0 42.671 19.104 42.671 42.671s-19.104 42.671-42.671 42.671c-0.212 0-0.424-0.002-0.635-0.005h-170.635z" />
<glyph unicode="&#xe931;" glyph-name="hospital" d="M128 853.334c-23.563-0.002-42.664-19.103-42.667-42.666v-768c0.002-23.563 19.103-42.664 42.666-42.667h768c23.563 0.002 42.664 19.103 42.667 42.666v768c-0.002 23.563-19.103 42.664-42.666 42.667h-768zM170.667 768h682.667v-682.667h-682.667v682.667zM256 725.334c-23.563-0.002-42.664-19.103-42.667-42.666v-512c0.002-23.563 19.103-42.664 42.666-42.667h128c23.563 0.002 42.664 19.103 42.667 42.666v170.667h170.667v-170.667c0.002-23.563 19.103-42.664 42.666-42.667h128c23.563 0.002 42.664 19.103 42.667 42.666v512c-0.002 23.563-19.103 42.664-42.666 42.667h-128c-23.563-0.002-42.664-19.103-42.667-42.666v-128h-170.667v128c-0.002 23.563-19.103 42.664-42.666 42.667h-128zM298.667 640h42.667v-128c0.002-23.563 19.103-42.664 42.666-42.667h256c23.563 0.002 42.664 19.103 42.667 42.666v128h42.667v-426.667h-42.667v170.667c-0.002 23.563-19.103 42.664-42.666 42.667h-256c-23.563-0.002-42.664-19.103-42.667-42.666v-170.667h-42.667v426.667z" />
<glyph unicode="&#xe932;" glyph-name="inbox-full" d="M128 341.334c-23.563-0.002-42.664-19.103-42.667-42.666v-256c0.002-23.563 19.103-42.664 42.666-42.667h768c23.563 0.002 42.664 19.103 42.667 42.666v256c-0.002 23.563-19.103 42.664-42.666 42.667h-170.667c-11.781-0.002-22.446-4.779-30.167-12.5l-72.833-72.833h-220.667l-72.833 72.833c-7.72 7.721-18.385 12.498-30.166 12.5h-170.667zM170.667 256h110.333l72.833-72.833c7.72-7.721 18.385-12.498 30.166-12.5h256c11.781 0.002 22.446 4.779 30.167 12.5l72.833 72.833h110.333v-170.667h-682.667v170.667zM170.667 469.334c-0.179 0.003-0.391 0.004-0.603 0.004-23.567 0-42.671-19.104-42.671-42.671s19.104-42.671 42.671-42.671c0.212 0 0.424 0.002 0.635 0.005h682.635c0.179-0.003 0.391-0.004 0.603-0.004 23.567 0 42.671 19.104 42.671 42.671s-19.104 42.671-42.671 42.671c-0.212 0-0.424-0.002-0.635-0.005h-682.635zM170.667 597.334c-0.179 0.003-0.391 0.004-0.603 0.004-23.567 0-42.671-19.104-42.671-42.671s19.104-42.671 42.671-42.671c0.212 0 0.424 0.002 0.635 0.005h682.635c0.179-0.003 0.391-0.004 0.603-0.004 23.567 0 42.671 19.104 42.671 42.671s-19.104 42.671-42.671 42.671c-0.212 0-0.424-0.002-0.635-0.005h-682.635zM170.667 725.334c-0.179 0.003-0.391 0.004-0.603 0.004-23.567 0-42.671-19.104-42.671-42.671s19.104-42.671 42.671-42.671c0.212 0 0.424 0.002 0.635 0.005h682.635c0.179-0.003 0.391-0.004 0.603-0.004 23.567 0 42.671 19.104 42.671 42.671s-19.104 42.671-42.671 42.671c-0.212 0-0.424-0.002-0.635-0.005h-682.635z" />
<glyph unicode="&#xe933;" glyph-name="inbox" d="M128 341.334c-23.563-0.002-42.664-19.103-42.667-42.666v-256c0.002-23.563 19.103-42.664 42.666-42.667h768c23.563 0.002 42.664 19.103 42.667 42.666v256c-0.002 23.563-19.103 42.664-42.666 42.667h-170.667c-11.781-0.002-22.446-4.779-30.167-12.5l-72.833-72.833h-220.667l-72.833 72.833c-7.72 7.721-18.385 12.498-30.166 12.5h-170.667zM170.667 256h110.333l72.833-72.833c7.72-7.721 18.385-12.498 30.166-12.5h256c11.781 0.002 22.446 4.779 30.167 12.5l72.833 72.833h110.333v-170.667h-682.667v170.667z" />
<glyph unicode="&#xe934;" glyph-name="key-command" d="M298.667 768c-70.187 0-128-57.813-128-128 0-67.054 52.921-122.239 118.833-127.083 2.647-0.584 5.686-0.918 8.804-0.918 0.127 0 0.255 0.001 0.382 0.002h42.647v-170.667h-42.667c-0.131 0.001-0.287 0.002-0.442 0.002-3.119 0-6.16-0.335-9.089-0.97-65.592-4.834-118.469-60.006-118.469-127.032 0-70.187 57.813-128 128-128 67.054 0 122.239 52.921 127.083 118.833 0.584 2.647 0.918 5.686 0.918 8.804 0 0.127-0.001 0.255-0.002 0.382v42.647h170.667v-42.667c-0.001-0.131-0.002-0.287-0.002-0.442 0-3.119 0.335-6.16 0.97-9.089 4.834-65.592 60.006-118.469 127.032-118.469 70.187 0 128 57.813 128 128 0 67.054-52.921 122.239-118.833 127.083-2.647 0.584-5.686 0.918-8.804 0.918-0.127 0-0.255-0.001-0.382-0.002h-42.647v170.667h42.667c0.131-0.001 0.287-0.002 0.442-0.002 3.119 0 6.16 0.335 9.089 0.97 65.592 4.834 118.469 60.006 118.469 127.032 0 70.187-57.813 128-128 128-67.11 0-122.32-53.010-127.083-119-0.583-2.645-0.917-5.683-0.917-8.799 0-0.071 0-0.141 0.001-0.212v-42.656h-170.667v42.667c0.001 0.131 0.002 0.287 0.002 0.442 0 3.119-0.335 6.16-0.97 9.089-4.834 65.592-60.006 118.469-127.032 118.469zM298.667 682.667c24.070 0 42.667-18.597 42.667-42.667s-18.597-42.667-42.667-42.667c-24.070 0-42.667 18.597-42.667 42.667s18.597 42.667 42.667 42.667zM725.333 682.667c24.070 0 42.667-18.597 42.667-42.667s-18.597-42.667-42.667-42.667c-24.070 0-42.667 18.597-42.667 42.667s18.597 42.667 42.667 42.667zM426.667 512h170.667v-170.667h-170.667v170.667zM298.667 256c24.070 0 42.667-18.597 42.667-42.667s-18.597-42.667-42.667-42.667c-24.070 0-42.667 18.597-42.667 42.667s18.597 42.667 42.667 42.667zM725.333 256c24.070 0 42.667-18.597 42.667-42.667s-18.597-42.667-42.667-42.667c-24.070 0-42.667 18.597-42.667 42.667s18.597 42.667 42.667 42.667z" />
<glyph unicode="&#xe935;" glyph-name="key" d="M810 896c-11.539-0.19-21.934-4.93-29.5-12.5l-371.5-371.5h-110.333c-11.781-0.002-22.446-4.779-30.167-12.5l-170.667-170.667c-7.721-7.72-12.498-18.385-12.5-30.166v-128c0.002-11.781 4.779-22.446 12.5-30.167l128-128c7.72-7.721 18.385-12.498 30.166-12.5h128c11.781 0.002 22.446 4.779 30.167 12.5l170.667 170.667c7.721 7.72 12.498 18.385 12.5 30.166v110.334l72.833 72.833c7.721 7.72 12.498 18.385 12.5 30.166h42.667c23.563 0.002 42.664 19.103 42.667 42.666v42.667h42.667c23.563 0.002 42.664 19.103 42.667 42.666v42.667h42.667c23.563 0.002 42.664 19.103 42.667 42.666v128c-0.002 11.781-4.779 22.446-12.5 30.167l-85.333 85.333c-7.723 7.726-18.393 12.505-30.18 12.505-0.23 0-0.459-0.002-0.688-0.005zM810.667 793l42.667-42.667v-67.667h-42.667c-23.563-0.002-42.664-19.103-42.667-42.666v-42.667h-42.667c-23.563-0.002-42.664-19.103-42.667-42.666v-42.667h-42.667c-23.563-0.002-42.664-19.103-42.667-42.666v-25l-72.833-72.833c-7.721-7.72-12.498-18.385-12.5-30.166v-110.334l-145.667-145.667h-92.667l-103 103v92.667l145.667 145.667h110.333c11.781 0.002 22.446 4.779 30.167 12.5l353.833 353.833zM298.25 299.084c-23.562-0.006-42.66-19.108-42.66-42.671 0-11.987 4.942-22.819 12.9-30.57l42.676-42.676c7.778-8.091 18.692-13.118 30.781-13.118 23.567 0 42.671 19.104 42.671 42.671 0 12.089-5.027 23.003-13.104 30.767l-42.681 42.68c-7.76 7.971-18.594 12.916-30.583 12.917z" />
<glyph unicode="&#xe936;" glyph-name="laptop" d="M170.667 768c-23.563-0.002-42.664-19.103-42.667-42.666v-416.584l-80.833-161.667c-2.837-5.557-4.5-12.121-4.5-19.073 0-0.004 0-0.007 0-0.011v-42.666c0.002-23.563 19.103-42.664 42.666-42.667h853.334c23.563 0.002 42.664 19.103 42.667 42.666v42.667c0 0.003 0 0.007 0 0.010 0 6.952-1.663 13.516-4.612 19.316l-80.721 161.424v416.583c-0.002 23.563-19.103 42.664-42.666 42.667h-682.667zM213.333 682.667h597.333v-341.333h-597.333v341.333zM197 256h630l64-128h-758l64 128z" />
<glyph unicode="&#xe937;" glyph-name="lightbulb" d="M512 896c-164.37 0-298.667-134.296-298.667-298.667 0-97.348 46.994-184.367 119.417-238.833 0.531-0.406 1.183-0.872 1.848-1.32 5.404-3.589 6.419-3.585 6.736-16.847v-84.333c0.002-23.563 19.103-42.664 42.666-42.667h256c23.563 0.002 42.664 19.103 42.667 42.666v84.334c0.329 14.155 1.289 13.478 5.583 16.167 1.191 0.725 2.169 1.385 3.118 2.083 72.305 54.384 119.299 141.403 119.299 238.751 0 164.37-134.296 298.667-298.667 298.667zM512 810.667c118.168 0 213.333-95.165 213.333-213.333 0-69.991-33.511-131.61-85.333-170.583l3 2c-28.815-18.047-44.886-52.87-45.667-86.416-0.002-0.149-0.003-0.324-0.003-0.5s0.001-0.351 0.003-0.527v-42.64h-170.667v42.667c0.002 0.149 0.003 0.324 0.003 0.5s-0.001 0.351-0.003 0.527c-0.792 33.133-16.809 67.283-44.666 85.807l2-1.417c-51.823 38.974-85.333 100.592-85.333 170.583 0 118.168 95.165 213.333 213.333 213.333zM426.667 42.667c-0.179 0.003-0.391 0.004-0.603 0.004-23.567 0-42.671-19.104-42.671-42.671s19.104-42.671 42.671-42.671c0.212 0 0.424 0.002 0.635 0.005h170.635c0.179-0.003 0.391-0.004 0.603-0.004 23.567 0 42.671 19.104 42.671 42.671s-19.104 42.671-42.671 42.671c-0.212 0-0.424-0.002-0.635-0.005h-170.635zM384 170.667c-0.179 0.003-0.391 0.004-0.603 0.004-23.567 0-42.671-19.104-42.671-42.671s19.104-42.671 42.671-42.671c0.212 0 0.424 0.002 0.635 0.005h255.968c0.179-0.003 0.391-0.004 0.603-0.004 23.567 0 42.671 19.104 42.671 42.671s-19.104 42.671-42.671 42.671c-0.212 0-0.424-0.002-0.635-0.005h-255.968z" />
<glyph unicode="&#xe938;" glyph-name="lock-closed" d="M512 853.417c-164.406 0-298.75-134.344-298.75-298.75v-85.333h-42.583c-23.563-0.002-42.664-19.103-42.667-42.666v-384c0.002-23.563 19.103-42.664 42.666-42.667h682.667c23.563 0.002 42.664 19.103 42.667 42.666v384c-0.002 23.563-19.103 42.664-42.666 42.667h-42.584v85.333c0 146.122-105.738 268.544-245.083 293.917-17.473 3.18-35.402 4.833-53.667 4.833zM512 767.917c13.16 0 26.002-1.157 38.417-3.417 99.311-18.083 174.833-104.82 174.833-209.833v-85.333h-426.5v85.333c0 118.154 95.096 213.25 213.25 213.25zM213.333 384h597.333v-298.667h-597.333v298.667zM298.667 213.334c-0.179 0.003-0.391 0.004-0.603 0.004-23.567 0-42.671-19.104-42.671-42.671s19.104-42.671 42.671-42.671c0.212 0 0.424 0.002 0.635 0.005h426.635c0.179-0.003 0.391-0.004 0.603-0.004 23.567 0 42.671 19.104 42.671 42.671s-19.104 42.671-42.671 42.671c-0.212 0-0.424-0.002-0.635-0.005h-426.635zM298.667 341.334c-0.179 0.003-0.391 0.004-0.603 0.004-23.567 0-42.671-19.104-42.671-42.671s19.104-42.671 42.671-42.671c0.212 0 0.424 0.002 0.635 0.005h426.635c0.179-0.003 0.391-0.004 0.603-0.004 23.567 0 42.671 19.104 42.671 42.671s-19.104 42.671-42.671 42.671c-0.212 0-0.424-0.002-0.635-0.005h-426.635z" />
<glyph unicode="&#xe939;" glyph-name="lock-open" d="M512 896.084c-164.406 0-298.75-134.344-298.75-298.75v-170.667h-42.583c-23.563-0.002-42.664-19.103-42.667-42.666v-384c0.002-23.563 19.103-42.664 42.666-42.667h682.667c23.563 0.002 42.664 19.103 42.667 42.666v384c-0.002 23.563-19.103 42.664-42.666 42.667h-554.584v170.667c0 118.154 95.096 213.25 213.25 213.25 13.16 0 26.002-1.157 38.417-3.417 99.311-18.083 174.833-104.82 174.833-209.833v-42.583c0-57 85.5-57 85.5 0v42.583c0 146.122-105.738 268.544-245.083 293.917-17.473 3.18-35.402 4.833-53.667 4.833zM213.333 341.334h597.333v-298.667h-597.333v298.667zM298.667 170.667c-0.179 0.003-0.391 0.004-0.603 0.004-23.567 0-42.671-19.104-42.671-42.671s19.104-42.671 42.671-42.671c0.212 0 0.424 0.002 0.635 0.005h426.635c0.179-0.003 0.391-0.004 0.603-0.004 23.567 0 42.671 19.104 42.671 42.671s-19.104 42.671-42.671 42.671c-0.212 0-0.424-0.002-0.635-0.005h-426.635zM298.667 298.667c-0.179 0.003-0.391 0.004-0.603 0.004-23.567 0-42.671-19.104-42.671-42.671s19.104-42.671 42.671-42.671c0.212 0 0.424 0.002 0.635 0.005h426.635c0.179-0.003 0.391-0.004 0.603-0.004 23.567 0 42.671 19.104 42.671 42.671s-19.104 42.671-42.671 42.671c-0.212 0-0.424-0.002-0.635-0.005h-426.635z" />
<glyph unicode="&#xe93a;" glyph-name="magnifier" d="M682 384c-11.539-0.19-21.934-4.93-29.5-12.5l-85.333-85.333c-7.718-7.721-12.492-18.387-12.492-30.167s4.774-22.445 12.492-30.167l256-256c7.721-7.718 18.387-12.492 30.167-12.492s22.445 4.774 30.167 12.492l85.333 85.333c7.718 7.721 12.492 18.387 12.492 30.167s-4.774 22.445-12.492 30.167l-256 256c-7.723 7.726-18.393 12.505-30.18 12.505-0.23 0-0.459-0.002-0.688-0.005zM682.667 281l195.667-195.667-25-25-195.667 195.667 25 25zM362.667 896.017c-176.249 0-320.017-143.768-320.017-320.017s143.768-320.017 320.017-320.017c176.249 0 320.017 143.768 320.017 320.017s-143.768 320.017-320.017 320.017zM362.667 810.65c130.085 0 234.65-104.565 234.65-234.65s-104.565-234.65-234.65-234.65c-130.085 0-234.65 104.565-234.65 234.65s104.565 234.65 234.65 234.65z" />
<glyph unicode="&#xe93b;" glyph-name="map" d="M682 896c-11.539-0.19-21.934-4.93-29.5-12.5l-311.167-311.167-183.167 183.167c-7.721 7.716-18.384 12.488-30.162 12.488-23.561 0-42.661-19.095-42.671-42.653v-512.001c0.002-11.781 4.779-22.446 12.5-30.167l213.333-213.333c7.721-7.718 18.387-12.492 30.167-12.492s22.445 4.774 30.167 12.492l311.167 311.167 183.167-183.167c7.721-7.716 18.384-12.488 30.162-12.488 23.561 0 42.661 19.095 42.671 42.653v512.001c-0.002 11.781-4.779 22.446-12.5 30.167l-213.333 213.333c-7.723 7.726-18.393 12.505-30.18 12.505-0.23 0-0.459-0.002-0.688-0.005zM682.667 793l170.667-170.667v-391.333l-140.5 140.5c-7.721 7.718-18.387 12.492-30.167 12.492s-22.445-4.774-30.167-12.492l-311.167-311.167-170.667 170.667v391.333l140.5-140.5c7.721-7.718 18.387-12.492 30.167-12.492s22.445 4.774 30.167 12.492l311.167 311.167z" />
<glyph unicode="&#xe93c;" glyph-name="menu" d="M128 682.667c-0.179 0.003-0.391 0.004-0.603 0.004-23.567 0-42.671-19.104-42.671-42.671s19.104-42.671 42.671-42.671c0.212 0 0.424 0.002 0.635 0.005h767.968c0.179-0.003 0.391-0.004 0.603-0.004 23.567 0 42.671 19.104 42.671 42.671s-19.104 42.671-42.671 42.671c-0.212 0-0.424-0.002-0.635-0.005h-767.968zM128 469.334c-0.179 0.003-0.391 0.004-0.603 0.004-23.567 0-42.671-19.104-42.671-42.671s19.104-42.671 42.671-42.671c0.212 0 0.424 0.002 0.635 0.005h767.968c0.179-0.003 0.391-0.004 0.603-0.004 23.567 0 42.671 19.104 42.671 42.671s-19.104 42.671-42.671 42.671c-0.212 0-0.424-0.002-0.635-0.005h-767.968zM128 256c-0.179 0.003-0.391 0.004-0.603 0.004-23.567 0-42.671-19.104-42.671-42.671s19.104-42.671 42.671-42.671c0.212 0 0.424 0.002 0.635 0.005h767.968c0.179-0.003 0.391-0.004 0.603-0.004 23.567 0 42.671 19.104 42.671 42.671s-19.104 42.671-42.671 42.671c-0.212 0-0.424-0.002-0.635-0.005h-767.968z" />
<glyph unicode="&#xe93d;" glyph-name="message" d="M85.333 768c-23.563-0.002-42.664-19.103-42.667-42.666v-512c0.002-23.563 19.103-42.664 42.666-42.667h238.334l158.167-158.167c7.721-7.716 18.384-12.488 30.162-12.488 23.561 0 42.661 19.095 42.671 42.653v128.001h384c23.563 0.002 42.664 19.103 42.667 42.666v512c-0.002 23.563-19.103 42.664-42.666 42.667h-853.334zM128 682.667h768v-426.667h-384c-23.563-0.002-42.664-19.103-42.667-42.666v-67.667l-97.833 97.833c-7.72 7.721-18.385 12.498-30.166 12.5h-213.334v426.667z" />
<glyph unicode="&#xe93e;" glyph-name="minus" d="M128 469.334c-0.179 0.003-0.391 0.004-0.603 0.004-23.567 0-42.671-19.104-42.671-42.671s19.104-42.671 42.671-42.671c0.212 0 0.424 0.002 0.635 0.005h767.968c0.179-0.003 0.391-0.004 0.603-0.004 23.567 0 42.671 19.104 42.671 42.671s-19.104 42.671-42.671 42.671c-0.212 0-0.424-0.002-0.635-0.005h-767.968z" />
<glyph unicode="&#xe93f;" glyph-name="mobile" d="M256 896c-23.563-0.002-42.664-19.103-42.667-42.666v-853.334c0.002-23.563 19.103-42.664 42.666-42.667h512c23.563 0.002 42.664 19.103 42.667 42.666v853.334c-0.002 23.563-19.103 42.664-42.666 42.667h-512zM298.667 810.667h426.667v-768h-426.667v768zM469.333 170.667c-0.179 0.003-0.391 0.004-0.603 0.004-23.567 0-42.671-19.104-42.671-42.671s19.104-42.671 42.671-42.671c0.212 0 0.424 0.002 0.635 0.005h85.301c0.179-0.003 0.391-0.004 0.603-0.004 23.567 0 42.671 19.104 42.671 42.671s-19.104 42.671-42.671 42.671c-0.212 0-0.424-0.002-0.635-0.005h-85.301z" />
<glyph unicode="&#xe940;" glyph-name="moon" d="M654.333 825.75c-23.239-0.425-41.914-19.364-41.914-42.664 0-5.736 1.132-11.207 3.184-16.203 15.698-38.973 24.397-81.843 24.397-126.882 0-188.83-152.504-341.333-341.333-341.333-45.039 0-87.91 8.699-127.167 24.5-4.707 1.945-10.174 3.074-15.903 3.074-23.567 0-42.671-19.104-42.671-42.671 0-5.73 1.129-11.196 3.178-16.188 62.995-156.702 216.947-267.382 395.897-267.382 235.021 0 426.667 191.646 426.667 426.667 0 178.949-110.681 332.902-267.667 396-4.718 1.955-10.197 3.090-15.941 3.090-0.255 0-0.51-0.002-0.764-0.007zM713.833 699.75c83.96-62.11 139.5-160.39 139.5-273.083 0-188.83-152.504-341.333-341.333-341.333-112.693 0-210.973 55.54-273.083 139.5 20.297-2.973 38.677-11.5 59.75-11.5 235.021 0 426.667 191.646 426.667 426.667 0 21.073-8.527 39.453-11.5 59.75z" />
<glyph unicode="&#xe941;" glyph-name="paperclip" d="M512 896c-139.382 0-253.392-112.822-255.75-251.667-0.149-1.288-0.239-2.794-0.25-4.318v-469.349c-0.002-0.155-0.003-0.338-0.003-0.521 0-3.121 0.335-6.163 0.971-9.094 4.96-100.892 88.682-182.385 191.032-182.385 102.378 0 186.117 81.539 191.083 182.75 0.584 2.648 0.919 5.689 0.919 8.808 0 0.155-0.001 0.311-0.002 0.466 0.034 0.611 0.053 1.354 0.053 2.101s-0.019 1.49-0.057 2.228l0.004 464.98c0.001 0.131 0.002 0.287 0.002 0.442 0 3.119-0.335 6.16-0.97 9.089-4.834 65.594-60.004 118.469-127.032 118.469-67.112 0-122.321-53.009-127.083-119-0.583-2.645-0.917-5.683-0.917-8.799 0-0.071 0-0.141 0.001-0.211v-383.989c-0.003-0.179-0.004-0.391-0.004-0.603 0-23.567 19.104-42.671 42.671-42.671s42.671 19.104 42.671 42.671c0 0.212-0.002 0.424-0.005 0.635v383.968c0 24.019 18.648 42.667 42.667 42.667s42.667-18.648 42.667-42.667v-465.667c-0.025-0.547-0.039-1.189-0.039-1.833s0.014-1.286 0.043-1.924c-0.003-59.233-47.346-106.576-106.67-106.576s-106.667 47.343-106.667 106.667v469.333c0 94.675 75.992 170.667 170.667 170.667s170.667-75.992 170.667-170.667v-469.333c-0.003-0.179-0.004-0.391-0.004-0.603 0-23.567 19.104-42.671 42.671-42.671s42.671 19.104 42.671 42.671c0 0.212-0.002 0.424-0.005 0.635v469.301c0 0.064 0.001 0.14 0.001 0.216 0 1.627-0.091 3.232-0.268 4.811-2.607 138.42-116.518 250.973-255.732 250.973z" />
<glyph unicode="&#xe942;" glyph-name="pencil" d="M639.333 725.334c-11.539-0.19-21.934-4.93-29.5-12.5l-469.334-469.334c-5.324-5.314-9.252-12.025-11.185-19.537l-42.731-170.963c-0.81-3.109-1.275-6.677-1.275-10.354 0-23.567 19.104-42.671 42.671-42.671 3.677 0 7.246 0.465 10.65 1.34l170.371 42.602c7.808 1.998 14.52 5.926 19.833 11.249l469.334 469.334c7.718 7.721 12.492 18.387 12.492 30.167s-4.774 22.445-12.492 30.167l-128 128c-7.723 7.726-18.393 12.505-30.18 12.505-0.23 0-0.459-0.002-0.688-0.005zM640 622.334l67.667-67.667-430.833-430.833-90.167-22.5 22.5 90.167 430.833 430.833zM724.917 811.084c-23.562-0.006-42.66-19.108-42.66-42.671 0-11.987 4.942-22.819 12.9-30.57l128.009-128.009c7.778-8.091 18.692-13.118 30.781-13.118 23.567 0 42.671 19.104 42.671 42.671 0 12.089-5.027 23.003-13.104 30.767l-128.014 128.013c-7.76 7.971-18.594 12.916-30.583 12.917zM810.25 896.417c-23.562-0.006-42.66-19.108-42.66-42.671 0-11.987 4.942-22.819 12.9-30.57l128.009-128.009c7.778-8.091 18.692-13.118 30.781-13.118 23.567 0 42.671 19.104 42.671 42.671 0 12.089-5.027 23.003-13.104 30.767l-128.014 128.013c-7.76 7.971-18.594 12.916-30.583 12.917z" />
<glyph unicode="&#xe943;" glyph-name="people" d="M512 594.75c-58.83 0-102-46.329-102-97 0-17.616 5.475-34.537 14.75-49.333-24.888-23.417-40.75-56.324-40.75-92.833v-56.917c0.002-23.563 19.103-42.664 42.666-42.667h170.667c23.563 0.002 42.664 19.103 42.667 42.666v56.917c0 36.573-15.843 69.484-40.75 92.917 9.251 14.782 14.75 31.658 14.75 49.25 0 50.671-43.17 97-102 97zM512 514.584c4.008 0 11.833-4.666 11.833-16.833 0-8.691-3.849-12.519-7.583-14.583-1.434 0.047-2.81 0.417-4.25 0.417-1.424 0-2.753-0.369-4.167-0.417-3.754 2.042-7.667 5.838-7.667 14.583 0 12.167 7.826 16.833 11.833 16.833zM512 398.25c2.688 0 5.211-0.303 7.667-0.75 19.784-3.602 35-20.589 35-41.917v-14.25h-85.333v14.25c0 23.996 18.67 42.667 42.667 42.667zM853.333 594.75c-58.83 0-102-46.329-102-97 0-17.616 5.475-34.537 14.75-49.333-24.888-23.417-40.75-56.324-40.75-92.833v-56.917c0.002-23.563 19.103-42.664 42.666-42.667h170.667c23.563 0.002 42.664 19.103 42.667 42.666v56.917c0 36.573-15.843 69.484-40.75 92.917 9.251 14.782 14.75 31.658 14.75 49.25 0 50.671-43.17 97-102 97zM853.333 514.584c4.008 0 11.833-4.666 11.833-16.833 0-8.691-3.849-12.519-7.583-14.583-1.434 0.047-2.81 0.417-4.25 0.417-1.424 0-2.753-0.369-4.167-0.417-3.754 2.042-7.667 5.838-7.667 14.583 0 12.167 7.826 16.833 11.833 16.833zM853.333 398.25c2.688 0 5.211-0.303 7.667-0.75 19.784-3.602 35-20.589 35-41.917v-14.25h-85.333v14.25c0 23.996 18.67 42.667 42.667 42.667zM170.667 594.75c-58.83 0-102-46.329-102-97 0-17.616 5.475-34.537 14.75-49.333-24.888-23.417-40.75-56.324-40.75-92.833v-56.917c0.002-23.563 19.103-42.664 42.666-42.667h170.667c23.563 0.002 42.664 19.103 42.667 42.666v56.917c0 36.573-15.843 69.484-40.75 92.917 9.251 14.782 14.75 31.658 14.75 49.25 0 50.671-43.17 97-102 97zM170.667 514.584c4.008 0 11.833-4.666 11.833-16.833 0-8.691-3.849-12.519-7.583-14.583-1.434 0.047-2.81 0.417-4.25 0.417-1.424 0-2.753-0.369-4.167-0.417-3.754 2.042-7.667 5.838-7.667 14.583 0 12.167 7.826 16.833 11.833 16.833zM170.667 398.25c2.688 0 5.211-0.303 7.667-0.75 19.784-3.602 35-20.589 35-41.917v-14.25h-85.333v14.25c0 23.996 18.67 42.667 42.667 42.667z" />
<glyph unicode="&#xe944;" glyph-name="phone" d="M128 853.334c-23.563-0.002-42.664-19.103-42.667-42.666v-810.667c0.002-23.563 19.103-42.664 42.666-42.667h256c22.955 0.030 41.661 18.183 42.581 40.917l469.419 0.083c22.589 0.029 40.893 19.861 40.917 44.331v640.002c-0.023 24.472-18.328 44.304-40.914 44.333h-469.336v83.667c-0.002 23.563-19.103 42.664-42.666 42.667h-256zM170.667 768h170.667v-725.333h-170.667v725.333zM426.667 638.334h428.417v-551.333h-428.417v551.333zM554.667 298.667c0-23.564-19.103-42.667-42.667-42.667s-42.667 19.103-42.667 42.667c0 23.564 19.103 42.667 42.667 42.667s42.667-19.103 42.667-42.667zM682.667 170.667c0-23.564-19.103-42.667-42.667-42.667s-42.667 19.103-42.667 42.667c0 23.564 19.103 42.667 42.667 42.667s42.667-19.103 42.667-42.667zM810.667 298.667c0-23.564-19.103-42.667-42.667-42.667s-42.667 19.103-42.667 42.667c0 23.564 19.103 42.667 42.667 42.667s42.667-19.103 42.667-42.667zM682.667 298.667c0-23.564-19.103-42.667-42.667-42.667s-42.667 19.103-42.667 42.667c0 23.564 19.103 42.667 42.667 42.667s42.667-19.103 42.667-42.667zM554.667 426.667c0-23.564-19.103-42.667-42.667-42.667s-42.667 19.103-42.667 42.667c0 23.564 19.103 42.667 42.667 42.667s42.667-19.103 42.667-42.667zM810.667 426.667c0-23.564-19.103-42.667-42.667-42.667s-42.667 19.103-42.667 42.667c0 23.564 19.103 42.667 42.667 42.667s42.667-19.103 42.667-42.667zM682.667 426.667c0-23.564-19.103-42.667-42.667-42.667s-42.667 19.103-42.667 42.667c0 23.564 19.103 42.667 42.667 42.667s42.667-19.103 42.667-42.667zM554.667 554.667c0-23.564-19.103-42.667-42.667-42.667s-42.667 19.103-42.667 42.667c0 23.564 19.103 42.667 42.667 42.667s42.667-19.103 42.667-42.667zM810.667 554.667c0-23.564-19.103-42.667-42.667-42.667s-42.667 19.103-42.667 42.667c0 23.564 19.103 42.667 42.667 42.667s42.667-19.103 42.667-42.667zM682.667 554.667c0-23.564-19.103-42.667-42.667-42.667s-42.667 19.103-42.667 42.667c0 23.564 19.103 42.667 42.667 42.667s42.667-19.103 42.667-42.667z" />
<glyph unicode="&#xe945;" glyph-name="pill" d="M329.25 822.5c-54.69 0-109.447-20.697-150.917-62.167-82.939-82.939-82.939-218.811 0-301.75l365.583-365.583c82.939-82.939 218.811-82.939 301.75 0s82.939 218.811 0 301.75l-183.833 185.083c-0.084 0.085-0.165 0.166-0.247 0.247l-181.503 180.253c-41.469 41.469-96.143 62.167-150.833 62.167zM329.25 737.667c32.682 0 65.354-12.521 90.5-37.667 0.14-0.298 0.167-0.353 0.195-0.408l151.138-149.926-181.5-181.583-150.917 150.833c-50.291 50.291-50.291 130.792 0 181.083 25.146 25.146 57.901 37.667 90.583 37.667zM631.417 489.25l153.75-154.75c-0.186 0.084-0.132 0.056-0.077 0.029 50.535-50.403 50.535-130.904 0.244-181.195s-130.792-50.291-181.083 0l-154.333 154.417 181.5 181.5z" />
<glyph unicode="&#xe946;" glyph-name="plus" d="M511.333 853.917c-23.278-0.375-42.004-19.334-42.004-42.666 0-0.205 0.001-0.411 0.004-0.615v-341.302h-341.333c-0.179 0.003-0.391 0.004-0.603 0.004-23.567 0-42.671-19.104-42.671-42.671s19.104-42.671 42.671-42.671c0.212 0 0.424 0.002 0.635 0.005h341.301v-341.333c-0.003-0.179-0.004-0.391-0.004-0.603 0-23.567 19.104-42.671 42.671-42.671s42.671 19.104 42.671 42.671c0 0.212-0.002 0.424-0.005 0.635v341.301h341.333c0.179-0.003 0.391-0.004 0.603-0.004 23.567 0 42.671 19.104 42.671 42.671s-19.104 42.671-42.671 42.671c-0.212 0-0.424-0.002-0.635-0.005h-341.301v341.333c0.003 0.174 0.004 0.379 0.004 0.584 0 23.567-19.104 42.671-42.671 42.671-0.234 0-0.468-0.002-0.702-0.006z" />
<glyph unicode="&#xe947;" glyph-name="power" d="M229.75 725.75c-0.456 0.017-0.992 0.027-1.531 0.027-12.486 0-23.72-5.363-31.523-13.911-69.362-73.997-111.363-175.046-111.363-285.2 0-235.021 191.646-426.667 426.667-426.667s426.667 191.646 426.667 426.667c0 110.154-42.001 211.203-111.333 285.167-7.853 8.822-19.24 14.352-31.919 14.352-23.567 0-42.671-19.104-42.671-42.671 0-11.705 4.712-22.308 12.344-30.018 54.568-58.214 88.246-138.327 88.246-226.83 0-188.83-152.504-341.333-341.333-341.333s-341.333 152.504-341.333 341.333c0 88.502 33.678 168.616 88.25 226.833 7.39 7.662 11.943 18.103 11.943 29.608 0 23.018-18.225 41.778-41.031 42.64zM511.333 853.917c-23.278-0.375-42.004-19.334-42.004-42.666 0-0.205 0.001-0.411 0.004-0.615v-383.969c-0.003-0.179-0.004-0.391-0.004-0.603 0-23.567 19.104-42.671 42.671-42.671s42.671 19.104 42.671 42.671c0 0.212-0.002 0.424-0.005 0.635v383.968c0.003 0.174 0.004 0.379 0.004 0.584 0 23.567-19.104 42.671-42.671 42.671-0.234 0-0.468-0.002-0.702-0.006z" />
<glyph unicode="&#xe948;" glyph-name="printer" d="M213.333 853.334c-23.563-0.002-42.664-19.103-42.667-42.667v-214.583h-85.333c-0.004 0-0.008 0-0.012 0-24.149 0-43.726-18.541-43.738-41.416v-384.001c0.011-22.876 19.589-41.417 43.738-41.417 0.004 0 0.009 0 0.013 0h853.333c0.004 0 0.008 0 0.012 0 24.149 0 43.726 18.541 43.738 41.416v384.001c-0.011 22.876-19.589 41.417-43.738 41.417-0.004 0-0.009 0-0.013 0h-85.333v214.583c-0.002 23.563-19.103 42.664-42.667 42.667h-597.333zM256 768h512v-171.917h-512v171.917zM129.083 513.25h765.833v-301.167h-765.833v301.167zM128 87.5c0 0 0 0 0 0-22.285 0-40.35-20.073-40.35-44.833s18.065-44.833 40.35-44.833c0 0 0 0 0 0h768c22.285 0 40.35 20.073 40.35 44.833s-18.065 44.833-40.35 44.833h-768z" />
<glyph unicode="&#xe949;" glyph-name="qrcode" d="M85.333 896.134c-0.013 0-0.028 0-0.044 0-23.614 0-42.756-19.143-42.756-42.756 0-0.015 0-0.031 0-0.046v-255.998c0-0.013 0-0.028 0-0.044 0-23.614 19.143-42.756 42.756-42.756 0.015 0 0.031 0 0.046 0h255.998c0.013 0 0.028 0 0.044 0 23.614 0 42.756 19.143 42.756 42.756 0 0.015 0 0.031 0 0.046v255.998c0 0.013 0 0.028 0 0.044 0 23.614-19.143 42.756-42.756 42.756-0.015 0-0.031 0-0.046 0h-255.998zM128.133 810.534h170.4v-170.4h-170.4v170.4zM85.333 298.8c-0.013 0-0.028 0-0.044 0-23.614 0-42.756-19.143-42.756-42.756 0-0.015 0-0.031 0-0.046v-255.998c0-0.013 0-0.028 0-0.044 0-23.614 19.143-42.756 42.756-42.756 0.015 0 0.031 0 0.046 0h255.998c0.013 0 0.028 0 0.044 0 23.614 0 42.756 19.143 42.756 42.756 0 0.015 0 0.031 0 0.046v255.998c0 0.013 0 0.028 0 0.044 0 23.614-19.143 42.756-42.756 42.756-0.015 0-0.031 0-0.046 0h-255.998zM128.133 213.2h170.4v-170.4h-170.4v170.4zM682.667 896.134c-0.013 0-0.028 0-0.044 0-23.614 0-42.756-19.143-42.756-42.756 0-0.015 0-0.031 0-0.046v-255.998c0-0.013 0-0.028 0-0.044 0-23.614 19.143-42.756 42.756-42.756 0.015 0 0.031 0 0.046 0h255.998c0.013 0 0.028 0 0.044 0 23.614 0 42.756 19.143 42.756 42.756 0 0.015 0 0.031 0 0.046v255.998c0 0.013 0 0.028 0 0.044 0 23.614-19.143 42.756-42.756 42.756-0.015 0-0.031 0-0.046 0h-255.998zM725.467 810.534h170.4v-170.4h-170.4v170.4zM810 213.917c-23.531-0.368-42.322-19.718-42-43.25v-128h-85.333c-0.179 0.003-0.391 0.004-0.603 0.004-23.567 0-42.671-19.104-42.671-42.671s19.104-42.671 42.671-42.671c0.212 0 0.424 0.002 0.635 0.005h255.968c0.179-0.003 0.391-0.004 0.603-0.004 23.567 0 42.671 19.104 42.671 42.671s-19.104 42.671-42.671 42.671c-0.212 0-0.424-0.002-0.635-0.005h-85.301v128c0.329 24.054-19.28 43.626-43.333 43.25zM640 426.667c-0.179 0.003-0.391 0.004-0.603 0.004-23.567 0-42.671-19.104-42.671-42.671s19.104-42.671 42.671-42.671c0.212 0 0.424 0.002 0.635 0.005h170.635c0.179-0.003 0.391-0.004 0.603-0.004 23.567 0 42.671 19.104 42.671 42.671s-19.104 42.671-42.671 42.671c-0.212 0-0.424-0.002-0.635-0.005h-170.635zM938.004 513.191c-23.278-0.375-42.004-19.334-42.004-42.666 0-0.205 0.001-0.411 0.004-0.615v-170.636c-0.003-0.179-0.004-0.391-0.004-0.603 0-23.567 19.104-42.671 42.671-42.671s42.671 19.104 42.671 42.671c0 0.212-0.002 0.424-0.005 0.635v170.635c0.003 0.174 0.004 0.379 0.004 0.584 0 23.567-19.104 42.671-42.671 42.671-0.234 0-0.468-0.002-0.702-0.006zM469.333 170.667c-0.179 0.003-0.391 0.004-0.603 0.004-23.567 0-42.671-19.104-42.671-42.671s19.104-42.671 42.671-42.671c0.212 0 0.424 0.002 0.635 0.005h170.635c0.179-0.003 0.391-0.004 0.603-0.004 23.567 0 42.671 19.104 42.671 42.671s-19.104 42.671-42.671 42.671c-0.212 0-0.424-0.002-0.635-0.005h-170.635zM469.333 640c-0.179 0.003-0.391 0.004-0.603 0.004-23.567 0-42.671-19.104-42.671-42.671s19.104-42.671 42.671-42.671c0.212 0 0.424 0.002 0.635 0.005h85.301c0.179-0.003 0.391-0.004 0.603-0.004 23.567 0 42.671 19.104 42.671 42.671s-19.104 42.671-42.671 42.671c-0.212 0-0.424-0.002-0.635-0.005h-85.301zM469.333 298.667c-0.179 0.003-0.391 0.004-0.603 0.004-23.567 0-42.671-19.104-42.671-42.671s19.104-42.671 42.671-42.671c0.212 0 0.424 0.002 0.635 0.005h85.301c0.179-0.003 0.391-0.004 0.603-0.004 23.567 0 42.671 19.104 42.671 42.671s-19.104 42.671-42.671 42.671c-0.212 0-0.424-0.002-0.635-0.005h-85.301zM84.667 512.584c-23.278-0.375-42.004-19.334-42.004-42.666 0-0.205 0.001-0.411 0.004-0.615v-85.302c-0.003-0.179-0.004-0.391-0.004-0.603 0-23.567 19.104-42.671 42.671-42.671s42.671 19.104 42.671 42.671c0 0.212-0.002 0.424-0.005 0.635v85.301c0.003 0.174 0.004 0.379 0.004 0.584 0 23.567-19.104 42.671-42.671 42.671-0.234 0-0.468-0.002-0.702-0.006zM213.333 469.334c-0.179 0.003-0.391 0.004-0.603 0.004-23.567 0-42.671-19.104-42.671-42.671s19.104-42.671 42.671-42.671c0.212 0 0.424 0.002 0.635 0.005h298.635c0.179-0.003 0.391-0.004 0.603-0.004 23.567 0 42.671 19.104 42.671 42.671s-19.104 42.671-42.671 42.671c-0.212 0-0.424-0.002-0.635-0.005h-298.635zM511.333 896.584c-23.278-0.375-42.004-19.334-42.004-42.666 0-0.205 0.001-0.411 0.004-0.615v-127.969c-0.003-0.179-0.004-0.391-0.004-0.603 0-23.567 19.104-42.671 42.671-42.671s42.671 19.104 42.671 42.671c0 0.212-0.002 0.424-0.005 0.635v127.968c0.003 0.174 0.004 0.379 0.004 0.584 0 23.567-19.104 42.671-42.671 42.671-0.234 0-0.468-0.002-0.702-0.006zM768 768h85.333v-85.333h-85.333v85.333zM170.667 170.667h85.333v-85.333h-85.333v85.333zM170.667 768h85.333v-85.333h-85.333v85.333z" />
<glyph unicode="&#xe94a;" glyph-name="quote-left" d="M725.333 725.334c23.563-0.002 42.664-19.103 42.667-42.666v-213.334c0.003-0.179 0.004-0.391 0.004-0.603 0-23.567-19.104-42.671-42.671-42.671s-42.671 19.104-42.671 42.671c0 0.212 0.002 0.424 0.005 0.635v170.635h-42.667v-169c4.847-122.933 42.715-226.61 117.917-315.417 6.288-7.389 10.113-17.042 10.113-27.59 0-23.578-19.113-42.691-42.691-42.691-13.036 0-24.708 5.843-32.538 15.053-87.579 103.425-132.655 228.356-138.134 367.311-0.005 0.248-0.008 0.54-0.008 0.833s0.003 0.585 0.009 0.877l-0.001 213.29c0.002 23.563 19.103 42.664 42.666 42.667h128zM426.667 725.334c23.563-0.002 42.664-19.103 42.667-42.666v-213.334c0.003-0.179 0.004-0.391 0.004-0.603 0-23.567-19.104-42.671-42.671-42.671s-42.671 19.104-42.671 42.671c0 0.212 0.002 0.424 0.005 0.635v170.635h-42.667v-169c4.847-122.933 42.715-226.61 117.917-315.417 6.288-7.389 10.113-17.042 10.113-27.59 0-23.578-19.113-42.691-42.691-42.691-13.036 0-24.708 5.843-32.538 15.053-87.579 103.425-132.655 228.356-138.134 367.311-0.005 0.248-0.008 0.54-0.008 0.833s0.003 0.585 0.009 0.877l-0.001 213.29c0.002 23.563 19.103 42.664 42.666 42.667h128z" />
<glyph unicode="&#xe94b;" glyph-name="quote-right" d="M597.333 725.334c-23.563-0.002-42.664-19.103-42.667-42.666v-213.334c-0.003-0.179-0.004-0.391-0.004-0.603 0-23.567 19.104-42.671 42.671-42.671s42.671 19.104 42.671 42.671c0 0.212-0.002 0.424-0.005 0.635v170.635h42.667v-169c-4.847-122.933-42.715-226.61-117.917-315.417-6.288-7.389-10.113-17.042-10.113-27.59 0-23.578 19.113-42.691 42.691-42.691 13.036 0 24.708 5.843 32.538 15.053 87.579 103.425 132.655 228.356 138.134 367.311 0.005 0.248 0.008 0.54 0.008 0.833s-0.003 0.585-0.009 0.877l0.001 213.29c-0.002 23.563-19.103 42.664-42.666 42.667h-128zM298.667 725.334c-23.563-0.002-42.664-19.103-42.667-42.666v-213.334c-0.003-0.179-0.004-0.391-0.004-0.603 0-23.567 19.104-42.671 42.671-42.671s42.671 19.104 42.671 42.671c0 0.212-0.002 0.424-0.005 0.635v170.635h42.667v-169c-4.847-122.933-42.715-226.61-117.917-315.417-6.288-7.389-10.113-17.042-10.113-27.59 0-23.578 19.113-42.691 42.691-42.691 13.036 0 24.708 5.843 32.538 15.053 87.579 103.425 132.655 228.356 138.134 367.311 0.005 0.248 0.008 0.54 0.008 0.833s-0.003 0.585-0.009 0.877l0.001 213.29c-0.002 23.563-19.103 42.664-42.666 42.667h-128z" />
<glyph unicode="&#xe94c;" glyph-name="rocket" d="M510.583 896c-13.948-0.492-26.138-7.605-33.575-18.277-92.64-134.267-141.488-296.93-163.425-457.056-35.35-9.915-65.318-26.49-87.083-50.417-25.746-28.303-39.325-63.689-46.667-101.25-14.684-75.123-7.95-163.844-9.167-268.5-0.215-56.446 84.225-57.435 85.333-1 0.355 30.951 13.477 79.357 33.417 115.75 19.848 36.225 45.611 54.727 54.333 55.417h336.25c8.722-0.689 34.485-19.191 54.333-55.417 19.94-36.393 33.061-84.799 33.417-115.75 1.108-56.435 85.548-55.446 85.333 1-1.216 104.656 5.518 193.377-9.167 268.5-7.342 37.561-20.92 72.947-46.667 101.25-21.474 23.606-50.859 40.114-85.583 50.083-21.554 159.424-71.152 321.936-164.583 457.25-7.802 11.201-20.617 18.439-35.123 18.439-0.484 0-0.967-0.008-1.447-0.024zM512.083 764.167c84.335-153.16 119.239-337.382 123.167-508.167h-246.25c5.574 172.151 40.281 356.671 123.083 508.167zM303.417 324.417c-1.922-26.486-3.131-52.581-3.75-78.417-13.686-6.219-25.97-14.817-37-25.167 0.93 8.052-0.463 24.69 0.917 31.75 5.501 28.14 14.080 46.972 26.083 60.167 3.881 4.267 8.561 8.074 13.75 11.667zM721.5 323.667c4.712-3.383 8.979-6.954 12.583-10.917 12.003-13.195 20.583-32.027 26.083-60.167 1.38-7.060-0.013-23.698 0.917-31.75-10.877 10.205-22.963 18.714-36.417 24.917-0.372 25.664-1.411 51.581-3.167 77.917zM469.333 128c-0.179 0.003-0.391 0.004-0.603 0.004-23.567 0-42.671-19.104-42.671-42.671s19.104-42.671 42.671-42.671c0.212 0 0.424 0.002 0.635 0.005h85.301c0.179-0.003 0.391-0.004 0.603-0.004 23.567 0 42.671 19.104 42.671 42.671s-19.104 42.671-42.671 42.671c-0.212 0-0.424-0.002-0.635-0.005h-85.301z" />
<glyph unicode="&#xe94d;" glyph-name="send" d="M897.417 853.334c-0.412 0.014-0.896 0.022-1.382 0.022-6.97 0-13.549-1.671-19.36-4.634l-767.758-383.888c-14.098-7.162-23.589-21.556-23.589-38.167s9.491-31.005 23.347-38.055l147.326-73.612v-101.667c0.002-23.563 19.103-42.664 42.666-42.667h101.667l73.5-147.083c7.162-14.098 21.556-23.589 38.167-23.589s31.005 9.491 38.055 23.347l384.112 768.242c2.846 5.565 4.515 12.139 4.515 19.102 0 23.072-18.311 41.867-41.193 42.646zM800.583 715.25l-288.583-577.167-47.167 94.333c-7.163 14.095-21.555 23.583-38.164 23.583-0.001 0-0.002 0-0.003 0h-85.333v85.333c0 0.001 0 0.002 0 0.003 0 16.609-9.489 31.001-23.341 38.052l-94.576 47.279 577.167 288.583z" />
<glyph unicode="&#xe94e;" glyph-name="server" d="M298.667 891.084c-26.057-0.008-47.178-16.904-47.187-37.749v-853.334c0.010-20.846 21.131-37.742 47.187-37.75h426.668c26.057 0.008 47.178 16.904 47.188 37.749v853.334c-0.010 20.846-21.131 37.742-47.187 37.75h-426.668zM345.854 815.584h332.292v-777.833h-332.292v777.833zM426.667 725.334c-0.179 0.003-0.391 0.004-0.603 0.004-23.567 0-42.671-19.104-42.671-42.671s19.104-42.671 42.671-42.671c0.212 0 0.424 0.002 0.635 0.005h170.635c0.179-0.003 0.391-0.004 0.603-0.004 23.567 0 42.671 19.104 42.671 42.671s-19.104 42.671-42.671 42.671c-0.212 0-0.424-0.002-0.635-0.005h-170.635zM426.667 597.334c-0.179 0.003-0.391 0.004-0.603 0.004-23.567 0-42.671-19.104-42.671-42.671s19.104-42.671 42.671-42.671c0.212 0 0.424 0.002 0.635 0.005h170.635c0.179-0.003 0.391-0.004 0.603-0.004 23.567 0 42.671 19.104 42.671 42.671s-19.104 42.671-42.671 42.671c-0.212 0-0.424-0.002-0.635-0.005h-170.635zM426.667 469.334c-0.179 0.003-0.391 0.004-0.603 0.004-23.567 0-42.671-19.104-42.671-42.671s19.104-42.671 42.671-42.671c0.212 0 0.424 0.002 0.635 0.005h170.635c0.179-0.003 0.391-0.004 0.603-0.004 23.567 0 42.671 19.104 42.671 42.671s-19.104 42.671-42.671 42.671c-0.212 0-0.424-0.002-0.635-0.005h-170.635zM426.667 213.334c-0.179 0.003-0.391 0.004-0.603 0.004-23.567 0-42.671-19.104-42.671-42.671s19.104-42.671 42.671-42.671c0.212 0 0.424 0.002 0.635 0.005h170.635c0.179-0.003 0.391-0.004 0.603-0.004 23.567 0 42.671 19.104 42.671 42.671s-19.104 42.671-42.671 42.671c-0.212 0-0.424-0.002-0.635-0.005h-170.635z" />
<glyph unicode="&#xe94f;" glyph-name="share" d="M810.667 853.334c-70.187 0-128-57.813-128-128 0-5.299 0.944-10.362 1.583-15.5l-382.5-191.25c-23.069 22.205-54.209 36.083-88.417 36.083-70.187 0-128-57.813-128-128s57.813-128 128-128c34.208 0 65.348 13.878 88.417 36.083l382.5-191.25c-0.639-5.138-1.583-10.201-1.583-15.5 0-70.187 57.813-128 128-128s128 57.813 128 128c0 70.187-57.813 128-128 128-34.208 0-65.348-13.878-88.417-36.083l-382.5 191.25c0.64 5.138 1.583 10.201 1.583 15.5s-0.944 10.362-1.583 15.5l382.5 191.25c23.069-22.205 54.209-36.083 88.417-36.083 70.187 0 128 57.813 128 128s-57.813 128-128 128zM810.667 768c24.070 0 42.667-18.597 42.667-42.667s-18.597-42.667-42.667-42.667c-24.070 0-42.667 18.597-42.667 42.667s18.597 42.667 42.667 42.667zM213.333 469.334c24.070 0 42.667-18.597 42.667-42.667s-18.597-42.667-42.667-42.667c-24.070 0-42.667 18.597-42.667 42.667s18.597 42.667 42.667 42.667zM810.667 170.667c24.070 0 42.667-18.597 42.667-42.667s-18.597-42.667-42.667-42.667c-24.070 0-42.667 18.597-42.667 42.667s18.597 42.667 42.667 42.667z" />
<glyph unicode="&#xe950;" glyph-name="star-filled" d="M510.167 853.25c-17.789-0.761-33.236-12.487-38.75-29.417l-86.167-265.333h-279.083c-41.297-0.032-58.468-52.859-25.083-77.167l225.75-164-86.167-265.333c-12.604-39.215 32.174-71.76 65.583-47.667l225.75 163.917 225.75-163.917c33.409-24.093 78.187 8.452 65.583 47.667l-86.167 265.333 225.75 164c33.385 24.308 16.214 77.134-25.083 77.167h-279.083l-86.167 265.333c-5.933 18.215-23.277 30.244-42.417 29.417z" />
<glyph unicode="&#xe951;" glyph-name="star" d="M510.167 853.25c-18.096-0.798-33.202-12.75-38.663-29.115l-86.254-265.635h-279.083c-23.552-0.019-42.638-19.116-42.638-42.671 0-14.125 6.863-26.646 17.435-34.413l225.869-164.083-86.167-265.333c-1.298-3.901-2.047-8.391-2.047-13.057 0-23.567 19.104-42.671 42.671-42.671 9.374 0 18.041 3.022 25.081 8.146l225.628 163.832 225.75-163.917c6.918-5.039 15.586-8.061 24.959-8.061 23.567 0 42.671 19.104 42.671 42.671 0 4.665-0.749 9.156-2.133 13.358l-86.081 265.032 225.75 164c10.692 7.85 17.554 20.371 17.554 34.496 0 23.555-19.085 42.652-42.636 42.671h-279.085l-86.167 265.333c-5.74 17.243-21.731 29.457-40.573 29.457-0.648 0-1.293-0.014-1.935-0.043zM512 672.5l55.167-169.833c5.727-17.265 21.726-29.498 40.583-29.5h178.75l-144.583-105c-10.705-7.849-17.578-20.378-17.578-34.513 0-4.701 0.76-9.225 2.165-13.455l55.163-169.782-144.583 105.083c-6.942 5.094-15.656 8.151-25.083 8.151s-18.141-3.057-25.203-8.234l-144.464-105 55.25 170.083c1.318 3.929 2.078 8.452 2.078 13.154 0 14.135-6.873 26.664-17.459 34.43l-144.703 105.083h178.75c18.857 0.002 34.857 12.235 40.497 29.199l55.253 170.135z" />
<glyph unicode="&#xe952;" glyph-name="stethoscope" d="M255.917 853.417c0.203 0.003 0.441 0.005 0.681 0.005 23.567 0 42.671-19.104 42.671-42.671s-19.104-42.671-42.671-42.671c-0.181 0-0.362 0.001-0.542 0.003l-42.639-0.083c-0.186-0.003-0.405-0.005-0.625-0.005s-0.439 0.002-0.658 0.005c-18.619 0.525-25.125-3.157-29.717-7.75-4.561-4.563-10.173-15.045-11.75-37.5v-286.5c22.919-67.524 65.815-110.7 138.167-137.583h75.167c0.179 0.003 0.391 0.004 0.603 0.004 23.567 0 42.671-19.104 42.671-42.671s-19.104-42.671-42.671-42.671c-0.212 0-0.424 0.002-0.635 0.005h-85.301c-0.028 0-0.061 0-0.093 0-5.074 0-9.94 0.885-14.454 2.51-96.744 34.316-166.273 103.392-196.703 197.74-1.312 3.906-2.073 8.404-2.083 13.079v298.671c0 0.039 0 0.086 0 0.133 0 0.95 0.031 1.893 0.092 2.828 2.385 35.471 12.813 68.435 36.658 92.29s58.077 33.718 92.417 32.75l41.417 0.083zM426.667 853.334c-0.179 0.003-0.391 0.004-0.603 0.004-23.567 0-42.671-19.104-42.671-42.671s19.104-42.671 42.671-42.671c0.212 0 0.424 0.002 0.635 0.005h42.635c0.173-0.003 0.378-0.004 0.583-0.004s0.41 0.001 0.614 0.004c18.622 0.525 25.127-3.157 29.719-7.75 4.562-4.563 10.174-15.044 11.75-37.5v-286.5c-22.919-67.524-65.815-110.7-138.167-137.583h-75.167c-0.179 0.003-0.391 0.004-0.603 0.004-23.567 0-42.671-19.104-42.671-42.671s19.104-42.671 42.671-42.671c0.212 0 0.424 0.002 0.635 0.005h85.301c0.028 0 0.061 0 0.093 0 5.074 0 9.94 0.885 14.454 2.51 96.744 34.316 166.273 103.392 196.703 197.74 1.312 3.906 2.073 8.404 2.083 13.079v298.671c0 0.039 0 0.086 0 0.133 0 0.95-0.031 1.893-0.092 2.828-2.385 35.471-12.813 68.435-36.658 92.29s-58.077 33.718-92.417 32.75h-41.5zM810.672 554.668c69.956 0 127.786-57.69 127.786-128s-57.83-128-127.786-128c-69.956 0-127.786 57.69-127.786 128s57.83 128 127.786 128zM810.672 469.335c-24.318 0-42.89-18.72-42.89-42.667s18.572-42.667 42.89-42.667c24.318 0 42.89 18.72 42.89 42.667s-18.572 42.667-42.89 42.667zM213.333 896c46.623 0 85.333-38.71 85.333-85.333s-38.71-85.333-85.333-85.333c-46.623 0-85.333 38.71-85.333 85.333s38.71 85.333 85.333 85.333zM469.333 896c46.623 0 85.333-38.71 85.333-85.333s-38.71-85.333-85.333-85.333c-46.623 0-85.333 38.71-85.333 85.333s38.71 85.333 85.333 85.333zM853.333 341.334v-170.752c-0.109-91.77-72.561-170.921-170.667-170.581h-212.167c-92.461-2.555-171.661 75.247-171.833 170.583v85.417h85.333v-85.25c0.083-45.89 43.849-86.531 84.167-85.417 0.389 0.005 0.778 0.005 1.167 0h213.5c56.397-0.249 85.071 33.596 85.167 85.333v170.667z" />
<glyph unicode="&#xe953;" glyph-name="sun" d="M512 682.667c-140.88 0-256-115.12-256-256s115.12-256 256-256c140.88 0 256 115.12 256 256s-115.12 256-256 256zM512 597.334c94.762 0 170.667-75.905 170.667-170.667s-75.905-170.667-170.667-170.667c-94.762 0-170.667 75.905-170.667 170.667s75.905 170.667 170.667 170.667zM853.333 469.334c-0.179 0.003-0.391 0.004-0.603 0.004-23.567 0-42.671-19.104-42.671-42.671s19.104-42.671 42.671-42.671c0.212 0 0.424 0.002 0.635 0.005h85.301c0.179-0.003 0.391-0.004 0.603-0.004 23.567 0 42.671 19.104 42.671 42.671s-19.104 42.671-42.671 42.671c-0.212 0-0.424-0.002-0.635-0.005h-85.301zM511.333 896.584c-23.278-0.375-42.004-19.334-42.004-42.666 0-0.205 0.001-0.411 0.004-0.615v-85.302c-0.003-0.179-0.004-0.391-0.004-0.603 0-23.567 19.104-42.671 42.671-42.671s42.671 19.104 42.671 42.671c0 0.212-0.002 0.424-0.005 0.635v85.301c0.003 0.174 0.004 0.379 0.004 0.584 0 23.567-19.104 42.671-42.671 42.671-0.234 0-0.468-0.002-0.702-0.006zM85.333 469.334c-0.179 0.003-0.391 0.004-0.603 0.004-23.567 0-42.671-19.104-42.671-42.671s19.104-42.671 42.671-42.671c0.212 0 0.424 0.002 0.635 0.005h85.301c0.179-0.003 0.391-0.004 0.603-0.004 23.567 0 42.671 19.104 42.671 42.671s-19.104 42.671-42.671 42.671c-0.212 0-0.424-0.002-0.635-0.005h-85.301zM511.333 128.584c-23.278-0.375-42.004-19.334-42.004-42.666 0-0.205 0.001-0.411 0.004-0.615v-85.302c-0.003-0.179-0.004-0.391-0.004-0.603 0-23.567 19.104-42.671 42.671-42.671s42.671 19.104 42.671 42.671c0 0.212-0.002 0.424-0.005 0.635v85.301c0.003 0.174 0.004 0.379 0.004 0.584 0 23.567-19.104 42.671-42.671 42.671-0.234 0-0.468-0.002-0.702-0.006zM170.25 811.084c-23.562-0.006-42.66-19.108-42.66-42.671 0-11.987 4.942-22.819 12.9-30.57l85.343-85.342c7.778-8.091 18.692-13.118 30.78-13.118 23.567 0 42.671 19.104 42.671 42.671 0 12.088-5.027 23.003-13.104 30.767l-85.347 85.347c-7.76 7.971-18.594 12.916-30.583 12.917zM852.5 811.084c-11.532-0.354-21.86-5.231-29.324-12.907l-85.343-85.343c-8.091-7.778-13.118-18.692-13.118-30.781 0-23.567 19.104-42.671 42.671-42.671 12.089 0 23.003 5.027 30.767 13.104l85.347 85.347c7.979 7.762 12.929 18.602 12.929 30.598 0 23.567-19.104 42.671-42.671 42.671-0.442 0-0.883-0.007-1.322-0.020zM767.583 213.75c-23.562-0.006-42.66-19.108-42.66-42.671 0-11.987 4.942-22.819 12.9-30.57l85.343-85.342c7.778-8.092 18.692-13.118 30.781-13.118 23.567 0 42.671 19.104 42.671 42.671 0 12.089-5.027 23.003-13.104 30.767l-85.347 85.347c-7.76 7.971-18.594 12.916-30.583 12.917zM255.167 213.75c-11.532-0.354-21.86-5.231-29.324-12.907l-85.343-85.343c-8.091-7.778-13.118-18.692-13.118-30.781 0-23.567 19.104-42.671 42.671-42.671 12.089 0 23.003 5.027 30.767 13.104l85.347 85.347c7.979 7.762 12.929 18.602 12.929 30.598 0 23.567-19.104 42.671-42.671 42.671-0.442 0-0.883-0.007-1.322-0.020z" />
<glyph unicode="&#xe954;" glyph-name="tablet" d="M896 82.284c21.84 0.027 39.539 20.479 39.563 45.714v597.353c-0.024 25.238-17.722 45.689-39.56 45.717h-768.002c-21.84-0.027-39.539-20.479-39.563-45.714v-597.353c0.024-25.238 17.722-45.689 39.56-45.717h768.002zM856.437 173.717h-688.875v505.808h688.875v-505.808zM767.333 512.584c-23.278-0.375-42.004-19.334-42.004-42.666 0-0.205 0.001-0.411 0.004-0.615v-85.302c-0.003-0.179-0.004-0.391-0.004-0.603 0-23.567 19.104-42.671 42.671-42.671s42.671 19.104 42.671 42.671c0 0.212-0.002 0.424-0.005 0.635v85.301c0.003 0.174 0.004 0.379 0.004 0.584 0 23.567-19.104 42.671-42.671 42.671-0.234 0-0.468-0.002-0.702-0.006z" />
</font>
</defs>
</svg>
